<svg width="272" height="240" viewBox="0 0 272 240" fill="none" class="tab" data-tab="3" xmlns="http://www.w3.org/2000/svg">
	<line x1="267.5" y1="129" x2="235.5" y2="129" stroke="#A78BFA" />
	<line x1="52.5" y1="184" x2="4.5" y2="184" stroke="#A78BFA" />
	<line x1="267.5" y1="64" x2="215.5" y2="64" stroke="#A78BFA" />
	<line x1="33.5" y1="144" x2="4.5" y2="144" stroke="#A78BFA" />
	<path d="M251.146 127.854C251.342 128.049 251.658 128.049 251.854 127.854L255.036 124.672C255.231 124.476 255.231 124.16 255.036 123.964C254.84 123.769 254.524 123.769 254.328 123.964L251.5 126.793L248.672 123.964C248.476 123.769 248.16 123.769 247.964 123.964C247.769 124.16 247.769 124.476 247.964 124.672L251.146 127.854ZM251.854 65.1464C251.658 64.9512 251.342 64.9512 251.146 65.1464L247.964 68.3284C247.769 68.5237 247.769 68.8403 247.964 69.0355C248.16 69.2308 248.476 69.2308 248.672 69.0355L251.5 66.2071L254.328 69.0355C254.524 69.2308 254.84 69.2308 255.036 69.0355C255.231 68.8403 255.231 68.5237 255.036 68.3284L251.854 65.1464ZM252 127.5L252 65.5L251 65.5L251 127.5L252 127.5Z" fill="#A78BFA" />
	<path d="M19.1464 182.854C19.3417 183.049 19.6583 183.049 19.8536 182.854L23.0355 179.672C23.2308 179.476 23.2308 179.16 23.0355 178.964C22.8403 178.769 22.5237 178.769 22.3284 178.964L19.5 181.793L16.6716 178.964C16.4763 178.769 16.1597 178.769 15.9645 178.964C15.7692 179.16 15.7692 179.476 15.9645 179.672L19.1464 182.854ZM19.8536 146.146C19.6583 145.951 19.3417 145.951 19.1464 146.146L15.9645 149.328C15.7692 149.524 15.7692 149.84 15.9645 150.036C16.1597 150.231 16.4763 150.231 16.6716 150.036L19.5 147.207L22.3284 150.036C22.5237 150.231 22.8403 150.231 23.0355 150.036C23.2308 149.84 23.2308 149.524 23.0355 149.328L19.8536 146.146ZM20 182.5L20 146.5L19 146.5L19 182.5L20 182.5Z" fill="#A78BFA" />
	<path d="M261.426 96.5625V100.5H260.42V91.7727H261.426V94.9773H261.511C261.665 94.6392 261.895 94.3707 262.202 94.1719C262.511 93.9702 262.923 93.8693 263.438 93.8693C263.884 93.8693 264.274 93.9588 264.609 94.1378C264.945 94.3139 265.205 94.5852 265.389 94.9517C265.577 95.3153 265.67 95.7784 265.67 96.3409V100.5H264.665V96.4091C264.665 95.8892 264.53 95.4872 264.26 95.2031C263.993 94.9162 263.622 94.7727 263.148 94.7727C262.818 94.7727 262.523 94.8423 262.261 94.9815C262.003 95.1207 261.798 95.3239 261.648 95.5909C261.5 95.858 261.426 96.1818 261.426 96.5625Z" fill="#7C3AED" />
	<path d="M8.33523 161.955V162.807H4.80682V161.955H8.33523ZM5.86364 168.5V161.051C5.86364 160.676 5.9517 160.364 6.12784 160.114C6.30398 159.864 6.53267 159.676 6.81392 159.551C7.09517 159.426 7.39205 159.364 7.70455 159.364C7.9517 159.364 8.15341 159.384 8.30966 159.423C8.46591 159.463 8.58239 159.5 8.65909 159.534L8.36932 160.403C8.31818 160.386 8.24716 160.365 8.15625 160.339C8.06818 160.314 7.9517 160.301 7.80682 160.301C7.47443 160.301 7.23438 160.385 7.08665 160.553C6.94176 160.72 6.86932 160.966 6.86932 161.29V168.5H5.86364Z" fill="#7C3AED" />
	<line x1="117" y1="61.5" x2="117" y2="41.5" stroke="#A78BFA" />
	<line x1="52" y1="103.5" x2="52" y2="83.5" stroke="#A78BFA" />
	<line x1="30" y1="211.5" x2="30" y2="143.5" stroke="#A78BFA" stroke-dasharray="4 4" />
	<line x1="200" y1="61.5" x2="200" y2="41.5" stroke="#A78BFA" />
	<path d="M118.146 46.1464C117.951 46.3417 117.951 46.6583 118.146 46.8536L121.328 50.0355C121.524 50.2308 121.84 50.2308 122.036 50.0355C122.231 49.8403 122.231 49.5237 122.036 49.3284L119.207 46.5L122.036 43.6716C122.231 43.4763 122.231 43.1597 122.036 42.9645C121.84 42.7692 121.524 42.7692 121.328 42.9645L118.146 46.1464ZM198.854 46.8536C199.049 46.6583 199.049 46.3417 198.854 46.1464L195.672 42.9645C195.476 42.7692 195.16 42.7692 194.964 42.9645C194.769 43.1597 194.769 43.4763 194.964 43.6716L197.793 46.5L194.964 49.3284C194.769 49.5237 194.769 49.8403 194.964 50.0355C195.16 50.2308 195.476 50.2308 195.672 50.0355L198.854 46.8536ZM118.5 47H198.5V46H118.5V47Z" fill="#A78BFA" />
	<path d="M55.0063 88.421C54.9627 88.6937 55.1483 88.9501 55.421 88.9937L59.8645 89.7047C60.1372 89.7483 60.3936 89.5626 60.4372 89.29C60.4808 89.0173 60.2952 88.7609 60.0225 88.7172L56.0727 88.0853L56.7047 84.1355C56.7483 83.8628 56.5626 83.6064 56.29 83.5628C56.0173 83.5192 55.7609 83.7048 55.7172 83.9775L55.0063 88.421ZM113.994 46.579C114.037 46.3063 113.852 46.0499 113.579 46.0063L109.136 45.2953C108.863 45.2517 108.606 45.4374 108.563 45.71C108.519 45.9827 108.705 46.2391 108.978 46.2828L112.927 46.9147L112.295 50.8645C112.252 51.1372 112.437 51.3936 112.71 51.4372C112.983 51.4808 113.239 51.2952 113.283 51.0225L113.994 46.579ZM55.7933 88.905L113.793 46.905L113.207 46.095L55.2067 88.095L55.7933 88.905Z" fill="#A78BFA" />
	<path d="M32.1464 196.146C31.9512 196.342 31.9512 196.658 32.1464 196.854L35.3284 200.036C35.5237 200.231 35.8403 200.231 36.0355 200.036C36.2308 199.84 36.2308 199.524 36.0355 199.328L33.2071 196.5L36.0355 193.672C36.2308 193.476 36.2308 193.16 36.0355 192.964C35.8403 192.769 35.5237 192.769 35.3284 192.964L32.1464 196.146ZM178.854 196.854C179.049 196.658 179.049 196.342 178.854 196.146L175.672 192.964C175.476 192.769 175.16 192.769 174.964 192.964C174.769 193.16 174.769 193.476 174.964 193.672L177.793 196.5L174.964 199.328C174.769 199.524 174.769 199.84 174.964 200.036C175.16 200.231 175.476 200.231 175.672 200.036L178.854 196.854ZM32.5 197L178.5 197L178.5 196L32.5 196L32.5 197Z" fill="#A78BFA" />
	<path d="M157.347 37.6534C156.932 37.6534 156.555 37.5753 156.217 37.419C155.879 37.2599 155.611 37.0312 155.412 36.733C155.213 36.4318 155.114 36.0682 155.114 35.642C155.114 35.267 155.188 34.9631 155.335 34.7301C155.483 34.4943 155.68 34.3097 155.928 34.1761C156.175 34.0426 156.447 33.9432 156.746 33.8778C157.047 33.8097 157.349 33.7557 157.653 33.7159C158.051 33.6648 158.374 33.6264 158.621 33.6009C158.871 33.5724 159.053 33.5256 159.166 33.4602C159.283 33.3949 159.341 33.2812 159.341 33.1193V33.0852C159.341 32.6648 159.226 32.3381 158.996 32.1051C158.768 31.8722 158.423 31.7557 157.96 31.7557C157.48 31.7557 157.104 31.8608 156.831 32.071C156.558 32.2812 156.366 32.5057 156.256 32.7443L155.301 32.4034C155.472 32.0057 155.699 31.696 155.983 31.4744C156.27 31.25 156.582 31.0937 156.92 31.0057C157.261 30.9148 157.597 30.8693 157.926 30.8693C158.136 30.8693 158.378 30.8949 158.651 30.946C158.926 30.9943 159.192 31.0952 159.447 31.2486C159.706 31.402 159.92 31.6335 160.091 31.9432C160.261 32.2528 160.347 32.6676 160.347 33.1875V37.5H159.341V36.6136H159.29C159.222 36.7557 159.108 36.9077 158.949 37.0696C158.79 37.2315 158.578 37.3693 158.314 37.483C158.05 37.5966 157.727 37.6534 157.347 37.6534ZM157.5 36.75C157.898 36.75 158.233 36.6719 158.506 36.5156C158.781 36.3594 158.989 36.1577 159.128 35.9105C159.27 35.6634 159.341 35.4034 159.341 35.1307V34.2102C159.298 34.2614 159.205 34.3082 159.06 34.3509C158.918 34.3906 158.753 34.4261 158.565 34.4574C158.381 34.4858 158.2 34.5114 158.024 34.5341C157.851 34.554 157.71 34.571 157.602 34.5852C157.341 34.6193 157.097 34.6747 156.869 34.7514C156.645 34.8253 156.463 34.9375 156.324 35.0881C156.188 35.2358 156.119 35.4375 156.119 35.6932C156.119 36.0426 156.249 36.3068 156.507 36.4858C156.768 36.6619 157.099 36.75 157.5 36.75Z" fill="#7C3AED" />
	<path d="M83.4261 49.7727V58.5H82.4205V49.7727H83.4261Z" fill="#7C3AED" />
	<path d="M103.903 211.5L101.909 204.955H102.966L104.381 209.966H104.449L105.847 204.955H106.92L108.301 209.949H108.369L109.784 204.955H110.841L108.847 211.5H107.858L106.426 206.472H106.324L104.892 211.5H103.903Z" fill="#7C3AED" />
	<mask id="mask0_5864_67615" style="mask-type:alpha" maskUnits="userSpaceOnUse" x="30" y="63" width="209" height="121">
		<path d="M104.461 71.5264C111.152 66.4868 119.477 63.5 128.5 63.5H198.5C220.59 63.5 238.5 81.4087 238.5 103.5C238.5 118.136 230.637 130.937 218.906 137.909L164.539 175.473C157.848 180.512 149.523 183.5 140.5 183.5H70.5C48.4102 183.5 30.5 165.591 30.5 143.5C30.5 129.232 37.9727 116.708 49.2148 109.628L104.461 71.5264Z" fill="#D9D9D9" />
	</mask>
	<g mask="url(#mask0_5864_67615)">
		<path d="M30.5 143.5H180.5L239 103.5V143.5L180.5 183.5H30.5V143.5Z" fill="#F5F3FF" />
	</g>
	<path d="M104.745 71.938L104.753 71.932L104.762 71.9258C111.369 66.9493 119.589 64 128.5 64H198.5C220.314 64 238 81.6848 238 103.5C238 117.953 230.236 130.593 218.651 137.479L218.636 137.488L218.622 137.498L164.255 175.061L164.246 175.067L164.238 175.073C157.631 180.05 149.411 183 140.5 183H70.5C48.6863 183 31 165.315 31 143.5C31 129.411 38.3783 117.044 49.4813 110.051L49.4901 110.045L49.4987 110.04L104.745 71.938Z" stroke="#A78BFA" />
	<path d="M143.5 104.5L201 64" stroke="#A78BFA" />
	<rect x="31" y="104" width="149" height="79" rx="39.5" stroke="#A78BFA" />
	<line x1="180" y1="211.5" x2="180" y2="143.5" stroke="#A78BFA" stroke-dasharray="4 4" />
</svg>