<svg width="272" height="240" viewBox="0 0 272 240" fill="none" class="tab" data-tab="5" xmlns="http://www.w3.org/2000/svg">
	<line x1="96" y1="73" x2="96" y2="53" stroke="#A78BFA" />
	<line x1="255.5" y1="203.5" x2="187.5" y2="203.5" stroke="#A78BFA" />
	<line x1="76.5" y1="201.5" x2="16.5" y2="201.5" stroke="#A78BFA" />
	<line x1="171" y1="73" x2="171" y2="53" stroke="#A78BFA" />
	<line x1="255.5" y1="77.5" x2="187.5" y2="77.5" stroke="#A78BFA" />
	<line x1="32.5" y1="130.5" x2="16.5" y2="130.5" stroke="#A78BFA" />
	<path d="M97.1464 57.6464C96.9512 57.8417 96.9512 58.1583 97.1464 58.3536L100.328 61.5355C100.524 61.7308 100.84 61.7308 101.036 61.5355C101.231 61.3403 101.231 61.0237 101.036 60.8284L98.2071 58L101.036 55.1716C101.231 54.9763 101.231 54.6597 101.036 54.4645C100.84 54.2692 100.524 54.2692 100.328 54.4645L97.1464 57.6464ZM169.854 58.3536C170.049 58.1583 170.049 57.8417 169.854 57.6464L166.672 54.4645C166.476 54.2692 166.16 54.2692 165.964 54.4645C165.769 54.6597 165.769 54.9763 165.964 55.1716L168.793 58L165.964 60.8284C165.769 61.0237 165.769 61.3403 165.964 61.5355C166.16 61.7308 166.476 61.7308 166.672 61.5355L169.854 58.3536ZM97.5 58.5H169.5V57.5H97.5V58.5Z" fill="#A78BFA" />
	<path d="M240.146 201.354C240.342 201.549 240.658 201.549 240.854 201.354L244.036 198.172C244.231 197.976 244.231 197.66 244.036 197.464C243.84 197.269 243.524 197.269 243.328 197.464L240.5 200.293L237.672 197.464C237.476 197.269 237.16 197.269 236.964 197.464C236.769 197.66 236.769 197.976 236.964 198.172L240.146 201.354ZM240.854 79.6464C240.658 79.4512 240.342 79.4512 240.146 79.6464L236.964 82.8284C236.769 83.0237 236.769 83.3403 236.964 83.5355C237.16 83.7308 237.476 83.7308 237.672 83.5355L240.5 80.7071L243.328 83.5355C243.524 83.7308 243.84 83.7308 244.036 83.5355C244.231 83.3403 244.231 83.0237 244.036 82.8284L240.854 79.6464ZM241 201L241 80L240 80L240 201L241 201Z" fill="#A78BFA" />
	<path d="M21.1464 199.354C21.3417 199.549 21.6583 199.549 21.8536 199.354L25.0355 196.172C25.2308 195.976 25.2308 195.66 25.0355 195.464C24.8403 195.269 24.5237 195.269 24.3284 195.464L21.5 198.293L18.6716 195.464C18.4763 195.269 18.1597 195.269 17.9645 195.464C17.7692 195.66 17.7692 195.976 17.9645 196.172L21.1464 199.354ZM21.8536 132.646C21.6583 132.451 21.3417 132.451 21.1464 132.646L17.9645 135.828C17.7692 136.024 17.7692 136.34 17.9645 136.536C18.1597 136.731 18.4763 136.731 18.6716 136.536L21.5 133.707L24.3284 136.536C24.5237 136.731 24.8403 136.731 25.0355 136.536C25.2308 136.34 25.2308 136.024 25.0355 135.828L21.8536 132.646ZM22 199L22 133L21 133L21 199L22 199Z" fill="#A78BFA" />
	<path d="M250.892 144.136C250.347 144.136 249.865 143.999 249.447 143.723C249.03 143.445 248.703 143.053 248.467 142.547C248.232 142.038 248.114 141.438 248.114 140.744C248.114 140.057 248.232 139.46 248.467 138.955C248.703 138.449 249.031 138.058 249.452 137.783C249.872 137.507 250.358 137.369 250.909 137.369C251.335 137.369 251.672 137.44 251.919 137.582C252.169 137.722 252.359 137.881 252.49 138.06C252.624 138.236 252.727 138.381 252.801 138.494H252.886V135.273H253.892V144H252.92V142.994H252.801C252.727 143.114 252.622 143.264 252.486 143.446C252.349 143.625 252.155 143.786 251.902 143.928C251.649 144.067 251.313 144.136 250.892 144.136ZM251.028 143.233C251.432 143.233 251.773 143.128 252.051 142.918C252.33 142.705 252.541 142.411 252.686 142.036C252.831 141.658 252.903 141.222 252.903 140.727C252.903 140.239 252.832 139.811 252.69 139.445C252.548 139.075 252.338 138.788 252.06 138.584C251.781 138.376 251.438 138.273 251.028 138.273C250.602 138.273 250.247 138.382 249.963 138.601C249.682 138.817 249.47 139.111 249.328 139.483C249.189 139.852 249.119 140.267 249.119 140.727C249.119 141.193 249.19 141.616 249.332 141.997C249.477 142.375 249.69 142.676 249.972 142.901C250.256 143.122 250.608 143.233 251.028 143.233Z" fill="#7C3AED" />
	<path d="M132.426 40.2727V49H131.42V40.2727H132.426Z" fill="#7C3AED" />
	<path d="M31.3352 163.455V164.307H27.8068V163.455H31.3352ZM28.8636 170V162.551C28.8636 162.176 28.9517 161.864 29.1278 161.614C29.304 161.364 29.5327 161.176 29.8139 161.051C30.0952 160.926 30.392 160.864 30.7045 160.864C30.9517 160.864 31.1534 160.884 31.3097 160.923C31.4659 160.963 31.5824 161 31.6591 161.034L31.3693 161.903C31.3182 161.886 31.2472 161.865 31.1562 161.839C31.0682 161.814 30.9517 161.801 30.8068 161.801C30.4744 161.801 30.2344 161.885 30.0866 162.053C29.9418 162.22 29.8693 162.466 29.8693 162.79V170H28.8636Z" fill="#7C3AED" />
	<mask id="mask0_5873_67765" style="mask-type:alpha" maskUnits="userSpaceOnUse" x="37" y="76" width="194" height="127">
		<rect x="37.5" y="76" width="193" height="127" rx="63.5" fill="#F5F3FF" />
	</mask>
	<g mask="url(#mask0_5873_67765)">
		<rect x="37.5" y="130" width="193" height="71" fill="#F5F3FF" />
	</g>
	<rect x="38" y="76.5" width="192" height="126" rx="63" stroke="#A78BFA" />
	<path d="M100.5 77C97.0856 77 93.7047 78.6166 90.5502 81.7575C87.3958 84.8984 84.5295 89.5022 82.1152 95.3058C79.7009 101.109 77.7858 107.999 76.4791 115.582C75.1725 123.165 74.5 131.292 74.5 139.5C74.5 147.708 75.1725 155.835 76.4791 163.418C77.7858 171.001 79.7009 177.891 82.1152 183.694C84.5295 189.498 87.3958 194.102 90.5502 197.242C93.7047 200.383 97.0856 202 100.5 202" stroke="#A78BFA" />
	<path d="M172.5 77C169.086 77 165.705 78.6166 162.55 81.7575C159.396 84.8984 156.53 89.5022 154.115 95.3058C151.701 101.109 149.786 107.999 148.479 115.582C147.173 123.165 146.5 131.292 146.5 139.5C146.5 147.708 147.173 155.835 148.479 163.418C149.786 171.001 151.701 177.891 154.115 183.694C156.53 189.498 159.396 194.102 162.55 197.242C165.705 200.383 169.086 202 172.5 202" stroke="#A78BFA" />
</svg>