<svg width="272" height="240" viewBox="0 0 272 240" fill="none" class="tab" data-tab="7" xmlns="http://www.w3.org/2000/svg">
	<line x1="262.5" y1="188.167" x2="231.5" y2="188.167" stroke="#A78BFA" />
	<line x1="262.5" y1="82.167" x2="231.5" y2="82.167" stroke="#A78BFA" />
	<path d="M254.146 186.021C254.342 186.216 254.658 186.216 254.854 186.021L258.036 182.839C258.231 182.643 258.231 182.327 258.036 182.131C257.84 181.936 257.524 181.936 257.328 182.131L254.5 184.96L251.672 182.131C251.476 181.936 251.16 181.936 250.964 182.131C250.769 182.327 250.769 182.643 250.964 182.839L254.146 186.021ZM254.854 84.3134C254.658 84.1182 254.342 84.1182 254.146 84.3134L250.964 87.4954C250.769 87.6907 250.769 88.0073 250.964 88.2025C251.16 88.3978 251.476 88.3978 251.672 88.2025L254.5 85.3741L257.328 88.2025C257.524 88.3978 257.84 88.3978 258.036 88.2025C258.231 88.0073 258.231 87.6907 258.036 87.4954L254.854 84.3134ZM255 185.667L255 84.667L254 84.667L254 185.667L255 185.667Z" fill="#A78BFA" />
	<path d="M261.892 138.803C261.347 138.803 260.865 138.666 260.447 138.39C260.03 138.112 259.703 137.72 259.467 137.214C259.232 136.705 259.114 136.104 259.114 135.411C259.114 134.724 259.232 134.127 259.467 133.622C259.703 133.116 260.031 132.725 260.452 132.45C260.872 132.174 261.358 132.036 261.909 132.036C262.335 132.036 262.672 132.107 262.919 132.249C263.169 132.389 263.359 132.548 263.49 132.727C263.624 132.903 263.727 133.048 263.801 133.161H263.886V129.94H264.892V138.667H263.92V137.661H263.801C263.727 137.781 263.622 137.931 263.486 138.113C263.349 138.292 263.155 138.453 262.902 138.595C262.649 138.734 262.313 138.803 261.892 138.803ZM262.028 137.9C262.432 137.9 262.773 137.795 263.051 137.585C263.33 137.372 263.541 137.078 263.686 136.703C263.831 136.325 263.903 135.889 263.903 135.394C263.903 134.906 263.832 134.478 263.69 134.112C263.548 133.742 263.338 133.455 263.06 133.251C262.781 133.043 262.438 132.94 262.028 132.94C261.602 132.94 261.247 133.049 260.963 133.268C260.682 133.484 260.47 133.778 260.328 134.15C260.189 134.519 260.119 134.934 260.119 135.394C260.119 135.86 260.19 136.283 260.332 136.664C260.477 137.042 260.69 137.343 260.972 137.568C261.256 137.789 261.608 137.9 262.028 137.9Z" fill="#7C3AED" />
	<line x1="47.5" y1="188.167" x2="5.5" y2="188.167" stroke="#A78BFA" />
	<line x1="25.5" y1="135.167" x2="5.5" y2="135.167" stroke="#A78BFA" />
	<path d="M10.1464 186.021C10.3417 186.216 10.6583 186.216 10.8536 186.021L14.0355 182.839C14.2308 182.643 14.2308 182.327 14.0355 182.131C13.8403 181.936 13.5237 181.936 13.3284 182.131L10.5 184.96L7.67157 182.131C7.47631 181.936 7.15973 181.936 6.96447 182.131C6.7692 182.327 6.7692 182.643 6.96447 182.839L10.1464 186.021ZM10.8536 137.313C10.6583 137.118 10.3417 137.118 10.1464 137.313L6.96447 140.495C6.76921 140.691 6.76921 141.007 6.96447 141.203C7.15973 141.398 7.47631 141.398 7.67157 141.203L10.5 138.374L13.3284 141.203C13.5237 141.398 13.8403 141.398 14.0355 141.203C14.2308 141.007 14.2308 140.691 14.0355 140.495L10.8536 137.313ZM11 185.667L11 137.667L10 137.667L10 185.667L11 185.667Z" fill="#A78BFA" />
	<path d="M20.3352 159.122V159.974H16.8068V159.122H20.3352ZM17.8636 165.667V158.218C17.8636 157.843 17.9517 157.531 18.1278 157.281C18.304 157.031 18.5327 156.843 18.8139 156.718C19.0952 156.593 19.392 156.531 19.7045 156.531C19.9517 156.531 20.1534 156.551 20.3097 156.59C20.4659 156.63 20.5824 156.667 20.6591 156.701L20.3693 157.57C20.3182 157.553 20.2472 157.532 20.1562 157.506C20.0682 157.481 19.9517 157.468 19.8068 157.468C19.4744 157.468 19.2344 157.552 19.0866 157.72C18.9418 157.887 18.8693 158.133 18.8693 158.457V165.667H17.8636Z" fill="#7C3AED" />
	<line x1="53" y1="79.667" x2="53" y2="59.667" stroke="#A78BFA" />
	<line x1="221" y1="79.667" x2="221" y2="59.667" stroke="#A78BFA" />
	<path d="M55.1464 69.3134C54.9512 69.5087 54.9512 69.8253 55.1464 70.0205L58.3284 73.2025C58.5237 73.3978 58.8403 73.3978 59.0355 73.2025C59.2308 73.0073 59.2308 72.6907 59.0355 72.4954L56.2071 69.667L59.0355 66.8386C59.2308 66.6433 59.2308 66.3267 59.0355 66.1315C58.8403 65.9362 58.5237 65.9362 58.3284 66.1315L55.1464 69.3134ZM218.854 70.0206C219.049 69.8253 219.049 69.5087 218.854 69.3135L215.672 66.1315C215.476 65.9362 215.16 65.9362 214.964 66.1315C214.769 66.3267 214.769 66.6433 214.964 66.8386L217.793 69.667L214.964 72.4954C214.769 72.6907 214.769 73.0073 214.964 73.2025C215.16 73.3978 215.476 73.3978 215.672 73.2025L218.854 70.0206ZM55.5 70.167L218.5 70.167L218.5 69.167L55.5 69.167L55.5 70.167Z" fill="#A78BFA" />
	<path d="M135.426 54.9397V63.667H134.42V54.9397H135.426Z" fill="#7C3AED" />
	<mask id="mask0_5873_67946" style="mask-type:alpha" maskUnits="userSpaceOnUse" x="27" y="81" width="221" height="108">
		<path d="M55.8333 188.333H219.167C234.815 188.333 247.5 164.381 247.5 134.833C247.5 105.286 234.815 81.3335 219.167 81.3335H55.8333C40.1853 81.3335 27.5 105.286 27.5 134.833C27.5 164.381 40.1853 188.333 55.8333 188.333Z" fill="#D9D9D9" />
	</mask>
	<g mask="url(#mask0_5873_67946)">
		<rect x="27.5" y="134.833" width="220" height="53.5" fill="#F5F3FF" />
	</g>
	<mask id="path-15-inside-1_5873_67946" fill="white">
		<path fill-rule="evenodd" clip-rule="evenodd" d="M55.8333 81.3335H219.165C234.813 81.3335 247.499 105.286 247.499 134.833C247.499 164.381 234.813 188.333 219.165 188.333H55.8333C55.8329 188.333 55.8325 188.333 55.832 188.333C40.1846 188.332 27.5 164.38 27.5 134.833C27.5 105.287 40.1846 81.3348 55.832 81.3335C55.8325 81.3335 55.8329 81.3335 55.8333 81.3335Z" />
	</mask>
	<path d="M55.832 188.333L55.8319 189.333H55.832V188.333ZM55.832 81.3335V80.3335H55.8319L55.832 81.3335ZM219.165 80.3335H55.8333V82.3335H219.165V80.3335ZM248.499 134.833C248.499 119.93 245.302 106.388 240.084 96.5353C234.89 86.7273 227.542 80.3335 219.165 80.3335V82.3335C226.437 82.3335 233.256 87.916 238.316 97.4713C243.353 106.982 246.499 120.19 246.499 134.833H248.499ZM219.165 189.333C227.542 189.333 234.89 182.94 240.084 173.132C245.302 163.279 248.499 149.737 248.499 134.833H246.499C246.499 149.477 243.353 162.685 238.316 172.196C233.256 181.751 226.437 187.333 219.165 187.333V189.333ZM55.8333 189.333H219.165V187.333H55.8333V189.333ZM55.8333 187.333H55.8333C55.8333 187.333 55.8333 187.333 55.8333 187.333H55.8333H55.8333C55.8333 187.333 55.8333 187.333 55.8333 187.333H55.8333H55.8333C55.8333 187.333 55.8333 187.333 55.8333 187.333H55.8333H55.8333C55.8333 187.333 55.8333 187.333 55.8333 187.333H55.8333H55.8333C55.8333 187.333 55.8333 187.333 55.8333 187.333H55.8333H55.8333C55.8333 187.333 55.8333 187.333 55.8333 187.333H55.8333H55.8333C55.8333 187.333 55.8333 187.333 55.8333 187.333H55.8333H55.8333C55.8333 187.333 55.8333 187.333 55.8333 187.333H55.8333C55.8333 187.333 55.8333 187.333 55.8333 187.333C55.8333 187.333 55.8333 187.333 55.8333 187.333H55.8333C55.8333 187.333 55.8333 187.333 55.8333 187.333C55.8333 187.333 55.8333 187.333 55.8333 187.333H55.8333C55.8333 187.333 55.8333 187.333 55.8333 187.333C55.8333 187.333 55.8333 187.333 55.8333 187.333H55.8333C55.8332 187.333 55.8332 187.333 55.8332 187.333C55.8332 187.333 55.8332 187.333 55.8332 187.333H55.8332C55.8332 187.333 55.8332 187.333 55.8332 187.333C55.8332 187.333 55.8332 187.333 55.8332 187.333H55.8332C55.8332 187.333 55.8332 187.333 55.8332 187.333C55.8332 187.333 55.8332 187.333 55.8332 187.333H55.8332C55.8332 187.333 55.8332 187.333 55.8332 187.333C55.8332 187.333 55.8332 187.333 55.8332 187.333H55.8332C55.8332 187.333 55.8332 187.333 55.8332 187.333C55.8332 187.333 55.8332 187.333 55.8332 187.333H55.8332C55.8332 187.333 55.8332 187.333 55.8332 187.333C55.8332 187.333 55.8332 187.333 55.8332 187.333H55.8332C55.8332 187.333 55.8332 187.333 55.8332 187.333C55.8332 187.333 55.8332 187.333 55.8332 187.333H55.8332C55.8332 187.333 55.8332 187.333 55.8332 187.333C55.8332 187.333 55.8332 187.333 55.8332 187.333H55.8332C55.8332 187.333 55.8332 187.333 55.8332 187.333C55.8332 187.333 55.8332 187.333 55.8332 187.333H55.8332C55.8332 187.333 55.8332 187.333 55.8332 187.333C55.8332 187.333 55.8332 187.333 55.8332 187.333H55.8332C55.8332 187.333 55.8332 187.333 55.8332 187.333C55.8332 187.333 55.8332 187.333 55.8332 187.333H55.8332C55.8332 187.333 55.8332 187.333 55.8332 187.333C55.8332 187.333 55.8332 187.333 55.8332 187.333H55.8332C55.8332 187.333 55.8332 187.333 55.8332 187.333C55.8332 187.333 55.8332 187.333 55.8332 187.333H55.8332C55.8331 187.333 55.8331 187.333 55.8331 187.333C55.8331 187.333 55.8331 187.333 55.8331 187.333H55.8331C55.8331 187.333 55.8331 187.333 55.8331 187.333C55.8331 187.333 55.8331 187.333 55.8331 187.333H55.8331C55.8331 187.333 55.8331 187.333 55.8331 187.333C55.8331 187.333 55.8331 187.333 55.8331 187.333H55.8331C55.8331 187.333 55.8331 187.333 55.8331 187.333C55.8331 187.333 55.8331 187.333 55.8331 187.333H55.8331C55.8331 187.333 55.8331 187.333 55.8331 187.333C55.8331 187.333 55.8331 187.333 55.8331 187.333H55.8331C55.8331 187.333 55.8331 187.333 55.8331 187.333C55.8331 187.333 55.8331 187.333 55.8331 187.333H55.8331C55.8331 187.333 55.8331 187.333 55.8331 187.333C55.8331 187.333 55.8331 187.333 55.8331 187.333H55.8331C55.8331 187.333 55.8331 187.333 55.8331 187.333C55.8331 187.333 55.8331 187.333 55.8331 187.333H55.8331C55.8331 187.333 55.8331 187.333 55.8331 187.333C55.8331 187.333 55.8331 187.333 55.8331 187.333H55.8331C55.8331 187.333 55.8331 187.333 55.8331 187.333C55.8331 187.333 55.8331 187.333 55.8331 187.333H55.8331C55.8331 187.333 55.8331 187.333 55.8331 187.333C55.8331 187.333 55.8331 187.333 55.8331 187.333H55.8331C55.8331 187.333 55.8331 187.333 55.8331 187.333C55.8331 187.333 55.8331 187.333 55.8331 187.333H55.8331C55.8331 187.333 55.8331 187.333 55.8331 187.333C55.8331 187.333 55.8331 187.333 55.8331 187.333H55.8331C55.833 187.333 55.833 187.333 55.833 187.333C55.833 187.333 55.833 187.333 55.833 187.333H55.833C55.833 187.333 55.833 187.333 55.833 187.333C55.833 187.333 55.833 187.333 55.833 187.333H55.833C55.833 187.333 55.833 187.333 55.833 187.333C55.833 187.333 55.833 187.333 55.833 187.333H55.833C55.833 187.333 55.833 187.333 55.833 187.333C55.833 187.333 55.833 187.333 55.833 187.333H55.833C55.833 187.333 55.833 187.333 55.833 187.333C55.833 187.333 55.833 187.333 55.833 187.333H55.833C55.833 187.333 55.833 187.333 55.833 187.333C55.833 187.333 55.833 187.333 55.833 187.333H55.833C55.833 187.333 55.833 187.333 55.833 187.333C55.833 187.333 55.833 187.333 55.833 187.333H55.833C55.833 187.333 55.833 187.333 55.833 187.333C55.833 187.333 55.833 187.333 55.833 187.333H55.833C55.833 187.333 55.833 187.333 55.833 187.333C55.833 187.333 55.833 187.333 55.833 187.333H55.833C55.833 187.333 55.833 187.333 55.833 187.333C55.833 187.333 55.833 187.333 55.833 187.333H55.833C55.833 187.333 55.833 187.333 55.833 187.333C55.833 187.333 55.833 187.333 55.833 187.333H55.833C55.833 187.333 55.833 187.333 55.833 187.333C55.833 187.333 55.833 187.333 55.833 187.333H55.833C55.833 187.333 55.833 187.333 55.833 187.333C55.833 187.333 55.833 187.333 55.833 187.333H55.833C55.833 187.333 55.833 187.333 55.8329 187.333C55.8329 187.333 55.8329 187.333 55.8329 187.333H55.8329C55.8329 187.333 55.8329 187.333 55.8329 187.333C55.8329 187.333 55.8329 187.333 55.8329 187.333H55.8329C55.8329 187.333 55.8329 187.333 55.8329 187.333C55.8329 187.333 55.8329 187.333 55.8329 187.333H55.8329C55.8329 187.333 55.8329 187.333 55.8329 187.333C55.8329 187.333 55.8329 187.333 55.8329 187.333H55.8329C55.8329 187.333 55.8329 187.333 55.8329 187.333C55.8329 187.333 55.8329 187.333 55.8329 187.333H55.8329C55.8329 187.333 55.8329 187.333 55.8329 187.333C55.8329 187.333 55.8329 187.333 55.8329 187.333H55.8329C55.8329 187.333 55.8329 187.333 55.8329 187.333C55.8329 187.333 55.8329 187.333 55.8329 187.333H55.8329C55.8329 187.333 55.8329 187.333 55.8329 187.333C55.8329 187.333 55.8329 187.333 55.8329 187.333H55.8329C55.8329 187.333 55.8329 187.333 55.8329 187.333C55.8329 187.333 55.8329 187.333 55.8329 187.333H55.8329C55.8329 187.333 55.8329 187.333 55.8329 187.333C55.8329 187.333 55.8329 187.333 55.8329 187.333H55.8329C55.8329 187.333 55.8329 187.333 55.8329 187.333C55.8329 187.333 55.8329 187.333 55.8329 187.333H55.8329C55.8329 187.333 55.8329 187.333 55.8329 187.333C55.8329 187.333 55.8329 187.333 55.8329 187.333H55.8329C55.8329 187.333 55.8329 187.333 55.8329 187.333C55.8329 187.333 55.8329 187.333 55.8329 187.333H55.8329C55.8329 187.333 55.8329 187.333 55.8328 187.333C55.8328 187.333 55.8328 187.333 55.8328 187.333H55.8328C55.8328 187.333 55.8328 187.333 55.8328 187.333C55.8328 187.333 55.8328 187.333 55.8328 187.333H55.8328C55.8328 187.333 55.8328 187.333 55.8328 187.333C55.8328 187.333 55.8328 187.333 55.8328 187.333H55.8328C55.8328 187.333 55.8328 187.333 55.8328 187.333C55.8328 187.333 55.8328 187.333 55.8328 187.333H55.8328C55.8328 187.333 55.8328 187.333 55.8328 187.333C55.8328 187.333 55.8328 187.333 55.8328 187.333H55.8328C55.8328 187.333 55.8328 187.333 55.8328 187.333C55.8328 187.333 55.8328 187.333 55.8328 187.333H55.8328C55.8328 187.333 55.8328 187.333 55.8328 187.333C55.8328 187.333 55.8328 187.333 55.8328 187.333H55.8328C55.8328 187.333 55.8328 187.333 55.8328 187.333C55.8328 187.333 55.8328 187.333 55.8328 187.333H55.8328C55.8328 187.333 55.8328 187.333 55.8328 187.333C55.8328 187.333 55.8328 187.333 55.8328 187.333H55.8328C55.8328 187.333 55.8328 187.333 55.8328 187.333C55.8328 187.333 55.8328 187.333 55.8328 187.333H55.8328C55.8328 187.333 55.8328 187.333 55.8328 187.333C55.8328 187.333 55.8328 187.333 55.8328 187.333H55.8328C55.8328 187.333 55.8328 187.333 55.8328 187.333C55.8328 187.333 55.8328 187.333 55.8328 187.333H55.8328C55.8328 187.333 55.8328 187.333 55.8328 187.333C55.8328 187.333 55.8328 187.333 55.8328 187.333H55.8328C55.8328 187.333 55.8328 187.333 55.8328 187.333C55.8328 187.333 55.8328 187.333 55.8327 187.333H55.8327C55.8327 187.333 55.8327 187.333 55.8327 187.333C55.8327 187.333 55.8327 187.333 55.8327 187.333H55.8327C55.8327 187.333 55.8327 187.333 55.8327 187.333C55.8327 187.333 55.8327 187.333 55.8327 187.333H55.8327C55.8327 187.333 55.8327 187.333 55.8327 187.333C55.8327 187.333 55.8327 187.333 55.8327 187.333H55.8327C55.8327 187.333 55.8327 187.333 55.8327 187.333C55.8327 187.333 55.8327 187.333 55.8327 187.333H55.8327C55.8327 187.333 55.8327 187.333 55.8327 187.333C55.8327 187.333 55.8327 187.333 55.8327 187.333H55.8327C55.8327 187.333 55.8327 187.333 55.8327 187.333C55.8327 187.333 55.8327 187.333 55.8327 187.333H55.8327C55.8327 187.333 55.8327 187.333 55.8327 187.333C55.8327 187.333 55.8327 187.333 55.8327 187.333H55.8327C55.8327 187.333 55.8327 187.333 55.8327 187.333C55.8327 187.333 55.8327 187.333 55.8327 187.333H55.8327C55.8327 187.333 55.8327 187.333 55.8327 187.333C55.8327 187.333 55.8327 187.333 55.8327 187.333H55.8327C55.8327 187.333 55.8327 187.333 55.8327 187.333C55.8327 187.333 55.8327 187.333 55.8327 187.333H55.8327C55.8327 187.333 55.8327 187.333 55.8327 187.333C55.8327 187.333 55.8327 187.333 55.8327 187.333H55.8327C55.8327 187.333 55.8327 187.333 55.8327 187.333C55.8327 187.333 55.8327 187.333 55.8327 187.333H55.8327C55.8327 187.333 55.8327 187.333 55.8327 187.333C55.8327 187.333 55.8327 187.333 55.8326 187.333H55.8326C55.8326 187.333 55.8326 187.333 55.8326 187.333C55.8326 187.333 55.8326 187.333 55.8326 187.333H55.8326C55.8326 187.333 55.8326 187.333 55.8326 187.333C55.8326 187.333 55.8326 187.333 55.8326 187.333H55.8326C55.8326 187.333 55.8326 187.333 55.8326 187.333C55.8326 187.333 55.8326 187.333 55.8326 187.333H55.8326C55.8326 187.333 55.8326 187.333 55.8326 187.333C55.8326 187.333 55.8326 187.333 55.8326 187.333H55.8326C55.8326 187.333 55.8326 187.333 55.8326 187.333C55.8326 187.333 55.8326 187.333 55.8326 187.333H55.8326C55.8326 187.333 55.8326 187.333 55.8326 187.333C55.8326 187.333 55.8326 187.333 55.8326 187.333H55.8326C55.8326 187.333 55.8326 187.333 55.8326 187.333C55.8326 187.333 55.8326 187.333 55.8326 187.333H55.8326C55.8326 187.333 55.8326 187.333 55.8326 187.333C55.8326 187.333 55.8326 187.333 55.8326 187.333H55.8326C55.8326 187.333 55.8326 187.333 55.8326 187.333C55.8326 187.333 55.8326 187.333 55.8326 187.333H55.8326C55.8326 187.333 55.8326 187.333 55.8326 187.333C55.8326 187.333 55.8326 187.333 55.8326 187.333H55.8326C55.8326 187.333 55.8326 187.333 55.8326 187.333C55.8326 187.333 55.8326 187.333 55.8326 187.333H55.8326C55.8326 187.333 55.8326 187.333 55.8326 187.333C55.8326 187.333 55.8326 187.333 55.8326 187.333H55.8326C55.8326 187.333 55.8326 187.333 55.8326 187.333C55.8326 187.333 55.8326 187.333 55.8326 187.333H55.8325C55.8325 187.333 55.8325 187.333 55.8325 187.333C55.8325 187.333 55.8325 187.333 55.8325 187.333H55.8325C55.8325 187.333 55.8325 187.333 55.8325 187.333C55.8325 187.333 55.8325 187.333 55.8325 187.333H55.8325C55.8325 187.333 55.8325 187.333 55.8325 187.333C55.8325 187.333 55.8325 187.333 55.8325 187.333H55.8325C55.8325 187.333 55.8325 187.333 55.8325 187.333C55.8325 187.333 55.8325 187.333 55.8325 187.333H55.8325C55.8325 187.333 55.8325 187.333 55.8325 187.333C55.8325 187.333 55.8325 187.333 55.8325 187.333H55.8325C55.8325 187.333 55.8325 187.333 55.8325 187.333C55.8325 187.333 55.8325 187.333 55.8325 187.333H55.8325C55.8325 187.333 55.8325 187.333 55.8325 187.333C55.8325 187.333 55.8325 187.333 55.8325 187.333H55.8325C55.8325 187.333 55.8325 187.333 55.8325 187.333C55.8325 187.333 55.8325 187.333 55.8325 187.333H55.8325C55.8325 187.333 55.8325 187.333 55.8325 187.333C55.8325 187.333 55.8325 187.333 55.8325 187.333H55.8325C55.8325 187.333 55.8325 187.333 55.8325 187.333C55.8325 187.333 55.8325 187.333 55.8325 187.333H55.8325C55.8325 187.333 55.8325 187.333 55.8325 187.333C55.8325 187.333 55.8325 187.333 55.8325 187.333H55.8325C55.8325 187.333 55.8325 187.333 55.8325 187.333C55.8325 187.333 55.8325 187.333 55.8325 187.333H55.8325C55.8325 187.333 55.8325 187.333 55.8325 187.333C55.8325 187.333 55.8325 187.333 55.8325 187.333H55.8324C55.8324 187.333 55.8324 187.333 55.8324 187.333C55.8324 187.333 55.8324 187.333 55.8324 187.333H55.8324C55.8324 187.333 55.8324 187.333 55.8324 187.333C55.8324 187.333 55.8324 187.333 55.8324 187.333H55.8324C55.8324 187.333 55.8324 187.333 55.8324 187.333C55.8324 187.333 55.8324 187.333 55.8324 187.333H55.8324C55.8324 187.333 55.8324 187.333 55.8324 187.333C55.8324 187.333 55.8324 187.333 55.8324 187.333H55.8324C55.8324 187.333 55.8324 187.333 55.8324 187.333C55.8324 187.333 55.8324 187.333 55.8324 187.333H55.8324C55.8324 187.333 55.8324 187.333 55.8324 187.333C55.8324 187.333 55.8324 187.333 55.8324 187.333H55.8324C55.8324 187.333 55.8324 187.333 55.8324 187.333C55.8324 187.333 55.8324 187.333 55.8324 187.333H55.8324C55.8324 187.333 55.8324 187.333 55.8324 187.333C55.8324 187.333 55.8324 187.333 55.8324 187.333H55.8324C55.8324 187.333 55.8324 187.333 55.8324 187.333C55.8324 187.333 55.8324 187.333 55.8324 187.333H55.8324C55.8324 187.333 55.8324 187.333 55.8324 187.333C55.8324 187.333 55.8324 187.333 55.8324 187.333H55.8324C55.8324 187.333 55.8324 187.333 55.8324 187.333C55.8324 187.333 55.8324 187.333 55.8324 187.333H55.8324C55.8324 187.333 55.8324 187.333 55.8324 187.333C55.8324 187.333 55.8324 187.333 55.8324 187.333H55.8324C55.8324 187.333 55.8324 187.333 55.8324 187.333C55.8324 187.333 55.8324 187.333 55.8324 187.333H55.8323C55.8323 187.333 55.8323 187.333 55.8323 187.333C55.8323 187.333 55.8323 187.333 55.8323 187.333H55.8323C55.8323 187.333 55.8323 187.333 55.8323 187.333C55.8323 187.333 55.8323 187.333 55.8323 187.333H55.8323C55.8323 187.333 55.8323 187.333 55.8323 187.333C55.8323 187.333 55.8323 187.333 55.8323 187.333H55.8323C55.8323 187.333 55.8323 187.333 55.8323 187.333C55.8323 187.333 55.8323 187.333 55.8323 187.333H55.8323C55.8323 187.333 55.8323 187.333 55.8323 187.333C55.8323 187.333 55.8323 187.333 55.8323 187.333H55.8323C55.8323 187.333 55.8323 187.333 55.8323 187.333C55.8323 187.333 55.8323 187.333 55.8323 187.333H55.8323C55.8323 187.333 55.8323 187.333 55.8323 187.333C55.8323 187.333 55.8323 187.333 55.8323 187.333H55.8323C55.8323 187.333 55.8323 187.333 55.8323 187.333C55.8323 187.333 55.8323 187.333 55.8323 187.333H55.8323C55.8323 187.333 55.8323 187.333 55.8323 187.333C55.8323 187.333 55.8323 187.333 55.8323 187.333H55.8323C55.8323 187.333 55.8323 187.333 55.8323 187.333C55.8323 187.333 55.8323 187.333 55.8323 187.333H55.8323C55.8323 187.333 55.8323 187.333 55.8323 187.333C55.8323 187.333 55.8323 187.333 55.8323 187.333H55.8323C55.8323 187.333 55.8323 187.333 55.8323 187.333C55.8323 187.333 55.8323 187.333 55.8323 187.333H55.8323C55.8323 187.333 55.8323 187.333 55.8323 187.333C55.8323 187.333 55.8323 187.333 55.8323 187.333H55.8323C55.8322 187.333 55.8322 187.333 55.8322 187.333C55.8322 187.333 55.8322 187.333 55.8322 187.333H55.8322C55.8322 187.333 55.8322 187.333 55.8322 187.333C55.8322 187.333 55.8322 187.333 55.8322 187.333H55.8322C55.8322 187.333 55.8322 187.333 55.8322 187.333C55.8322 187.333 55.8322 187.333 55.8322 187.333H55.8322C55.8322 187.333 55.8322 187.333 55.8322 187.333C55.8322 187.333 55.8322 187.333 55.8322 187.333H55.8322C55.8322 187.333 55.8322 187.333 55.8322 187.333C55.8322 187.333 55.8322 187.333 55.8322 187.333H55.8322C55.8322 187.333 55.8322 187.333 55.8322 187.333C55.8322 187.333 55.8322 187.333 55.8322 187.333H55.8322C55.8322 187.333 55.8322 187.333 55.8322 187.333C55.8322 187.333 55.8322 187.333 55.8322 187.333H55.8322C55.8322 187.333 55.8322 187.333 55.8322 187.333C55.8322 187.333 55.8322 187.333 55.8322 187.333H55.8322C55.8322 187.333 55.8322 187.333 55.8322 187.333C55.8322 187.333 55.8322 187.333 55.8322 187.333H55.8322C55.8322 187.333 55.8322 187.333 55.8322 187.333C55.8322 187.333 55.8322 187.333 55.8322 187.333H55.8322C55.8322 187.333 55.8322 187.333 55.8322 187.333C55.8322 187.333 55.8322 187.333 55.8322 187.333H55.8322C55.8322 187.333 55.8322 187.333 55.8322 187.333C55.8322 187.333 55.8322 187.333 55.8322 187.333H55.8322C55.8322 187.333 55.8322 187.333 55.8322 187.333C55.8322 187.333 55.8322 187.333 55.8322 187.333H55.8322C55.8321 187.333 55.8321 187.333 55.8321 187.333C55.8321 187.333 55.8321 187.333 55.8321 187.333H55.8321C55.8321 187.333 55.8321 187.333 55.8321 187.333C55.8321 187.333 55.8321 187.333 55.8321 187.333H55.8321C55.8321 187.333 55.8321 187.333 55.8321 187.333C55.8321 187.333 55.8321 187.333 55.8321 187.333H55.8321C55.8321 187.333 55.8321 187.333 55.8321 187.333C55.8321 187.333 55.8321 187.333 55.8321 187.333H55.8321C55.8321 187.333 55.8321 187.333 55.8321 187.333C55.8321 187.333 55.8321 187.333 55.8321 187.333H55.8321C55.8321 187.333 55.8321 187.333 55.8321 187.333C55.8321 187.333 55.8321 187.333 55.8321 187.333H55.8321C55.8321 187.333 55.8321 187.333 55.8321 187.333C55.8321 187.333 55.8321 187.333 55.8321 187.333H55.8321C55.8321 187.333 55.8321 187.333 55.8321 187.333C55.8321 187.333 55.8321 187.333 55.8321 187.333H55.8321C55.8321 187.333 55.8321 187.333 55.8321 187.333H55.8321H55.8321C55.8321 187.333 55.8321 187.333 55.8321 187.333H55.8321H55.8321C55.8321 187.333 55.8321 187.333 55.8321 187.333H55.8321H55.8321C55.8321 187.333 55.8321 187.333 55.8321 187.333H55.8321H55.8321C55.8321 187.333 55.8321 187.333 55.8321 187.333H55.8321H55.8321C55.8321 187.333 55.8321 187.333 55.832 187.333H55.832H55.832C55.832 187.333 55.832 187.333 55.832 187.333H55.832H55.832C55.832 187.333 55.832 187.333 55.832 187.333H55.832V189.333H55.832C55.832 189.333 55.832 189.333 55.832 189.333H55.832H55.832C55.832 189.333 55.832 189.333 55.832 189.333H55.832H55.832C55.8321 189.333 55.8321 189.333 55.8321 189.333H55.8321H55.8321C55.8321 189.333 55.8321 189.333 55.8321 189.333H55.8321H55.8321C55.8321 189.333 55.8321 189.333 55.8321 189.333H55.8321H55.8321C55.8321 189.333 55.8321 189.333 55.8321 189.333H55.8321H55.8321C55.8321 189.333 55.8321 189.333 55.8321 189.333H55.8321H55.8321C55.8321 189.333 55.8321 189.333 55.8321 189.333H55.8321C55.8321 189.333 55.8321 189.333 55.8321 189.333C55.8321 189.333 55.8321 189.333 55.8321 189.333H55.8321C55.8321 189.333 55.8321 189.333 55.8321 189.333C55.8321 189.333 55.8321 189.333 55.8321 189.333H55.8321C55.8321 189.333 55.8321 189.333 55.8321 189.333C55.8321 189.333 55.8321 189.333 55.8321 189.333H55.8321C55.8321 189.333 55.8321 189.333 55.8321 189.333C55.8321 189.333 55.8321 189.333 55.8321 189.333H55.8321C55.8321 189.333 55.8321 189.333 55.8321 189.333C55.8321 189.333 55.8321 189.333 55.8321 189.333H55.8321C55.8321 189.333 55.8321 189.333 55.8321 189.333C55.8321 189.333 55.8321 189.333 55.8321 189.333H55.8321C55.8321 189.333 55.8321 189.333 55.8321 189.333C55.8321 189.333 55.8321 189.333 55.8321 189.333H55.8321C55.8321 189.333 55.8321 189.333 55.8321 189.333C55.8321 189.333 55.8321 189.333 55.8322 189.333H55.8322C55.8322 189.333 55.8322 189.333 55.8322 189.333C55.8322 189.333 55.8322 189.333 55.8322 189.333H55.8322C55.8322 189.333 55.8322 189.333 55.8322 189.333C55.8322 189.333 55.8322 189.333 55.8322 189.333H55.8322C55.8322 189.333 55.8322 189.333 55.8322 189.333C55.8322 189.333 55.8322 189.333 55.8322 189.333H55.8322C55.8322 189.333 55.8322 189.333 55.8322 189.333C55.8322 189.333 55.8322 189.333 55.8322 189.333H55.8322C55.8322 189.333 55.8322 189.333 55.8322 189.333C55.8322 189.333 55.8322 189.333 55.8322 189.333H55.8322C55.8322 189.333 55.8322 189.333 55.8322 189.333C55.8322 189.333 55.8322 189.333 55.8322 189.333H55.8322C55.8322 189.333 55.8322 189.333 55.8322 189.333C55.8322 189.333 55.8322 189.333 55.8322 189.333H55.8322C55.8322 189.333 55.8322 189.333 55.8322 189.333C55.8322 189.333 55.8322 189.333 55.8322 189.333H55.8322C55.8322 189.333 55.8322 189.333 55.8322 189.333C55.8322 189.333 55.8322 189.333 55.8322 189.333H55.8322C55.8322 189.333 55.8322 189.333 55.8322 189.333C55.8322 189.333 55.8322 189.333 55.8322 189.333H55.8322C55.8322 189.333 55.8322 189.333 55.8322 189.333C55.8322 189.333 55.8322 189.333 55.8322 189.333H55.8322C55.8322 189.333 55.8322 189.333 55.8322 189.333C55.8322 189.333 55.8322 189.333 55.8322 189.333H55.8322C55.8322 189.333 55.8322 189.333 55.8322 189.333C55.8322 189.333 55.8322 189.333 55.8323 189.333H55.8323C55.8323 189.333 55.8323 189.333 55.8323 189.333C55.8323 189.333 55.8323 189.333 55.8323 189.333H55.8323C55.8323 189.333 55.8323 189.333 55.8323 189.333C55.8323 189.333 55.8323 189.333 55.8323 189.333H55.8323C55.8323 189.333 55.8323 189.333 55.8323 189.333C55.8323 189.333 55.8323 189.333 55.8323 189.333H55.8323C55.8323 189.333 55.8323 189.333 55.8323 189.333C55.8323 189.333 55.8323 189.333 55.8323 189.333H55.8323C55.8323 189.333 55.8323 189.333 55.8323 189.333C55.8323 189.333 55.8323 189.333 55.8323 189.333H55.8323C55.8323 189.333 55.8323 189.333 55.8323 189.333C55.8323 189.333 55.8323 189.333 55.8323 189.333H55.8323C55.8323 189.333 55.8323 189.333 55.8323 189.333C55.8323 189.333 55.8323 189.333 55.8323 189.333H55.8323C55.8323 189.333 55.8323 189.333 55.8323 189.333C55.8323 189.333 55.8323 189.333 55.8323 189.333H55.8323C55.8323 189.333 55.8323 189.333 55.8323 189.333C55.8323 189.333 55.8323 189.333 55.8323 189.333H55.8323C55.8323 189.333 55.8323 189.333 55.8323 189.333C55.8323 189.333 55.8323 189.333 55.8323 189.333H55.8323C55.8323 189.333 55.8323 189.333 55.8323 189.333C55.8323 189.333 55.8323 189.333 55.8323 189.333H55.8323C55.8323 189.333 55.8323 189.333 55.8323 189.333C55.8323 189.333 55.8323 189.333 55.8323 189.333H55.8323C55.8323 189.333 55.8323 189.333 55.8323 189.333C55.8323 189.333 55.8323 189.333 55.8323 189.333H55.8324C55.8324 189.333 55.8324 189.333 55.8324 189.333C55.8324 189.333 55.8324 189.333 55.8324 189.333H55.8324C55.8324 189.333 55.8324 189.333 55.8324 189.333C55.8324 189.333 55.8324 189.333 55.8324 189.333H55.8324C55.8324 189.333 55.8324 189.333 55.8324 189.333C55.8324 189.333 55.8324 189.333 55.8324 189.333H55.8324C55.8324 189.333 55.8324 189.333 55.8324 189.333C55.8324 189.333 55.8324 189.333 55.8324 189.333H55.8324C55.8324 189.333 55.8324 189.333 55.8324 189.333C55.8324 189.333 55.8324 189.333 55.8324 189.333H55.8324C55.8324 189.333 55.8324 189.333 55.8324 189.333C55.8324 189.333 55.8324 189.333 55.8324 189.333H55.8324C55.8324 189.333 55.8324 189.333 55.8324 189.333C55.8324 189.333 55.8324 189.333 55.8324 189.333H55.8324C55.8324 189.333 55.8324 189.333 55.8324 189.333C55.8324 189.333 55.8324 189.333 55.8324 189.333H55.8324C55.8324 189.333 55.8324 189.333 55.8324 189.333C55.8324 189.333 55.8324 189.333 55.8324 189.333H55.8324C55.8324 189.333 55.8324 189.333 55.8324 189.333C55.8324 189.333 55.8324 189.333 55.8324 189.333H55.8324C55.8324 189.333 55.8324 189.333 55.8324 189.333C55.8324 189.333 55.8324 189.333 55.8324 189.333H55.8324C55.8324 189.333 55.8324 189.333 55.8324 189.333C55.8324 189.333 55.8324 189.333 55.8324 189.333H55.8324C55.8324 189.333 55.8324 189.333 55.8324 189.333C55.8324 189.333 55.8324 189.333 55.8324 189.333H55.8325C55.8325 189.333 55.8325 189.333 55.8325 189.333C55.8325 189.333 55.8325 189.333 55.8325 189.333H55.8325C55.8325 189.333 55.8325 189.333 55.8325 189.333C55.8325 189.333 55.8325 189.333 55.8325 189.333H55.8325C55.8325 189.333 55.8325 189.333 55.8325 189.333C55.8325 189.333 55.8325 189.333 55.8325 189.333H55.8325C55.8325 189.333 55.8325 189.333 55.8325 189.333C55.8325 189.333 55.8325 189.333 55.8325 189.333H55.8325C55.8325 189.333 55.8325 189.333 55.8325 189.333C55.8325 189.333 55.8325 189.333 55.8325 189.333H55.8325C55.8325 189.333 55.8325 189.333 55.8325 189.333C55.8325 189.333 55.8325 189.333 55.8325 189.333H55.8325C55.8325 189.333 55.8325 189.333 55.8325 189.333C55.8325 189.333 55.8325 189.333 55.8325 189.333H55.8325C55.8325 189.333 55.8325 189.333 55.8325 189.333C55.8325 189.333 55.8325 189.333 55.8325 189.333H55.8325C55.8325 189.333 55.8325 189.333 55.8325 189.333C55.8325 189.333 55.8325 189.333 55.8325 189.333H55.8325C55.8325 189.333 55.8325 189.333 55.8325 189.333C55.8325 189.333 55.8325 189.333 55.8325 189.333H55.8325C55.8325 189.333 55.8325 189.333 55.8325 189.333C55.8325 189.333 55.8325 189.333 55.8325 189.333H55.8325C55.8325 189.333 55.8325 189.333 55.8325 189.333C55.8325 189.333 55.8325 189.333 55.8325 189.333H55.8325C55.8325 189.333 55.8325 189.333 55.8325 189.333C55.8325 189.333 55.8325 189.333 55.8325 189.333H55.8326C55.8326 189.333 55.8326 189.333 55.8326 189.333C55.8326 189.333 55.8326 189.333 55.8326 189.333H55.8326C55.8326 189.333 55.8326 189.333 55.8326 189.333C55.8326 189.333 55.8326 189.333 55.8326 189.333H55.8326C55.8326 189.333 55.8326 189.333 55.8326 189.333C55.8326 189.333 55.8326 189.333 55.8326 189.333H55.8326C55.8326 189.333 55.8326 189.333 55.8326 189.333C55.8326 189.333 55.8326 189.333 55.8326 189.333H55.8326C55.8326 189.333 55.8326 189.333 55.8326 189.333C55.8326 189.333 55.8326 189.333 55.8326 189.333H55.8326C55.8326 189.333 55.8326 189.333 55.8326 189.333C55.8326 189.333 55.8326 189.333 55.8326 189.333H55.8326C55.8326 189.333 55.8326 189.333 55.8326 189.333C55.8326 189.333 55.8326 189.333 55.8326 189.333H55.8326C55.8326 189.333 55.8326 189.333 55.8326 189.333C55.8326 189.333 55.8326 189.333 55.8326 189.333H55.8326C55.8326 189.333 55.8326 189.333 55.8326 189.333C55.8326 189.333 55.8326 189.333 55.8326 189.333H55.8326C55.8326 189.333 55.8326 189.333 55.8326 189.333C55.8326 189.333 55.8326 189.333 55.8326 189.333H55.8326C55.8326 189.333 55.8326 189.333 55.8326 189.333C55.8326 189.333 55.8326 189.333 55.8326 189.333H55.8326C55.8326 189.333 55.8326 189.333 55.8326 189.333C55.8326 189.333 55.8326 189.333 55.8326 189.333H55.8326C55.8326 189.333 55.8326 189.333 55.8326 189.333C55.8326 189.333 55.8326 189.333 55.8326 189.333H55.8326C55.8327 189.333 55.8327 189.333 55.8327 189.333C55.8327 189.333 55.8327 189.333 55.8327 189.333H55.8327C55.8327 189.333 55.8327 189.333 55.8327 189.333C55.8327 189.333 55.8327 189.333 55.8327 189.333H55.8327C55.8327 189.333 55.8327 189.333 55.8327 189.333C55.8327 189.333 55.8327 189.333 55.8327 189.333H55.8327C55.8327 189.333 55.8327 189.333 55.8327 189.333C55.8327 189.333 55.8327 189.333 55.8327 189.333H55.8327C55.8327 189.333 55.8327 189.333 55.8327 189.333C55.8327 189.333 55.8327 189.333 55.8327 189.333H55.8327C55.8327 189.333 55.8327 189.333 55.8327 189.333C55.8327 189.333 55.8327 189.333 55.8327 189.333H55.8327C55.8327 189.333 55.8327 189.333 55.8327 189.333C55.8327 189.333 55.8327 189.333 55.8327 189.333H55.8327C55.8327 189.333 55.8327 189.333 55.8327 189.333C55.8327 189.333 55.8327 189.333 55.8327 189.333H55.8327C55.8327 189.333 55.8327 189.333 55.8327 189.333C55.8327 189.333 55.8327 189.333 55.8327 189.333H55.8327C55.8327 189.333 55.8327 189.333 55.8327 189.333C55.8327 189.333 55.8327 189.333 55.8327 189.333H55.8327C55.8327 189.333 55.8327 189.333 55.8327 189.333C55.8327 189.333 55.8327 189.333 55.8327 189.333H55.8327C55.8327 189.333 55.8327 189.333 55.8327 189.333C55.8327 189.333 55.8327 189.333 55.8327 189.333H55.8327C55.8327 189.333 55.8327 189.333 55.8327 189.333C55.8327 189.333 55.8327 189.333 55.8327 189.333H55.8327C55.8328 189.333 55.8328 189.333 55.8328 189.333C55.8328 189.333 55.8328 189.333 55.8328 189.333H55.8328C55.8328 189.333 55.8328 189.333 55.8328 189.333C55.8328 189.333 55.8328 189.333 55.8328 189.333H55.8328C55.8328 189.333 55.8328 189.333 55.8328 189.333C55.8328 189.333 55.8328 189.333 55.8328 189.333H55.8328C55.8328 189.333 55.8328 189.333 55.8328 189.333C55.8328 189.333 55.8328 189.333 55.8328 189.333H55.8328C55.8328 189.333 55.8328 189.333 55.8328 189.333C55.8328 189.333 55.8328 189.333 55.8328 189.333H55.8328C55.8328 189.333 55.8328 189.333 55.8328 189.333C55.8328 189.333 55.8328 189.333 55.8328 189.333H55.8328C55.8328 189.333 55.8328 189.333 55.8328 189.333C55.8328 189.333 55.8328 189.333 55.8328 189.333H55.8328C55.8328 189.333 55.8328 189.333 55.8328 189.333C55.8328 189.333 55.8328 189.333 55.8328 189.333H55.8328C55.8328 189.333 55.8328 189.333 55.8328 189.333C55.8328 189.333 55.8328 189.333 55.8328 189.333H55.8328C55.8328 189.333 55.8328 189.333 55.8328 189.333C55.8328 189.333 55.8328 189.333 55.8328 189.333H55.8328C55.8328 189.333 55.8328 189.333 55.8328 189.333C55.8328 189.333 55.8328 189.333 55.8328 189.333H55.8328C55.8328 189.333 55.8328 189.333 55.8328 189.333C55.8328 189.333 55.8328 189.333 55.8328 189.333H55.8328C55.8328 189.333 55.8328 189.333 55.8328 189.333C55.8328 189.333 55.8328 189.333 55.8328 189.333H55.8328C55.8328 189.333 55.8328 189.333 55.8328 189.333C55.8329 189.333 55.8329 189.333 55.8329 189.333H55.8329C55.8329 189.333 55.8329 189.333 55.8329 189.333C55.8329 189.333 55.8329 189.333 55.8329 189.333H55.8329C55.8329 189.333 55.8329 189.333 55.8329 189.333C55.8329 189.333 55.8329 189.333 55.8329 189.333H55.8329C55.8329 189.333 55.8329 189.333 55.8329 189.333C55.8329 189.333 55.8329 189.333 55.8329 189.333H55.8329C55.8329 189.333 55.8329 189.333 55.8329 189.333C55.8329 189.333 55.8329 189.333 55.8329 189.333H55.8329C55.8329 189.333 55.8329 189.333 55.8329 189.333C55.8329 189.333 55.8329 189.333 55.8329 189.333H55.8329C55.8329 189.333 55.8329 189.333 55.8329 189.333C55.8329 189.333 55.8329 189.333 55.8329 189.333H55.8329C55.8329 189.333 55.8329 189.333 55.8329 189.333C55.8329 189.333 55.8329 189.333 55.8329 189.333H55.8329C55.8329 189.333 55.8329 189.333 55.8329 189.333C55.8329 189.333 55.8329 189.333 55.8329 189.333H55.8329C55.8329 189.333 55.8329 189.333 55.8329 189.333C55.8329 189.333 55.8329 189.333 55.8329 189.333H55.8329C55.8329 189.333 55.8329 189.333 55.8329 189.333C55.8329 189.333 55.8329 189.333 55.8329 189.333H55.8329C55.8329 189.333 55.8329 189.333 55.8329 189.333C55.8329 189.333 55.8329 189.333 55.8329 189.333H55.8329C55.8329 189.333 55.8329 189.333 55.8329 189.333C55.8329 189.333 55.8329 189.333 55.8329 189.333H55.8329C55.8329 189.333 55.8329 189.333 55.8329 189.333C55.833 189.333 55.833 189.333 55.833 189.333H55.833C55.833 189.333 55.833 189.333 55.833 189.333C55.833 189.333 55.833 189.333 55.833 189.333H55.833C55.833 189.333 55.833 189.333 55.833 189.333C55.833 189.333 55.833 189.333 55.833 189.333H55.833C55.833 189.333 55.833 189.333 55.833 189.333C55.833 189.333 55.833 189.333 55.833 189.333H55.833C55.833 189.333 55.833 189.333 55.833 189.333C55.833 189.333 55.833 189.333 55.833 189.333H55.833C55.833 189.333 55.833 189.333 55.833 189.333C55.833 189.333 55.833 189.333 55.833 189.333H55.833C55.833 189.333 55.833 189.333 55.833 189.333C55.833 189.333 55.833 189.333 55.833 189.333H55.833C55.833 189.333 55.833 189.333 55.833 189.333C55.833 189.333 55.833 189.333 55.833 189.333H55.833C55.833 189.333 55.833 189.333 55.833 189.333C55.833 189.333 55.833 189.333 55.833 189.333H55.833C55.833 189.333 55.833 189.333 55.833 189.333C55.833 189.333 55.833 189.333 55.833 189.333H55.833C55.833 189.333 55.833 189.333 55.833 189.333C55.833 189.333 55.833 189.333 55.833 189.333H55.833C55.833 189.333 55.833 189.333 55.833 189.333C55.833 189.333 55.833 189.333 55.833 189.333H55.833C55.833 189.333 55.833 189.333 55.833 189.333C55.833 189.333 55.833 189.333 55.833 189.333H55.833C55.833 189.333 55.833 189.333 55.833 189.333C55.833 189.333 55.833 189.333 55.8331 189.333H55.8331C55.8331 189.333 55.8331 189.333 55.8331 189.333C55.8331 189.333 55.8331 189.333 55.8331 189.333H55.8331C55.8331 189.333 55.8331 189.333 55.8331 189.333C55.8331 189.333 55.8331 189.333 55.8331 189.333H55.8331C55.8331 189.333 55.8331 189.333 55.8331 189.333C55.8331 189.333 55.8331 189.333 55.8331 189.333H55.8331C55.8331 189.333 55.8331 189.333 55.8331 189.333C55.8331 189.333 55.8331 189.333 55.8331 189.333H55.8331C55.8331 189.333 55.8331 189.333 55.8331 189.333C55.8331 189.333 55.8331 189.333 55.8331 189.333H55.8331C55.8331 189.333 55.8331 189.333 55.8331 189.333C55.8331 189.333 55.8331 189.333 55.8331 189.333H55.8331C55.8331 189.333 55.8331 189.333 55.8331 189.333C55.8331 189.333 55.8331 189.333 55.8331 189.333H55.8331C55.8331 189.333 55.8331 189.333 55.8331 189.333C55.8331 189.333 55.8331 189.333 55.8331 189.333H55.8331C55.8331 189.333 55.8331 189.333 55.8331 189.333C55.8331 189.333 55.8331 189.333 55.8331 189.333H55.8331C55.8331 189.333 55.8331 189.333 55.8331 189.333C55.8331 189.333 55.8331 189.333 55.8331 189.333H55.8331C55.8331 189.333 55.8331 189.333 55.8331 189.333C55.8331 189.333 55.8331 189.333 55.8331 189.333H55.8331C55.8331 189.333 55.8331 189.333 55.8331 189.333C55.8331 189.333 55.8331 189.333 55.8331 189.333H55.8331C55.8331 189.333 55.8331 189.333 55.8331 189.333C55.8331 189.333 55.8331 189.333 55.8332 189.333H55.8332C55.8332 189.333 55.8332 189.333 55.8332 189.333C55.8332 189.333 55.8332 189.333 55.8332 189.333H55.8332C55.8332 189.333 55.8332 189.333 55.8332 189.333C55.8332 189.333 55.8332 189.333 55.8332 189.333H55.8332C55.8332 189.333 55.8332 189.333 55.8332 189.333C55.8332 189.333 55.8332 189.333 55.8332 189.333H55.8332C55.8332 189.333 55.8332 189.333 55.8332 189.333C55.8332 189.333 55.8332 189.333 55.8332 189.333H55.8332C55.8332 189.333 55.8332 189.333 55.8332 189.333C55.8332 189.333 55.8332 189.333 55.8332 189.333H55.8332C55.8332 189.333 55.8332 189.333 55.8332 189.333C55.8332 189.333 55.8332 189.333 55.8332 189.333H55.8332C55.8332 189.333 55.8332 189.333 55.8332 189.333C55.8332 189.333 55.8332 189.333 55.8332 189.333H55.8332C55.8332 189.333 55.8332 189.333 55.8332 189.333C55.8332 189.333 55.8332 189.333 55.8332 189.333H55.8332C55.8332 189.333 55.8332 189.333 55.8332 189.333C55.8332 189.333 55.8332 189.333 55.8332 189.333H55.8332C55.8332 189.333 55.8332 189.333 55.8332 189.333C55.8332 189.333 55.8332 189.333 55.8332 189.333H55.8332C55.8332 189.333 55.8332 189.333 55.8332 189.333C55.8332 189.333 55.8332 189.333 55.8332 189.333H55.8332C55.8332 189.333 55.8332 189.333 55.8332 189.333C55.8332 189.333 55.8332 189.333 55.8332 189.333H55.8332C55.8332 189.333 55.8332 189.333 55.8332 189.333C55.8332 189.333 55.8332 189.333 55.8333 189.333H55.8333C55.8333 189.333 55.8333 189.333 55.8333 189.333C55.8333 189.333 55.8333 189.333 55.8333 189.333H55.8333C55.8333 189.333 55.8333 189.333 55.8333 189.333C55.8333 189.333 55.8333 189.333 55.8333 189.333H55.8333C55.8333 189.333 55.8333 189.333 55.8333 189.333C55.8333 189.333 55.8333 189.333 55.8333 189.333H55.8333C55.8333 189.333 55.8333 189.333 55.8333 189.333H55.8333H55.8333C55.8333 189.333 55.8333 189.333 55.8333 189.333H55.8333H55.8333C55.8333 189.333 55.8333 189.333 55.8333 189.333H55.8333H55.8333C55.8333 189.333 55.8333 189.333 55.8333 189.333H55.8333H55.8333C55.8333 189.333 55.8333 189.333 55.8333 189.333H55.8333H55.8333C55.8333 189.333 55.8333 189.333 55.8333 189.333H55.8333H55.8333C55.8333 189.333 55.8333 189.333 55.8333 189.333H55.8333H55.8333C55.8333 189.333 55.8333 189.333 55.8333 189.333H55.8333V187.333ZM55.8321 187.333C48.5611 187.333 41.7421 181.75 36.6819 172.195C31.6454 162.684 28.5 149.477 28.5 134.833H26.5C26.5 149.737 29.6969 163.278 34.9145 173.131C40.1085 182.939 47.4555 189.333 55.8319 189.333L55.8321 187.333ZM28.5 134.833C28.5 120.19 31.6454 106.983 36.6819 97.4721C41.7421 87.9169 48.5611 82.3341 55.8321 82.3335L55.8319 80.3335C47.4555 80.3342 40.1085 86.7282 34.9145 96.5361C29.6969 106.389 26.5 119.93 26.5 134.833H28.5ZM55.832 82.3335H55.832C55.832 82.3335 55.832 82.3335 55.832 82.3335H55.832H55.832C55.832 82.3335 55.832 82.3335 55.832 82.3335H55.832H55.832C55.8321 82.3335 55.8321 82.3335 55.8321 82.3335H55.8321H55.8321C55.8321 82.3335 55.8321 82.3335 55.8321 82.3335H55.8321H55.8321C55.8321 82.3335 55.8321 82.3335 55.8321 82.3335H55.8321H55.8321C55.8321 82.3335 55.8321 82.3335 55.8321 82.3335H55.8321H55.8321C55.8321 82.3335 55.8321 82.3335 55.8321 82.3335H55.8321H55.8321C55.8321 82.3335 55.8321 82.3335 55.8321 82.3335H55.8321C55.8321 82.3335 55.8321 82.3335 55.8321 82.3335C55.8321 82.3335 55.8321 82.3335 55.8321 82.3335H55.8321C55.8321 82.3335 55.8321 82.3335 55.8321 82.3335C55.8321 82.3335 55.8321 82.3335 55.8321 82.3335H55.8321C55.8321 82.3335 55.8321 82.3335 55.8321 82.3335C55.8321 82.3335 55.8321 82.3335 55.8321 82.3335H55.8321C55.8321 82.3335 55.8321 82.3335 55.8321 82.3335C55.8321 82.3335 55.8321 82.3335 55.8321 82.3335H55.8321C55.8321 82.3335 55.8321 82.3335 55.8321 82.3335C55.8321 82.3335 55.8321 82.3335 55.8321 82.3335H55.8321C55.8321 82.3335 55.8321 82.3335 55.8321 82.3335C55.8321 82.3335 55.8321 82.3335 55.8321 82.3335H55.8321C55.8321 82.3335 55.8321 82.3335 55.8321 82.3335C55.8321 82.3335 55.8321 82.3335 55.8321 82.3335H55.8321C55.8321 82.3335 55.8321 82.3335 55.8321 82.3335C55.8321 82.3335 55.8321 82.3335 55.8322 82.3335H55.8322C55.8322 82.3335 55.8322 82.3335 55.8322 82.3335C55.8322 82.3335 55.8322 82.3335 55.8322 82.3335H55.8322C55.8322 82.3335 55.8322 82.3335 55.8322 82.3335C55.8322 82.3335 55.8322 82.3335 55.8322 82.3335H55.8322C55.8322 82.3335 55.8322 82.3335 55.8322 82.3335C55.8322 82.3335 55.8322 82.3335 55.8322 82.3335H55.8322C55.8322 82.3335 55.8322 82.3335 55.8322 82.3335C55.8322 82.3335 55.8322 82.3335 55.8322 82.3335H55.8322C55.8322 82.3335 55.8322 82.3335 55.8322 82.3335C55.8322 82.3335 55.8322 82.3335 55.8322 82.3335H55.8322C55.8322 82.3335 55.8322 82.3335 55.8322 82.3335C55.8322 82.3335 55.8322 82.3335 55.8322 82.3335H55.8322C55.8322 82.3335 55.8322 82.3335 55.8322 82.3335C55.8322 82.3335 55.8322 82.3335 55.8322 82.3335H55.8322C55.8322 82.3335 55.8322 82.3335 55.8322 82.3335C55.8322 82.3335 55.8322 82.3335 55.8322 82.3335H55.8322C55.8322 82.3335 55.8322 82.3335 55.8322 82.3335C55.8322 82.3335 55.8322 82.3335 55.8322 82.3335H55.8322C55.8322 82.3335 55.8322 82.3335 55.8322 82.3335C55.8322 82.3335 55.8322 82.3335 55.8322 82.3335H55.8322C55.8322 82.3335 55.8322 82.3335 55.8322 82.3335C55.8322 82.3335 55.8322 82.3335 55.8322 82.3335H55.8322C55.8322 82.3335 55.8322 82.3335 55.8322 82.3335C55.8322 82.3335 55.8322 82.3335 55.8322 82.3335H55.8322C55.8322 82.3335 55.8322 82.3335 55.8322 82.3335C55.8322 82.3335 55.8322 82.3335 55.8323 82.3335H55.8323C55.8323 82.3335 55.8323 82.3335 55.8323 82.3335C55.8323 82.3335 55.8323 82.3335 55.8323 82.3335H55.8323C55.8323 82.3335 55.8323 82.3335 55.8323 82.3335C55.8323 82.3335 55.8323 82.3335 55.8323 82.3335H55.8323C55.8323 82.3335 55.8323 82.3335 55.8323 82.3335C55.8323 82.3335 55.8323 82.3335 55.8323 82.3335H55.8323C55.8323 82.3335 55.8323 82.3335 55.8323 82.3335C55.8323 82.3335 55.8323 82.3335 55.8323 82.3335H55.8323C55.8323 82.3335 55.8323 82.3335 55.8323 82.3335C55.8323 82.3335 55.8323 82.3335 55.8323 82.3335H55.8323C55.8323 82.3335 55.8323 82.3335 55.8323 82.3335C55.8323 82.3335 55.8323 82.3335 55.8323 82.3335H55.8323C55.8323 82.3335 55.8323 82.3335 55.8323 82.3335C55.8323 82.3335 55.8323 82.3335 55.8323 82.3335H55.8323C55.8323 82.3335 55.8323 82.3335 55.8323 82.3335C55.8323 82.3335 55.8323 82.3335 55.8323 82.3335H55.8323C55.8323 82.3335 55.8323 82.3335 55.8323 82.3335C55.8323 82.3335 55.8323 82.3335 55.8323 82.3335H55.8323C55.8323 82.3335 55.8323 82.3335 55.8323 82.3335C55.8323 82.3335 55.8323 82.3335 55.8323 82.3335H55.8323C55.8323 82.3335 55.8323 82.3335 55.8323 82.3335C55.8323 82.3335 55.8323 82.3335 55.8323 82.3335H55.8323C55.8323 82.3335 55.8323 82.3335 55.8323 82.3335C55.8323 82.3335 55.8323 82.3335 55.8323 82.3335H55.8323C55.8323 82.3335 55.8323 82.3335 55.8323 82.3335C55.8323 82.3335 55.8323 82.3335 55.8323 82.3335H55.8324C55.8324 82.3335 55.8324 82.3335 55.8324 82.3335C55.8324 82.3335 55.8324 82.3335 55.8324 82.3335H55.8324C55.8324 82.3335 55.8324 82.3335 55.8324 82.3335C55.8324 82.3335 55.8324 82.3335 55.8324 82.3335H55.8324C55.8324 82.3335 55.8324 82.3335 55.8324 82.3335C55.8324 82.3335 55.8324 82.3335 55.8324 82.3335H55.8324C55.8324 82.3335 55.8324 82.3335 55.8324 82.3335C55.8324 82.3335 55.8324 82.3335 55.8324 82.3335H55.8324C55.8324 82.3335 55.8324 82.3335 55.8324 82.3335C55.8324 82.3335 55.8324 82.3335 55.8324 82.3335H55.8324C55.8324 82.3335 55.8324 82.3335 55.8324 82.3335C55.8324 82.3335 55.8324 82.3335 55.8324 82.3335H55.8324C55.8324 82.3335 55.8324 82.3335 55.8324 82.3335C55.8324 82.3335 55.8324 82.3335 55.8324 82.3335H55.8324C55.8324 82.3335 55.8324 82.3335 55.8324 82.3335C55.8324 82.3335 55.8324 82.3335 55.8324 82.3335H55.8324C55.8324 82.3335 55.8324 82.3335 55.8324 82.3335C55.8324 82.3335 55.8324 82.3335 55.8324 82.3335H55.8324C55.8324 82.3335 55.8324 82.3335 55.8324 82.3335C55.8324 82.3335 55.8324 82.3335 55.8324 82.3335H55.8324C55.8324 82.3335 55.8324 82.3335 55.8324 82.3335C55.8324 82.3335 55.8324 82.3335 55.8324 82.3335H55.8324C55.8324 82.3335 55.8324 82.3335 55.8324 82.3335C55.8324 82.3335 55.8324 82.3335 55.8324 82.3335H55.8324C55.8324 82.3335 55.8324 82.3335 55.8324 82.3335C55.8324 82.3335 55.8324 82.3335 55.8324 82.3335H55.8325C55.8325 82.3335 55.8325 82.3335 55.8325 82.3335C55.8325 82.3335 55.8325 82.3335 55.8325 82.3335H55.8325C55.8325 82.3335 55.8325 82.3335 55.8325 82.3335C55.8325 82.3335 55.8325 82.3335 55.8325 82.3335H55.8325C55.8325 82.3335 55.8325 82.3335 55.8325 82.3335C55.8325 82.3335 55.8325 82.3335 55.8325 82.3335H55.8325C55.8325 82.3335 55.8325 82.3335 55.8325 82.3335C55.8325 82.3335 55.8325 82.3335 55.8325 82.3335H55.8325C55.8325 82.3335 55.8325 82.3335 55.8325 82.3335C55.8325 82.3335 55.8325 82.3335 55.8325 82.3335H55.8325C55.8325 82.3335 55.8325 82.3335 55.8325 82.3335C55.8325 82.3335 55.8325 82.3335 55.8325 82.3335H55.8325C55.8325 82.3335 55.8325 82.3335 55.8325 82.3335C55.8325 82.3335 55.8325 82.3335 55.8325 82.3335H55.8325C55.8325 82.3335 55.8325 82.3335 55.8325 82.3335C55.8325 82.3335 55.8325 82.3335 55.8325 82.3335H55.8325C55.8325 82.3335 55.8325 82.3335 55.8325 82.3335C55.8325 82.3335 55.8325 82.3335 55.8325 82.3335H55.8325C55.8325 82.3335 55.8325 82.3335 55.8325 82.3335C55.8325 82.3335 55.8325 82.3335 55.8325 82.3335H55.8325C55.8325 82.3335 55.8325 82.3335 55.8325 82.3335C55.8325 82.3335 55.8325 82.3335 55.8325 82.3335H55.8325C55.8325 82.3335 55.8325 82.3335 55.8325 82.3335C55.8325 82.3335 55.8325 82.3335 55.8325 82.3335H55.8325C55.8325 82.3335 55.8325 82.3335 55.8325 82.3335C55.8325 82.3335 55.8325 82.3335 55.8325 82.3335H55.8326C55.8326 82.3335 55.8326 82.3335 55.8326 82.3335C55.8326 82.3335 55.8326 82.3335 55.8326 82.3335H55.8326C55.8326 82.3335 55.8326 82.3335 55.8326 82.3335C55.8326 82.3335 55.8326 82.3335 55.8326 82.3335H55.8326C55.8326 82.3335 55.8326 82.3335 55.8326 82.3335C55.8326 82.3335 55.8326 82.3335 55.8326 82.3335H55.8326C55.8326 82.3335 55.8326 82.3335 55.8326 82.3335C55.8326 82.3335 55.8326 82.3335 55.8326 82.3335H55.8326C55.8326 82.3335 55.8326 82.3335 55.8326 82.3335C55.8326 82.3335 55.8326 82.3335 55.8326 82.3335H55.8326C55.8326 82.3335 55.8326 82.3335 55.8326 82.3335C55.8326 82.3335 55.8326 82.3335 55.8326 82.3335H55.8326C55.8326 82.3335 55.8326 82.3335 55.8326 82.3335C55.8326 82.3335 55.8326 82.3335 55.8326 82.3335H55.8326C55.8326 82.3335 55.8326 82.3335 55.8326 82.3335C55.8326 82.3335 55.8326 82.3335 55.8326 82.3335H55.8326C55.8326 82.3335 55.8326 82.3335 55.8326 82.3335C55.8326 82.3335 55.8326 82.3335 55.8326 82.3335H55.8326C55.8326 82.3335 55.8326 82.3335 55.8326 82.3335C55.8326 82.3335 55.8326 82.3335 55.8326 82.3335H55.8326C55.8326 82.3335 55.8326 82.3335 55.8326 82.3335C55.8326 82.3335 55.8326 82.3335 55.8326 82.3335H55.8326C55.8326 82.3335 55.8326 82.3335 55.8326 82.3335C55.8326 82.3335 55.8326 82.3335 55.8326 82.3335H55.8326C55.8326 82.3335 55.8326 82.3335 55.8326 82.3335C55.8326 82.3335 55.8326 82.3335 55.8326 82.3335H55.8326C55.8327 82.3335 55.8327 82.3335 55.8327 82.3335C55.8327 82.3335 55.8327 82.3335 55.8327 82.3335H55.8327C55.8327 82.3335 55.8327 82.3335 55.8327 82.3335C55.8327 82.3335 55.8327 82.3335 55.8327 82.3335H55.8327C55.8327 82.3335 55.8327 82.3335 55.8327 82.3335C55.8327 82.3335 55.8327 82.3335 55.8327 82.3335H55.8327C55.8327 82.3335 55.8327 82.3335 55.8327 82.3335C55.8327 82.3335 55.8327 82.3335 55.8327 82.3335H55.8327C55.8327 82.3335 55.8327 82.3335 55.8327 82.3335C55.8327 82.3335 55.8327 82.3335 55.8327 82.3335H55.8327C55.8327 82.3335 55.8327 82.3335 55.8327 82.3335C55.8327 82.3335 55.8327 82.3335 55.8327 82.3335H55.8327C55.8327 82.3335 55.8327 82.3335 55.8327 82.3335C55.8327 82.3335 55.8327 82.3335 55.8327 82.3335H55.8327C55.8327 82.3335 55.8327 82.3335 55.8327 82.3335C55.8327 82.3335 55.8327 82.3335 55.8327 82.3335H55.8327C55.8327 82.3335 55.8327 82.3335 55.8327 82.3335C55.8327 82.3335 55.8327 82.3335 55.8327 82.3335H55.8327C55.8327 82.3335 55.8327 82.3335 55.8327 82.3335C55.8327 82.3335 55.8327 82.3335 55.8327 82.3335H55.8327C55.8327 82.3335 55.8327 82.3335 55.8327 82.3335C55.8327 82.3335 55.8327 82.3335 55.8327 82.3335H55.8327C55.8327 82.3335 55.8327 82.3335 55.8327 82.3335C55.8327 82.3335 55.8327 82.3335 55.8327 82.3335H55.8327C55.8327 82.3335 55.8327 82.3335 55.8327 82.3335C55.8327 82.3335 55.8327 82.3335 55.8327 82.3335H55.8327C55.8328 82.3335 55.8328 82.3335 55.8328 82.3335C55.8328 82.3335 55.8328 82.3335 55.8328 82.3335H55.8328C55.8328 82.3335 55.8328 82.3335 55.8328 82.3335C55.8328 82.3335 55.8328 82.3335 55.8328 82.3335H55.8328C55.8328 82.3335 55.8328 82.3335 55.8328 82.3335C55.8328 82.3335 55.8328 82.3335 55.8328 82.3335H55.8328C55.8328 82.3335 55.8328 82.3335 55.8328 82.3335C55.8328 82.3335 55.8328 82.3335 55.8328 82.3335H55.8328C55.8328 82.3335 55.8328 82.3335 55.8328 82.3335C55.8328 82.3335 55.8328 82.3335 55.8328 82.3335H55.8328C55.8328 82.3335 55.8328 82.3335 55.8328 82.3335C55.8328 82.3335 55.8328 82.3335 55.8328 82.3335H55.8328C55.8328 82.3335 55.8328 82.3335 55.8328 82.3335C55.8328 82.3335 55.8328 82.3335 55.8328 82.3335H55.8328C55.8328 82.3335 55.8328 82.3335 55.8328 82.3335C55.8328 82.3335 55.8328 82.3335 55.8328 82.3335H55.8328C55.8328 82.3335 55.8328 82.3335 55.8328 82.3335C55.8328 82.3335 55.8328 82.3335 55.8328 82.3335H55.8328C55.8328 82.3335 55.8328 82.3335 55.8328 82.3335C55.8328 82.3335 55.8328 82.3335 55.8328 82.3335H55.8328C55.8328 82.3335 55.8328 82.3335 55.8328 82.3335C55.8328 82.3335 55.8328 82.3335 55.8328 82.3335H55.8328C55.8328 82.3335 55.8328 82.3335 55.8328 82.3335C55.8328 82.3335 55.8328 82.3335 55.8328 82.3335H55.8328C55.8328 82.3335 55.8328 82.3335 55.8328 82.3335C55.8328 82.3335 55.8328 82.3335 55.8328 82.3335H55.8328C55.8328 82.3335 55.8328 82.3335 55.8328 82.3335C55.8329 82.3335 55.8329 82.3335 55.8329 82.3335H55.8329C55.8329 82.3335 55.8329 82.3335 55.8329 82.3335C55.8329 82.3335 55.8329 82.3335 55.8329 82.3335H55.8329C55.8329 82.3335 55.8329 82.3335 55.8329 82.3335C55.8329 82.3335 55.8329 82.3335 55.8329 82.3335H55.8329C55.8329 82.3335 55.8329 82.3335 55.8329 82.3335C55.8329 82.3335 55.8329 82.3335 55.8329 82.3335H55.8329C55.8329 82.3335 55.8329 82.3335 55.8329 82.3335C55.8329 82.3335 55.8329 82.3335 55.8329 82.3335H55.8329C55.8329 82.3335 55.8329 82.3335 55.8329 82.3335C55.8329 82.3335 55.8329 82.3335 55.8329 82.3335H55.8329C55.8329 82.3335 55.8329 82.3335 55.8329 82.3335C55.8329 82.3335 55.8329 82.3335 55.8329 82.3335H55.8329C55.8329 82.3335 55.8329 82.3335 55.8329 82.3335C55.8329 82.3335 55.8329 82.3335 55.8329 82.3335H55.8329C55.8329 82.3335 55.8329 82.3335 55.8329 82.3335C55.8329 82.3335 55.8329 82.3335 55.8329 82.3335H55.8329C55.8329 82.3335 55.8329 82.3335 55.8329 82.3335C55.8329 82.3335 55.8329 82.3335 55.8329 82.3335H55.8329C55.8329 82.3335 55.8329 82.3335 55.8329 82.3335C55.8329 82.3335 55.8329 82.3335 55.8329 82.3335H55.8329C55.8329 82.3335 55.8329 82.3335 55.8329 82.3335C55.8329 82.3335 55.8329 82.3335 55.8329 82.3335H55.8329C55.8329 82.3335 55.8329 82.3335 55.8329 82.3335C55.8329 82.3335 55.8329 82.3335 55.8329 82.3335H55.8329C55.8329 82.3335 55.8329 82.3335 55.8329 82.3335C55.833 82.3335 55.833 82.3335 55.833 82.3335H55.833C55.833 82.3335 55.833 82.3335 55.833 82.3335C55.833 82.3335 55.833 82.3335 55.833 82.3335H55.833C55.833 82.3335 55.833 82.3335 55.833 82.3335C55.833 82.3335 55.833 82.3335 55.833 82.3335H55.833C55.833 82.3335 55.833 82.3335 55.833 82.3335C55.833 82.3335 55.833 82.3335 55.833 82.3335H55.833C55.833 82.3335 55.833 82.3335 55.833 82.3335C55.833 82.3335 55.833 82.3335 55.833 82.3335H55.833C55.833 82.3335 55.833 82.3335 55.833 82.3335C55.833 82.3335 55.833 82.3335 55.833 82.3335H55.833C55.833 82.3335 55.833 82.3335 55.833 82.3335C55.833 82.3335 55.833 82.3335 55.833 82.3335H55.833C55.833 82.3335 55.833 82.3335 55.833 82.3335C55.833 82.3335 55.833 82.3335 55.833 82.3335H55.833C55.833 82.3335 55.833 82.3335 55.833 82.3335C55.833 82.3335 55.833 82.3335 55.833 82.3335H55.833C55.833 82.3335 55.833 82.3335 55.833 82.3335C55.833 82.3335 55.833 82.3335 55.833 82.3335H55.833C55.833 82.3335 55.833 82.3335 55.833 82.3335C55.833 82.3335 55.833 82.3335 55.833 82.3335H55.833C55.833 82.3335 55.833 82.3335 55.833 82.3335C55.833 82.3335 55.833 82.3335 55.833 82.3335H55.833C55.833 82.3335 55.833 82.3335 55.833 82.3335C55.833 82.3335 55.833 82.3335 55.833 82.3335H55.833C55.833 82.3335 55.833 82.3335 55.833 82.3335C55.833 82.3335 55.833 82.3335 55.8331 82.3335H55.8331C55.8331 82.3335 55.8331 82.3335 55.8331 82.3335C55.8331 82.3335 55.8331 82.3335 55.8331 82.3335H55.8331C55.8331 82.3335 55.8331 82.3335 55.8331 82.3335C55.8331 82.3335 55.8331 82.3335 55.8331 82.3335H55.8331C55.8331 82.3335 55.8331 82.3335 55.8331 82.3335C55.8331 82.3335 55.8331 82.3335 55.8331 82.3335H55.8331C55.8331 82.3335 55.8331 82.3335 55.8331 82.3335C55.8331 82.3335 55.8331 82.3335 55.8331 82.3335H55.8331C55.8331 82.3335 55.8331 82.3335 55.8331 82.3335C55.8331 82.3335 55.8331 82.3335 55.8331 82.3335H55.8331C55.8331 82.3335 55.8331 82.3335 55.8331 82.3335C55.8331 82.3335 55.8331 82.3335 55.8331 82.3335H55.8331C55.8331 82.3335 55.8331 82.3335 55.8331 82.3335C55.8331 82.3335 55.8331 82.3335 55.8331 82.3335H55.8331C55.8331 82.3335 55.8331 82.3335 55.8331 82.3335C55.8331 82.3335 55.8331 82.3335 55.8331 82.3335H55.8331C55.8331 82.3335 55.8331 82.3335 55.8331 82.3335C55.8331 82.3335 55.8331 82.3335 55.8331 82.3335H55.8331C55.8331 82.3335 55.8331 82.3335 55.8331 82.3335C55.8331 82.3335 55.8331 82.3335 55.8331 82.3335H55.8331C55.8331 82.3335 55.8331 82.3335 55.8331 82.3335C55.8331 82.3335 55.8331 82.3335 55.8331 82.3335H55.8331C55.8331 82.3335 55.8331 82.3335 55.8331 82.3335C55.8331 82.3335 55.8331 82.3335 55.8331 82.3335H55.8331C55.8331 82.3335 55.8331 82.3335 55.8331 82.3335C55.8331 82.3335 55.8331 82.3335 55.8332 82.3335H55.8332C55.8332 82.3335 55.8332 82.3335 55.8332 82.3335C55.8332 82.3335 55.8332 82.3335 55.8332 82.3335H55.8332C55.8332 82.3335 55.8332 82.3335 55.8332 82.3335C55.8332 82.3335 55.8332 82.3335 55.8332 82.3335H55.8332C55.8332 82.3335 55.8332 82.3335 55.8332 82.3335C55.8332 82.3335 55.8332 82.3335 55.8332 82.3335H55.8332C55.8332 82.3335 55.8332 82.3335 55.8332 82.3335C55.8332 82.3335 55.8332 82.3335 55.8332 82.3335H55.8332C55.8332 82.3335 55.8332 82.3335 55.8332 82.3335C55.8332 82.3335 55.8332 82.3335 55.8332 82.3335H55.8332C55.8332 82.3335 55.8332 82.3335 55.8332 82.3335C55.8332 82.3335 55.8332 82.3335 55.8332 82.3335H55.8332C55.8332 82.3335 55.8332 82.3335 55.8332 82.3335C55.8332 82.3335 55.8332 82.3335 55.8332 82.3335H55.8332C55.8332 82.3335 55.8332 82.3335 55.8332 82.3335C55.8332 82.3335 55.8332 82.3335 55.8332 82.3335H55.8332C55.8332 82.3335 55.8332 82.3335 55.8332 82.3335C55.8332 82.3335 55.8332 82.3335 55.8332 82.3335H55.8332C55.8332 82.3335 55.8332 82.3335 55.8332 82.3335C55.8332 82.3335 55.8332 82.3335 55.8332 82.3335H55.8332C55.8332 82.3335 55.8332 82.3335 55.8332 82.3335C55.8332 82.3335 55.8332 82.3335 55.8332 82.3335H55.8332C55.8332 82.3335 55.8332 82.3335 55.8332 82.3335C55.8332 82.3335 55.8332 82.3335 55.8332 82.3335H55.8332C55.8332 82.3335 55.8332 82.3335 55.8332 82.3335C55.8332 82.3335 55.8332 82.3335 55.8333 82.3335H55.8333C55.8333 82.3335 55.8333 82.3335 55.8333 82.3335C55.8333 82.3335 55.8333 82.3335 55.8333 82.3335H55.8333C55.8333 82.3335 55.8333 82.3335 55.8333 82.3335C55.8333 82.3335 55.8333 82.3335 55.8333 82.3335H55.8333C55.8333 82.3335 55.8333 82.3335 55.8333 82.3335C55.8333 82.3335 55.8333 82.3335 55.8333 82.3335H55.8333C55.8333 82.3335 55.8333 82.3335 55.8333 82.3335H55.8333H55.8333C55.8333 82.3335 55.8333 82.3335 55.8333 82.3335H55.8333H55.8333C55.8333 82.3335 55.8333 82.3335 55.8333 82.3335H55.8333H55.8333C55.8333 82.3335 55.8333 82.3335 55.8333 82.3335H55.8333H55.8333C55.8333 82.3335 55.8333 82.3335 55.8333 82.3335H55.8333H55.8333C55.8333 82.3335 55.8333 82.3335 55.8333 82.3335H55.8333H55.8333C55.8333 82.3335 55.8333 82.3335 55.8333 82.3335H55.8333H55.8333C55.8333 82.3335 55.8333 82.3335 55.8333 82.3335H55.8333V80.3335H55.8333C55.8333 80.3335 55.8333 80.3335 55.8333 80.3335H55.8333H55.8333C55.8333 80.3335 55.8333 80.3335 55.8333 80.3335H55.8333H55.8333C55.8333 80.3335 55.8333 80.3335 55.8333 80.3335H55.8333H55.8333C55.8333 80.3335 55.8333 80.3335 55.8333 80.3335H55.8333H55.8333C55.8333 80.3335 55.8333 80.3335 55.8333 80.3335H55.8333H55.8333C55.8333 80.3335 55.8333 80.3335 55.8333 80.3335H55.8333H55.8333C55.8333 80.3335 55.8333 80.3335 55.8333 80.3335H55.8333H55.8333C55.8333 80.3335 55.8333 80.3335 55.8333 80.3335H55.8333C55.8333 80.3335 55.8333 80.3335 55.8333 80.3335C55.8333 80.3335 55.8333 80.3335 55.8333 80.3335H55.8333C55.8333 80.3335 55.8333 80.3335 55.8333 80.3335C55.8333 80.3335 55.8333 80.3335 55.8333 80.3335H55.8333C55.8333 80.3335 55.8333 80.3335 55.8333 80.3335C55.8333 80.3335 55.8333 80.3335 55.8333 80.3335H55.8333C55.8332 80.3335 55.8332 80.3335 55.8332 80.3335C55.8332 80.3335 55.8332 80.3335 55.8332 80.3335H55.8332C55.8332 80.3335 55.8332 80.3335 55.8332 80.3335C55.8332 80.3335 55.8332 80.3335 55.8332 80.3335H55.8332C55.8332 80.3335 55.8332 80.3335 55.8332 80.3335C55.8332 80.3335 55.8332 80.3335 55.8332 80.3335H55.8332C55.8332 80.3335 55.8332 80.3335 55.8332 80.3335C55.8332 80.3335 55.8332 80.3335 55.8332 80.3335H55.8332C55.8332 80.3335 55.8332 80.3335 55.8332 80.3335C55.8332 80.3335 55.8332 80.3335 55.8332 80.3335H55.8332C55.8332 80.3335 55.8332 80.3335 55.8332 80.3335C55.8332 80.3335 55.8332 80.3335 55.8332 80.3335H55.8332C55.8332 80.3335 55.8332 80.3335 55.8332 80.3335C55.8332 80.3335 55.8332 80.3335 55.8332 80.3335H55.8332C55.8332 80.3335 55.8332 80.3335 55.8332 80.3335C55.8332 80.3335 55.8332 80.3335 55.8332 80.3335H55.8332C55.8332 80.3335 55.8332 80.3335 55.8332 80.3335C55.8332 80.3335 55.8332 80.3335 55.8332 80.3335H55.8332C55.8332 80.3335 55.8332 80.3335 55.8332 80.3335C55.8332 80.3335 55.8332 80.3335 55.8332 80.3335H55.8332C55.8332 80.3335 55.8332 80.3335 55.8332 80.3335C55.8332 80.3335 55.8332 80.3335 55.8332 80.3335H55.8332C55.8332 80.3335 55.8332 80.3335 55.8332 80.3335C55.8332 80.3335 55.8332 80.3335 55.8332 80.3335H55.8332C55.8332 80.3335 55.8332 80.3335 55.8332 80.3335C55.8332 80.3335 55.8332 80.3335 55.8332 80.3335H55.8332C55.8331 80.3335 55.8331 80.3335 55.8331 80.3335C55.8331 80.3335 55.8331 80.3335 55.8331 80.3335H55.8331C55.8331 80.3335 55.8331 80.3335 55.8331 80.3335C55.8331 80.3335 55.8331 80.3335 55.8331 80.3335H55.8331C55.8331 80.3335 55.8331 80.3335 55.8331 80.3335C55.8331 80.3335 55.8331 80.3335 55.8331 80.3335H55.8331C55.8331 80.3335 55.8331 80.3335 55.8331 80.3335C55.8331 80.3335 55.8331 80.3335 55.8331 80.3335H55.8331C55.8331 80.3335 55.8331 80.3335 55.8331 80.3335C55.8331 80.3335 55.8331 80.3335 55.8331 80.3335H55.8331C55.8331 80.3335 55.8331 80.3335 55.8331 80.3335C55.8331 80.3335 55.8331 80.3335 55.8331 80.3335H55.8331C55.8331 80.3335 55.8331 80.3335 55.8331 80.3335C55.8331 80.3335 55.8331 80.3335 55.8331 80.3335H55.8331C55.8331 80.3335 55.8331 80.3335 55.8331 80.3335C55.8331 80.3335 55.8331 80.3335 55.8331 80.3335H55.8331C55.8331 80.3335 55.8331 80.3335 55.8331 80.3335C55.8331 80.3335 55.8331 80.3335 55.8331 80.3335H55.8331C55.8331 80.3335 55.8331 80.3335 55.8331 80.3335C55.8331 80.3335 55.8331 80.3335 55.8331 80.3335H55.8331C55.8331 80.3335 55.8331 80.3335 55.8331 80.3335C55.8331 80.3335 55.8331 80.3335 55.8331 80.3335H55.8331C55.8331 80.3335 55.8331 80.3335 55.8331 80.3335C55.8331 80.3335 55.8331 80.3335 55.8331 80.3335H55.8331C55.8331 80.3335 55.8331 80.3335 55.8331 80.3335C55.8331 80.3335 55.8331 80.3335 55.8331 80.3335H55.8331C55.833 80.3335 55.833 80.3335 55.833 80.3335C55.833 80.3335 55.833 80.3335 55.833 80.3335H55.833C55.833 80.3335 55.833 80.3335 55.833 80.3335C55.833 80.3335 55.833 80.3335 55.833 80.3335H55.833C55.833 80.3335 55.833 80.3335 55.833 80.3335C55.833 80.3335 55.833 80.3335 55.833 80.3335H55.833C55.833 80.3335 55.833 80.3335 55.833 80.3335C55.833 80.3335 55.833 80.3335 55.833 80.3335H55.833C55.833 80.3335 55.833 80.3335 55.833 80.3335C55.833 80.3335 55.833 80.3335 55.833 80.3335H55.833C55.833 80.3335 55.833 80.3335 55.833 80.3335C55.833 80.3335 55.833 80.3335 55.833 80.3335H55.833C55.833 80.3335 55.833 80.3335 55.833 80.3335C55.833 80.3335 55.833 80.3335 55.833 80.3335H55.833C55.833 80.3335 55.833 80.3335 55.833 80.3335C55.833 80.3335 55.833 80.3335 55.833 80.3335H55.833C55.833 80.3335 55.833 80.3335 55.833 80.3335C55.833 80.3335 55.833 80.3335 55.833 80.3335H55.833C55.833 80.3335 55.833 80.3335 55.833 80.3335C55.833 80.3335 55.833 80.3335 55.833 80.3335H55.833C55.833 80.3335 55.833 80.3335 55.833 80.3335C55.833 80.3335 55.833 80.3335 55.833 80.3335H55.833C55.833 80.3335 55.833 80.3335 55.833 80.3335C55.833 80.3335 55.833 80.3335 55.833 80.3335H55.833C55.833 80.3335 55.833 80.3335 55.833 80.3335C55.833 80.3335 55.833 80.3335 55.833 80.3335H55.833C55.833 80.3335 55.833 80.3335 55.8329 80.3335C55.8329 80.3335 55.8329 80.3335 55.8329 80.3335H55.8329C55.8329 80.3335 55.8329 80.3335 55.8329 80.3335C55.8329 80.3335 55.8329 80.3335 55.8329 80.3335H55.8329C55.8329 80.3335 55.8329 80.3335 55.8329 80.3335C55.8329 80.3335 55.8329 80.3335 55.8329 80.3335H55.8329C55.8329 80.3335 55.8329 80.3335 55.8329 80.3335C55.8329 80.3335 55.8329 80.3335 55.8329 80.3335H55.8329C55.8329 80.3335 55.8329 80.3335 55.8329 80.3335C55.8329 80.3335 55.8329 80.3335 55.8329 80.3335H55.8329C55.8329 80.3335 55.8329 80.3335 55.8329 80.3335C55.8329 80.3335 55.8329 80.3335 55.8329 80.3335H55.8329C55.8329 80.3335 55.8329 80.3335 55.8329 80.3335C55.8329 80.3335 55.8329 80.3335 55.8329 80.3335H55.8329C55.8329 80.3335 55.8329 80.3335 55.8329 80.3335C55.8329 80.3335 55.8329 80.3335 55.8329 80.3335H55.8329C55.8329 80.3335 55.8329 80.3335 55.8329 80.3335C55.8329 80.3335 55.8329 80.3335 55.8329 80.3335H55.8329C55.8329 80.3335 55.8329 80.3335 55.8329 80.3335C55.8329 80.3335 55.8329 80.3335 55.8329 80.3335H55.8329C55.8329 80.3335 55.8329 80.3335 55.8329 80.3335C55.8329 80.3335 55.8329 80.3335 55.8329 80.3335H55.8329C55.8329 80.3335 55.8329 80.3335 55.8329 80.3335C55.8329 80.3335 55.8329 80.3335 55.8329 80.3335H55.8329C55.8329 80.3335 55.8329 80.3335 55.8329 80.3335C55.8329 80.3335 55.8329 80.3335 55.8329 80.3335H55.8329C55.8329 80.3335 55.8329 80.3335 55.8328 80.3335C55.8328 80.3335 55.8328 80.3335 55.8328 80.3335H55.8328C55.8328 80.3335 55.8328 80.3335 55.8328 80.3335C55.8328 80.3335 55.8328 80.3335 55.8328 80.3335H55.8328C55.8328 80.3335 55.8328 80.3335 55.8328 80.3335C55.8328 80.3335 55.8328 80.3335 55.8328 80.3335H55.8328C55.8328 80.3335 55.8328 80.3335 55.8328 80.3335C55.8328 80.3335 55.8328 80.3335 55.8328 80.3335H55.8328C55.8328 80.3335 55.8328 80.3335 55.8328 80.3335C55.8328 80.3335 55.8328 80.3335 55.8328 80.3335H55.8328C55.8328 80.3335 55.8328 80.3335 55.8328 80.3335C55.8328 80.3335 55.8328 80.3335 55.8328 80.3335H55.8328C55.8328 80.3335 55.8328 80.3335 55.8328 80.3335C55.8328 80.3335 55.8328 80.3335 55.8328 80.3335H55.8328C55.8328 80.3335 55.8328 80.3335 55.8328 80.3335C55.8328 80.3335 55.8328 80.3335 55.8328 80.3335H55.8328C55.8328 80.3335 55.8328 80.3335 55.8328 80.3335C55.8328 80.3335 55.8328 80.3335 55.8328 80.3335H55.8328C55.8328 80.3335 55.8328 80.3335 55.8328 80.3335C55.8328 80.3335 55.8328 80.3335 55.8328 80.3335H55.8328C55.8328 80.3335 55.8328 80.3335 55.8328 80.3335C55.8328 80.3335 55.8328 80.3335 55.8328 80.3335H55.8328C55.8328 80.3335 55.8328 80.3335 55.8328 80.3335C55.8328 80.3335 55.8328 80.3335 55.8328 80.3335H55.8328C55.8328 80.3335 55.8328 80.3335 55.8328 80.3335C55.8328 80.3335 55.8328 80.3335 55.8328 80.3335H55.8328C55.8328 80.3335 55.8328 80.3335 55.8328 80.3335C55.8328 80.3335 55.8328 80.3335 55.8327 80.3335H55.8327C55.8327 80.3335 55.8327 80.3335 55.8327 80.3335C55.8327 80.3335 55.8327 80.3335 55.8327 80.3335H55.8327C55.8327 80.3335 55.8327 80.3335 55.8327 80.3335C55.8327 80.3335 55.8327 80.3335 55.8327 80.3335H55.8327C55.8327 80.3335 55.8327 80.3335 55.8327 80.3335C55.8327 80.3335 55.8327 80.3335 55.8327 80.3335H55.8327C55.8327 80.3335 55.8327 80.3335 55.8327 80.3335C55.8327 80.3335 55.8327 80.3335 55.8327 80.3335H55.8327C55.8327 80.3335 55.8327 80.3335 55.8327 80.3335C55.8327 80.3335 55.8327 80.3335 55.8327 80.3335H55.8327C55.8327 80.3335 55.8327 80.3335 55.8327 80.3335C55.8327 80.3335 55.8327 80.3335 55.8327 80.3335H55.8327C55.8327 80.3335 55.8327 80.3335 55.8327 80.3335C55.8327 80.3335 55.8327 80.3335 55.8327 80.3335H55.8327C55.8327 80.3335 55.8327 80.3335 55.8327 80.3335C55.8327 80.3335 55.8327 80.3335 55.8327 80.3335H55.8327C55.8327 80.3335 55.8327 80.3335 55.8327 80.3335C55.8327 80.3335 55.8327 80.3335 55.8327 80.3335H55.8327C55.8327 80.3335 55.8327 80.3335 55.8327 80.3335C55.8327 80.3335 55.8327 80.3335 55.8327 80.3335H55.8327C55.8327 80.3335 55.8327 80.3335 55.8327 80.3335C55.8327 80.3335 55.8327 80.3335 55.8327 80.3335H55.8327C55.8327 80.3335 55.8327 80.3335 55.8327 80.3335C55.8327 80.3335 55.8327 80.3335 55.8327 80.3335H55.8327C55.8327 80.3335 55.8327 80.3335 55.8327 80.3335C55.8327 80.3335 55.8327 80.3335 55.8326 80.3335H55.8326C55.8326 80.3335 55.8326 80.3335 55.8326 80.3335C55.8326 80.3335 55.8326 80.3335 55.8326 80.3335H55.8326C55.8326 80.3335 55.8326 80.3335 55.8326 80.3335C55.8326 80.3335 55.8326 80.3335 55.8326 80.3335H55.8326C55.8326 80.3335 55.8326 80.3335 55.8326 80.3335C55.8326 80.3335 55.8326 80.3335 55.8326 80.3335H55.8326C55.8326 80.3335 55.8326 80.3335 55.8326 80.3335C55.8326 80.3335 55.8326 80.3335 55.8326 80.3335H55.8326C55.8326 80.3335 55.8326 80.3335 55.8326 80.3335C55.8326 80.3335 55.8326 80.3335 55.8326 80.3335H55.8326C55.8326 80.3335 55.8326 80.3335 55.8326 80.3335C55.8326 80.3335 55.8326 80.3335 55.8326 80.3335H55.8326C55.8326 80.3335 55.8326 80.3335 55.8326 80.3335C55.8326 80.3335 55.8326 80.3335 55.8326 80.3335H55.8326C55.8326 80.3335 55.8326 80.3335 55.8326 80.3335C55.8326 80.3335 55.8326 80.3335 55.8326 80.3335H55.8326C55.8326 80.3335 55.8326 80.3335 55.8326 80.3335C55.8326 80.3335 55.8326 80.3335 55.8326 80.3335H55.8326C55.8326 80.3335 55.8326 80.3335 55.8326 80.3335C55.8326 80.3335 55.8326 80.3335 55.8326 80.3335H55.8326C55.8326 80.3335 55.8326 80.3335 55.8326 80.3335C55.8326 80.3335 55.8326 80.3335 55.8326 80.3335H55.8326C55.8326 80.3335 55.8326 80.3335 55.8326 80.3335C55.8326 80.3335 55.8326 80.3335 55.8326 80.3335H55.8326C55.8326 80.3335 55.8326 80.3335 55.8326 80.3335C55.8326 80.3335 55.8326 80.3335 55.8326 80.3335H55.8325C55.8325 80.3335 55.8325 80.3335 55.8325 80.3335C55.8325 80.3335 55.8325 80.3335 55.8325 80.3335H55.8325C55.8325 80.3335 55.8325 80.3335 55.8325 80.3335C55.8325 80.3335 55.8325 80.3335 55.8325 80.3335H55.8325C55.8325 80.3335 55.8325 80.3335 55.8325 80.3335C55.8325 80.3335 55.8325 80.3335 55.8325 80.3335H55.8325C55.8325 80.3335 55.8325 80.3335 55.8325 80.3335C55.8325 80.3335 55.8325 80.3335 55.8325 80.3335H55.8325C55.8325 80.3335 55.8325 80.3335 55.8325 80.3335C55.8325 80.3335 55.8325 80.3335 55.8325 80.3335H55.8325C55.8325 80.3335 55.8325 80.3335 55.8325 80.3335C55.8325 80.3335 55.8325 80.3335 55.8325 80.3335H55.8325C55.8325 80.3335 55.8325 80.3335 55.8325 80.3335C55.8325 80.3335 55.8325 80.3335 55.8325 80.3335H55.8325C55.8325 80.3335 55.8325 80.3335 55.8325 80.3335C55.8325 80.3335 55.8325 80.3335 55.8325 80.3335H55.8325C55.8325 80.3335 55.8325 80.3335 55.8325 80.3335C55.8325 80.3335 55.8325 80.3335 55.8325 80.3335H55.8325C55.8325 80.3335 55.8325 80.3335 55.8325 80.3335C55.8325 80.3335 55.8325 80.3335 55.8325 80.3335H55.8325C55.8325 80.3335 55.8325 80.3335 55.8325 80.3335C55.8325 80.3335 55.8325 80.3335 55.8325 80.3335H55.8325C55.8325 80.3335 55.8325 80.3335 55.8325 80.3335C55.8325 80.3335 55.8325 80.3335 55.8325 80.3335H55.8325C55.8325 80.3335 55.8325 80.3335 55.8325 80.3335C55.8325 80.3335 55.8325 80.3335 55.8325 80.3335H55.8324C55.8324 80.3335 55.8324 80.3335 55.8324 80.3335C55.8324 80.3335 55.8324 80.3335 55.8324 80.3335H55.8324C55.8324 80.3335 55.8324 80.3335 55.8324 80.3335C55.8324 80.3335 55.8324 80.3335 55.8324 80.3335H55.8324C55.8324 80.3335 55.8324 80.3335 55.8324 80.3335C55.8324 80.3335 55.8324 80.3335 55.8324 80.3335H55.8324C55.8324 80.3335 55.8324 80.3335 55.8324 80.3335C55.8324 80.3335 55.8324 80.3335 55.8324 80.3335H55.8324C55.8324 80.3335 55.8324 80.3335 55.8324 80.3335C55.8324 80.3335 55.8324 80.3335 55.8324 80.3335H55.8324C55.8324 80.3335 55.8324 80.3335 55.8324 80.3335C55.8324 80.3335 55.8324 80.3335 55.8324 80.3335H55.8324C55.8324 80.3335 55.8324 80.3335 55.8324 80.3335C55.8324 80.3335 55.8324 80.3335 55.8324 80.3335H55.8324C55.8324 80.3335 55.8324 80.3335 55.8324 80.3335C55.8324 80.3335 55.8324 80.3335 55.8324 80.3335H55.8324C55.8324 80.3335 55.8324 80.3335 55.8324 80.3335C55.8324 80.3335 55.8324 80.3335 55.8324 80.3335H55.8324C55.8324 80.3335 55.8324 80.3335 55.8324 80.3335C55.8324 80.3335 55.8324 80.3335 55.8324 80.3335H55.8324C55.8324 80.3335 55.8324 80.3335 55.8324 80.3335C55.8324 80.3335 55.8324 80.3335 55.8324 80.3335H55.8324C55.8324 80.3335 55.8324 80.3335 55.8324 80.3335C55.8324 80.3335 55.8324 80.3335 55.8324 80.3335H55.8324C55.8324 80.3335 55.8324 80.3335 55.8324 80.3335C55.8324 80.3335 55.8324 80.3335 55.8324 80.3335H55.8323C55.8323 80.3335 55.8323 80.3335 55.8323 80.3335C55.8323 80.3335 55.8323 80.3335 55.8323 80.3335H55.8323C55.8323 80.3335 55.8323 80.3335 55.8323 80.3335C55.8323 80.3335 55.8323 80.3335 55.8323 80.3335H55.8323C55.8323 80.3335 55.8323 80.3335 55.8323 80.3335C55.8323 80.3335 55.8323 80.3335 55.8323 80.3335H55.8323C55.8323 80.3335 55.8323 80.3335 55.8323 80.3335C55.8323 80.3335 55.8323 80.3335 55.8323 80.3335H55.8323C55.8323 80.3335 55.8323 80.3335 55.8323 80.3335C55.8323 80.3335 55.8323 80.3335 55.8323 80.3335H55.8323C55.8323 80.3335 55.8323 80.3335 55.8323 80.3335C55.8323 80.3335 55.8323 80.3335 55.8323 80.3335H55.8323C55.8323 80.3335 55.8323 80.3335 55.8323 80.3335C55.8323 80.3335 55.8323 80.3335 55.8323 80.3335H55.8323C55.8323 80.3335 55.8323 80.3335 55.8323 80.3335C55.8323 80.3335 55.8323 80.3335 55.8323 80.3335H55.8323C55.8323 80.3335 55.8323 80.3335 55.8323 80.3335C55.8323 80.3335 55.8323 80.3335 55.8323 80.3335H55.8323C55.8323 80.3335 55.8323 80.3335 55.8323 80.3335C55.8323 80.3335 55.8323 80.3335 55.8323 80.3335H55.8323C55.8323 80.3335 55.8323 80.3335 55.8323 80.3335C55.8323 80.3335 55.8323 80.3335 55.8323 80.3335H55.8323C55.8323 80.3335 55.8323 80.3335 55.8323 80.3335C55.8323 80.3335 55.8323 80.3335 55.8323 80.3335H55.8323C55.8323 80.3335 55.8323 80.3335 55.8323 80.3335C55.8323 80.3335 55.8323 80.3335 55.8323 80.3335H55.8323C55.8322 80.3335 55.8322 80.3335 55.8322 80.3335C55.8322 80.3335 55.8322 80.3335 55.8322 80.3335H55.8322C55.8322 80.3335 55.8322 80.3335 55.8322 80.3335C55.8322 80.3335 55.8322 80.3335 55.8322 80.3335H55.8322C55.8322 80.3335 55.8322 80.3335 55.8322 80.3335C55.8322 80.3335 55.8322 80.3335 55.8322 80.3335H55.8322C55.8322 80.3335 55.8322 80.3335 55.8322 80.3335C55.8322 80.3335 55.8322 80.3335 55.8322 80.3335H55.8322C55.8322 80.3335 55.8322 80.3335 55.8322 80.3335C55.8322 80.3335 55.8322 80.3335 55.8322 80.3335H55.8322C55.8322 80.3335 55.8322 80.3335 55.8322 80.3335C55.8322 80.3335 55.8322 80.3335 55.8322 80.3335H55.8322C55.8322 80.3335 55.8322 80.3335 55.8322 80.3335C55.8322 80.3335 55.8322 80.3335 55.8322 80.3335H55.8322C55.8322 80.3335 55.8322 80.3335 55.8322 80.3335C55.8322 80.3335 55.8322 80.3335 55.8322 80.3335H55.8322C55.8322 80.3335 55.8322 80.3335 55.8322 80.3335C55.8322 80.3335 55.8322 80.3335 55.8322 80.3335H55.8322C55.8322 80.3335 55.8322 80.3335 55.8322 80.3335C55.8322 80.3335 55.8322 80.3335 55.8322 80.3335H55.8322C55.8322 80.3335 55.8322 80.3335 55.8322 80.3335C55.8322 80.3335 55.8322 80.3335 55.8322 80.3335H55.8322C55.8322 80.3335 55.8322 80.3335 55.8322 80.3335C55.8322 80.3335 55.8322 80.3335 55.8322 80.3335H55.8322C55.8322 80.3335 55.8322 80.3335 55.8322 80.3335C55.8322 80.3335 55.8322 80.3335 55.8322 80.3335H55.8322C55.8321 80.3335 55.8321 80.3335 55.8321 80.3335C55.8321 80.3335 55.8321 80.3335 55.8321 80.3335H55.8321C55.8321 80.3335 55.8321 80.3335 55.8321 80.3335C55.8321 80.3335 55.8321 80.3335 55.8321 80.3335H55.8321C55.8321 80.3335 55.8321 80.3335 55.8321 80.3335C55.8321 80.3335 55.8321 80.3335 55.8321 80.3335H55.8321C55.8321 80.3335 55.8321 80.3335 55.8321 80.3335C55.8321 80.3335 55.8321 80.3335 55.8321 80.3335H55.8321C55.8321 80.3335 55.8321 80.3335 55.8321 80.3335C55.8321 80.3335 55.8321 80.3335 55.8321 80.3335H55.8321C55.8321 80.3335 55.8321 80.3335 55.8321 80.3335C55.8321 80.3335 55.8321 80.3335 55.8321 80.3335H55.8321C55.8321 80.3335 55.8321 80.3335 55.8321 80.3335C55.8321 80.3335 55.8321 80.3335 55.8321 80.3335H55.8321C55.8321 80.3335 55.8321 80.3335 55.8321 80.3335C55.8321 80.3335 55.8321 80.3335 55.8321 80.3335H55.8321C55.8321 80.3335 55.8321 80.3335 55.8321 80.3335H55.8321H55.8321C55.8321 80.3335 55.8321 80.3335 55.8321 80.3335H55.8321H55.8321C55.8321 80.3335 55.8321 80.3335 55.8321 80.3335H55.8321H55.8321C55.8321 80.3335 55.8321 80.3335 55.8321 80.3335H55.8321H55.8321C55.8321 80.3335 55.8321 80.3335 55.8321 80.3335H55.8321H55.8321C55.8321 80.3335 55.8321 80.3335 55.832 80.3335H55.832H55.832C55.832 80.3335 55.832 80.3335 55.832 80.3335H55.832H55.832C55.832 80.3335 55.832 80.3335 55.832 80.3335H55.832V82.3335Z" fill="#A78BFA" mask="url(#path-15-inside-1_5873_67946)" />
	<path d="M210.832 82.1694C208.18 82.1694 205.636 87.7397 203.761 97.6549C201.886 107.57 200.832 121.018 200.832 135.04C200.832 149.062 201.886 162.51 203.761 172.425C205.636 182.34 208.18 187.498 210.832 187.498" stroke="#A78BFA" />
	<path d="M75 82.1694C72.3478 82.1694 69.8043 87.7397 67.9289 97.6549C66.0536 107.57 65 121.018 65 135.04C65 149.062 66.0536 162.51 67.9289 172.425C69.8043 182.34 72.3478 187.498 75 187.498" stroke="#A78BFA" />
</svg>