<svg width="272" height="240" viewBox="0 0 272 240" fill="none" class="tab" data-tab="9" xmlns="http://www.w3.org/2000/svg">
	<line x1="260.5" y1="126" x2="229.5" y2="126" stroke="#A78BFA" />
	<line x1="260.5" y1="61" x2="209.5" y2="61" stroke="#A78BFA" />
	<path d="M251.146 124.854C251.342 125.049 251.658 125.049 251.854 124.854L255.036 121.672C255.231 121.476 255.231 121.16 255.036 120.964C254.84 120.769 254.524 120.769 254.328 120.964L251.5 123.793L248.672 120.964C248.476 120.769 248.16 120.769 247.964 120.964C247.769 121.16 247.769 121.476 247.964 121.672L251.146 124.854ZM251.854 62.1464C251.658 61.9512 251.342 61.9512 251.146 62.1464L247.964 65.3284C247.769 65.5237 247.769 65.8403 247.964 66.0355C248.16 66.2308 248.476 66.2308 248.672 66.0355L251.5 63.2071L254.328 66.0355C254.524 66.2308 254.84 66.2308 255.036 66.0355C255.231 65.8403 255.231 65.5237 255.036 65.3284L251.854 62.1464ZM252 124.5L252 62.5L251 62.5L251 124.5L252 124.5Z" fill="#A78BFA" />
	<path d="M258.426 93.5625V97.5H257.42V88.7727H258.426V91.9773H258.511C258.665 91.6392 258.895 91.3707 259.202 91.1719C259.511 90.9702 259.923 90.8693 260.438 90.8693C260.884 90.8693 261.274 90.9588 261.609 91.1378C261.945 91.3139 262.205 91.5852 262.389 91.9517C262.577 92.3153 262.67 92.7784 262.67 93.3409V97.5H261.665V93.4091C261.665 92.8892 261.53 92.4872 261.26 92.2031C260.993 91.9162 260.622 91.7727 260.148 91.7727C259.818 91.7727 259.523 91.8423 259.261 91.9815C259.003 92.1207 258.798 92.3239 258.648 92.5909C258.5 92.858 258.426 93.1818 258.426 93.5625Z" fill="#7C3AED" />
	<line x1="66" y1="95.5" x2="66" y2="75.5" stroke="#A78BFA" />
	<line x1="170" y1="59.5" x2="170" y2="39.5" stroke="#A78BFA" />
	<path d="M68.045 82.2926C67.9305 82.5439 68.0413 82.8404 68.2926 82.955L72.3872 84.8216C72.6384 84.9361 72.935 84.8253 73.0495 84.5741C73.1641 84.3228 73.0533 84.0262 72.802 83.9117L69.1624 82.2525L70.8216 78.6128C70.9361 78.3616 70.8253 78.065 70.5741 77.9505C70.3228 77.8359 70.0262 77.9467 69.9117 78.198L68.045 82.2926ZM167.955 45.7074C168.069 45.4561 167.959 45.1596 167.707 45.045L163.613 43.1784C163.362 43.0639 163.065 43.1747 162.95 43.4259C162.836 43.6772 162.947 43.9738 163.198 44.0883L166.838 45.7475L165.178 49.3872C165.064 49.6384 165.175 49.935 165.426 50.0495C165.677 50.1641 165.974 50.0533 166.088 49.802L167.955 45.7074ZM68.675 82.9684L167.675 45.9684L167.325 45.0316L68.325 82.0316L68.675 82.9684Z" fill="#A78BFA" />
	<path d="M118.426 48.7727V57.5H117.42V48.7727H118.426Z" fill="#7C3AED" />
	<path d="M29.1464 185.146C28.9512 185.342 28.9512 185.658 29.1464 185.854L32.3284 189.036C32.5237 189.231 32.8403 189.231 33.0355 189.036C33.2308 188.84 33.2308 188.524 33.0355 188.328L30.2071 185.5L33.0355 182.672C33.2308 182.476 33.2308 182.16 33.0355 181.964C32.8403 181.769 32.5237 181.769 32.3284 181.964L29.1464 185.146ZM144.854 185.854C145.049 185.658 145.049 185.342 144.854 185.146L141.672 181.964C141.476 181.769 141.16 181.769 140.964 181.964C140.769 182.16 140.769 182.476 140.964 182.672L143.793 185.5L140.964 188.328C140.769 188.524 140.769 188.84 140.964 189.036C141.16 189.231 141.476 189.231 141.672 189.036L144.854 185.854ZM29.5 186L144.5 186L144.5 185L29.5 185L29.5 186Z" fill="#A78BFA" />
	<path d="M85.9034 197.5L83.9091 190.955H84.9659L86.3807 195.966H86.4489L87.8466 190.955H88.9205L90.3011 195.949H90.3693L91.7841 190.955H92.8409L90.8466 197.5H89.858L88.4261 192.472H88.3239L86.892 197.5H85.9034Z" fill="#7C3AED" />
	<line x1="53.5" y1="171" x2="7.5" y2="171" stroke="#A78BFA" />
	<line x1="29.5" y1="134" x2="7.5" y2="134" stroke="#A78BFA" />
	<path d="M18.1464 169.854C18.3417 170.049 18.6583 170.049 18.8536 169.854L22.0355 166.672C22.2308 166.476 22.2308 166.16 22.0355 165.964C21.8403 165.769 21.5237 165.769 21.3284 165.964L18.5 168.793L15.6716 165.964C15.4763 165.769 15.1597 165.769 14.9645 165.964C14.7692 166.16 14.7692 166.476 14.9645 166.672L18.1464 169.854ZM18.8536 135.146C18.6583 134.951 18.3417 134.951 18.1464 135.146L14.9645 138.328C14.7692 138.524 14.7692 138.84 14.9645 139.036C15.1597 139.231 15.4763 139.231 15.6716 139.036L18.5 136.207L21.3284 139.036C21.5237 139.231 21.8403 139.231 22.0355 139.036C22.2308 138.84 22.2308 138.524 22.0355 138.328L18.8536 135.146ZM19 169.5L19 135.5L18 135.5L18 169.5L19 169.5Z" fill="#A78BFA" />
	<path d="M11.3352 151.955V152.807H7.80682V151.955H11.3352ZM8.86364 158.5V151.051C8.86364 150.676 8.9517 150.364 9.12784 150.114C9.30398 149.864 9.53267 149.676 9.81392 149.551C10.0952 149.426 10.392 149.364 10.7045 149.364C10.9517 149.364 11.1534 149.384 11.3097 149.423C11.4659 149.463 11.5824 149.5 11.6591 149.534L11.3693 150.403C11.3182 150.386 11.2472 150.365 11.1562 150.339C11.0682 150.314 10.9517 150.301 10.8068 150.301C10.4744 150.301 10.2344 150.385 10.0866 150.553C9.94176 150.72 9.86932 150.966 9.86932 151.29V158.5H8.86364Z" fill="#7C3AED" />
	<path fill-rule="evenodd" clip-rule="evenodd" d="M87.5 172.5C120.637 172.5 147.5 155.711 147.5 135C147.5 134.498 147.484 133.998 147.453 133.5H27.5471C27.5158 133.998 27.5 134.498 27.5 135C27.5 155.711 54.3629 172.5 87.5 172.5Z" fill="#F5F3FF" />
	<mask id="mask0_5873_68102" style="mask-type:alpha" maskUnits="userSpaceOnUse" x="27" y="60" width="221" height="113">
		<path fill-rule="evenodd" clip-rule="evenodd" d="M114.544 168.484C116.868 167.749 119.105 166.923 121.243 166.012L217.5 130.5L217.488 130.487C235.429 124.004 247.5 111.883 247.5 98C247.5 77.2893 220.637 60.5 187.5 60.5C176.576 60.5 166.334 62.3245 157.512 65.5126L157.5 65.5L57.5 102.5L57.5111 102.513C39.5709 108.996 27.5 121.117 27.5 135C27.5 155.711 54.3629 172.5 87.5 172.5C97.211 172.5 106.383 171.058 114.498 168.498L114.5 168.5L114.544 168.484Z" fill="#D9D9D9" />
	</mask>
	<g mask="url(#mask0_5873_68102)">
		<path d="M146.5 133.5L247.499 98V118.5L128.5 162.5L146.5 133.5Z" fill="#F5F3FF" />
	</g>
	<mask id="path-18-inside-1_5873_68102" fill="white">
		<path fill-rule="evenodd" clip-rule="evenodd" d="M114.544 168.484C116.868 167.749 119.105 166.923 121.243 166.012L217.5 130.5L217.488 130.487C235.429 124.004 247.5 111.883 247.5 98C247.5 77.2893 220.637 60.5 187.5 60.5C176.576 60.5 166.334 62.3245 157.512 65.5126L157.5 65.5L57.5 102.5L57.5111 102.513C39.5709 108.996 27.5 121.117 27.5 135C27.5 155.711 54.3629 172.5 87.5 172.5C97.211 172.5 106.383 171.058 114.498 168.498L114.5 168.5L114.544 168.484Z" />
	</mask>
	<path d="M114.544 168.484L114.243 167.53L114.22 167.537L114.198 167.546L114.544 168.484ZM121.243 166.012L120.897 165.074L120.874 165.083L120.851 165.092L121.243 166.012ZM217.5 130.5L217.846 131.438L219.25 130.92L218.235 129.821L217.5 130.5ZM217.488 130.487L217.148 129.547L215.731 130.059L216.754 131.166L217.488 130.487ZM157.512 65.5126L156.777 66.1911L157.227 66.6786L157.852 66.4531L157.512 65.5126ZM157.5 65.5L158.235 64.8215L157.781 64.3299L157.153 64.5621L157.5 65.5ZM57.5 102.5L57.153 101.562L55.8009 102.062L56.7431 103.154L57.5 102.5ZM57.5111 102.513L57.8509 103.453L59.2179 102.959L58.2679 101.859L57.5111 102.513ZM114.498 168.498L115.255 167.845L114.825 167.346L114.198 167.544L114.498 168.498ZM114.5 168.5L113.743 169.153L114.196 169.678L114.846 169.438L114.5 168.5ZM114.846 169.437C117.199 168.693 119.466 167.856 121.635 166.932L120.851 165.092C118.744 165.99 116.537 166.805 114.243 167.53L114.846 169.437ZM217.154 129.562L120.897 165.074L121.589 166.95L217.846 131.438L217.154 129.562ZM216.754 131.166L216.765 131.179L218.235 129.821L218.223 129.809L216.754 131.166ZM217.828 131.428C235.922 124.89 248.5 112.515 248.5 98H246.5C246.5 111.252 234.936 123.119 217.148 129.547L217.828 131.428ZM248.5 98C248.5 87.1755 241.483 77.527 230.456 70.6355C219.416 63.7352 204.226 59.5 187.5 59.5V61.5C203.911 61.5 218.721 65.6594 229.396 72.3315C240.086 79.0124 246.5 88.1139 246.5 98H248.5ZM187.5 59.5C176.467 59.5 166.11 61.3424 157.172 64.5721L157.852 66.4531C166.559 63.3067 176.685 61.5 187.5 61.5V59.5ZM156.765 66.1785L156.777 66.1911L158.246 64.8341L158.235 64.8215L156.765 66.1785ZM57.847 103.438L157.847 66.4379L157.153 64.5621L57.153 101.562L57.847 103.438ZM58.2679 101.859L58.2569 101.846L56.7431 103.154L56.7542 103.166L58.2679 101.859ZM57.1712 101.572C39.0778 108.111 26.5 120.486 26.5 135H28.5C28.5 121.748 40.0641 109.881 57.8509 103.453L57.1712 101.572ZM26.5 135C26.5 145.825 33.5173 155.473 44.5436 162.365C55.584 169.265 70.774 173.5 87.5 173.5V171.5C71.0889 171.5 56.2789 167.341 45.6036 160.669C34.9142 153.988 28.5 144.886 28.5 135H26.5ZM87.5 173.5C97.3084 173.5 106.582 172.044 114.799 169.452L114.198 167.544C106.184 170.072 97.1136 171.5 87.5 171.5V173.5ZM115.257 167.847L115.255 167.845L113.741 169.152L113.743 169.153L115.257 167.847ZM114.198 167.546L114.154 167.562L114.846 169.438L114.89 169.422L114.198 167.546Z" fill="#A78BFA" mask="url(#path-18-inside-1_5873_68102)" />
	<path d="M147 135C147 145.121 140.435 154.359 129.661 161.093C118.895 167.822 103.99 172 87.5 172C71.0102 172 56.1052 167.822 45.3386 161.093C34.565 154.359 28 145.121 28 135C28 124.879 34.565 115.641 45.3386 108.907C56.1052 102.178 71.0102 98 87.5 98C103.99 98 118.895 102.178 129.661 108.907C140.435 115.641 147 124.879 147 135Z" stroke="#A78BFA" />
	<line x1="27" y1="192.5" x2="27" y2="146.5" stroke="#A78BFA" stroke-dasharray="4 4" />
	<line x1="147" y1="192.5" x2="147" y2="146.5" stroke="#A78BFA" stroke-dasharray="4 4" />
</svg>