<svg width="272" height="240" viewBox="0 0 272 240" fill="none" class="tab" data-tab="8" xmlns="http://www.w3.org/2000/svg">
	<line x1="242" y1="203" x2="242" y2="139" stroke="#A78BFA" />
	<line x1="217" y1="203" x2="217" y2="183" stroke="#A78BFA" />
	<path d="M218.146 195.646C217.951 195.842 217.951 196.158 218.146 196.354L221.328 199.536C221.524 199.731 221.84 199.731 222.036 199.536C222.231 199.34 222.231 199.024 222.036 198.828L219.207 196L222.036 193.172C222.231 192.976 222.231 192.66 222.036 192.464C221.84 192.269 221.524 192.269 221.328 192.464L218.146 195.646ZM240.854 196.354C241.049 196.158 241.049 195.842 240.854 195.646L237.672 192.464C237.476 192.269 237.16 192.269 236.964 192.464C236.769 192.66 236.769 192.976 236.964 193.172L239.793 196L236.964 198.828C236.769 199.024 236.769 199.34 236.964 199.536C237.16 199.731 237.476 199.731 237.672 199.536L240.854 196.354ZM218.5 196.5L240.5 196.5L240.5 195.5L218.5 195.5L218.5 196.5Z" fill="#A78BFA" />
	<path d="M226.233 212V211.233L229.949 206.46V206.392H226.352V205.455H231.244V206.256L227.631 210.994V211.062H231.364V212H226.233Z" fill="#7C3AED" />
	<line x1="262.5" y1="180.5" x2="224.5" y2="180.5" stroke="#A78BFA" />
	<line x1="262.5" y1="57.5" x2="224.5" y2="57.5" stroke="#A78BFA" />
	<path d="M251.146 178.354C251.342 178.549 251.658 178.549 251.854 178.354L255.036 175.172C255.231 174.976 255.231 174.66 255.036 174.464C254.84 174.269 254.524 174.269 254.328 174.464L251.5 177.293L248.672 174.464C248.476 174.269 248.16 174.269 247.964 174.464C247.769 174.66 247.769 174.976 247.964 175.172L251.146 178.354ZM251.854 59.6465C251.658 59.4512 251.342 59.4512 251.146 59.6465L247.964 62.8284C247.769 63.0237 247.769 63.3403 247.964 63.5355C248.16 63.7308 248.476 63.7308 248.672 63.5355L251.5 60.7071L254.328 63.5355C254.524 63.7308 254.84 63.7308 255.036 63.5355C255.231 63.3403 255.231 63.0237 255.036 62.8284L251.854 59.6465ZM252 178L252 60L251 60L251 178L252 178Z" fill="#A78BFA" />
	<path d="M258.892 125.136C258.347 125.136 257.865 124.999 257.447 124.723C257.03 124.445 256.703 124.053 256.467 123.547C256.232 123.038 256.114 122.438 256.114 121.744C256.114 121.057 256.232 120.46 256.467 119.955C256.703 119.449 257.031 119.058 257.452 118.783C257.872 118.507 258.358 118.369 258.909 118.369C259.335 118.369 259.672 118.44 259.919 118.582C260.169 118.722 260.359 118.881 260.49 119.06C260.624 119.236 260.727 119.381 260.801 119.494H260.886V116.273H261.892V125H260.92V123.994H260.801C260.727 124.114 260.622 124.264 260.486 124.446C260.349 124.625 260.155 124.786 259.902 124.928C259.649 125.067 259.313 125.136 258.892 125.136ZM259.028 124.233C259.432 124.233 259.773 124.128 260.051 123.918C260.33 123.705 260.541 123.411 260.686 123.036C260.831 122.658 260.903 122.222 260.903 121.727C260.903 121.239 260.832 120.811 260.69 120.445C260.548 120.075 260.338 119.788 260.06 119.584C259.781 119.376 259.438 119.273 259.028 119.273C258.602 119.273 258.247 119.382 257.963 119.601C257.682 119.817 257.47 120.111 257.328 120.483C257.189 120.852 257.119 121.267 257.119 121.727C257.119 122.193 257.19 122.616 257.332 122.997C257.477 123.375 257.69 123.676 257.972 123.901C258.256 124.122 258.608 124.233 259.028 124.233Z" fill="#7C3AED" />
	<line x1="57" y1="53" x2="57" y2="33" stroke="#A78BFA" />
	<line x1="217" y1="53" x2="217" y2="33" stroke="#A78BFA" />
	<path d="M59.1464 42.6464C58.9512 42.8417 58.9512 43.1583 59.1464 43.3536L62.3284 46.5355C62.5237 46.7308 62.8403 46.7308 63.0355 46.5355C63.2308 46.3403 63.2308 46.0237 63.0355 45.8284L60.2071 43L63.0355 40.1716C63.2308 39.9763 63.2308 39.6597 63.0355 39.4645C62.8403 39.2692 62.5237 39.2692 62.3284 39.4645L59.1464 42.6464ZM214.854 43.3536C215.049 43.1583 215.049 42.8417 214.854 42.6465L211.672 39.4645C211.476 39.2692 211.16 39.2692 210.964 39.4645C210.769 39.6597 210.769 39.9763 210.964 40.1716L213.793 43L210.964 45.8284C210.769 46.0237 210.769 46.3403 210.964 46.5355C211.16 46.7308 211.476 46.7308 211.672 46.5355L214.854 43.3536ZM59.5 43.5L214.5 43.5L214.5 42.5L59.5 42.5L59.5 43.5Z" fill="#A78BFA" />
	<path d="M139.426 28.2727V37H138.42V28.2727H139.426Z" fill="#7C3AED" />
	<mask id="mask0_5873_68024" style="mask-type:alpha" maskUnits="userSpaceOnUse" x="32" y="57" width="211" height="124">
		<path d="M57.8307 181H217.169C226.646 181 242.5 153.242 242.5 119C242.5 84.7583 226.646 57 217.169 57H57.8307C48.3538 57 32.5 84.7583 32.5 119C32.5 153.242 48.3538 181 57.8307 181Z" fill="#D9D9D9" />
	</mask>
	<g mask="url(#mask0_5873_68024)">
		<rect x="32.5" y="122.263" width="210" height="58.7368" fill="#F5F3FF" />
	</g>
	<mask id="path-15-inside-1_5873_68024" fill="white">
		<path fill-rule="evenodd" clip-rule="evenodd" d="M57.832 181C57.8316 181 57.8312 181 57.8307 181C48.3538 181 32.5 153.242 32.5 119C32.5 84.7583 48.3538 57 57.8307 57C57.8312 57 57.8316 57 57.832 57H217.167H217.171C226.648 57.0063 242.498 84.7622 242.498 119C242.498 153.238 226.648 180.994 217.171 181H217.167H57.832Z" />
	</mask>
	<path d="M217.171 57L217.171 56H217.171V57ZM217.171 181V182H217.171L217.171 181ZM57.832 180H57.832C57.832 180 57.832 180 57.832 180H57.832H57.832C57.832 180 57.832 180 57.832 180H57.832H57.832C57.832 180 57.832 180 57.832 180C57.832 180 57.832 180 57.832 180H57.832C57.832 180 57.832 180 57.832 180C57.832 180 57.832 180 57.832 180H57.832C57.832 180 57.832 180 57.832 180C57.832 180 57.832 180 57.832 180H57.832C57.832 180 57.832 180 57.832 180C57.832 180 57.832 180 57.832 180H57.832C57.832 180 57.832 180 57.832 180C57.832 180 57.832 180 57.832 180H57.832C57.832 180 57.832 180 57.832 180C57.832 180 57.832 180 57.832 180H57.832C57.832 180 57.832 180 57.832 180C57.832 180 57.832 180 57.832 180H57.832C57.832 180 57.832 180 57.832 180C57.832 180 57.832 180 57.832 180H57.832H57.832C57.8319 180 57.8319 180 57.8319 180H57.8319H57.8319C57.8319 180 57.8319 180 57.8319 180H57.8319H57.8319C57.8319 180 57.8319 180 57.8319 180H57.8319H57.8319C57.8319 180 57.8319 180 57.8319 180C57.8319 180 57.8319 180 57.8319 180H57.8319C57.8319 180 57.8319 180 57.8319 180C57.8319 180 57.8319 180 57.8319 180H57.8319C57.8319 180 57.8319 180 57.8319 180C57.8319 180 57.8319 180 57.8319 180H57.8319C57.8319 180 57.8319 180 57.8319 180C57.8319 180 57.8319 180 57.8319 180H57.8319C57.8319 180 57.8319 180 57.8319 180C57.8319 180 57.8319 180 57.8319 180H57.8319C57.8319 180 57.8319 180 57.8319 180C57.8319 180 57.8319 180 57.8319 180H57.8319C57.8319 180 57.8319 180 57.8319 180C57.8319 180 57.8319 180 57.8319 180H57.8319C57.8319 180 57.8319 180 57.8319 180C57.8319 180 57.8319 180 57.8319 180H57.8319C57.8319 180 57.8319 180 57.8319 180C57.8319 180 57.8319 180 57.8319 180H57.8319H57.8319C57.8319 180 57.8319 180 57.8319 180H57.8319H57.8319C57.8318 180 57.8318 180 57.8318 180H57.8318H57.8318C57.8318 180 57.8318 180 57.8318 180H57.8318H57.8318C57.8318 180 57.8318 180 57.8318 180C57.8318 180 57.8318 180 57.8318 180H57.8318C57.8318 180 57.8318 180 57.8318 180C57.8318 180 57.8318 180 57.8318 180H57.8318C57.8318 180 57.8318 180 57.8318 180C57.8318 180 57.8318 180 57.8318 180H57.8318C57.8318 180 57.8318 180 57.8318 180C57.8318 180 57.8318 180 57.8318 180H57.8318C57.8318 180 57.8318 180 57.8318 180C57.8318 180 57.8318 180 57.8318 180H57.8318C57.8318 180 57.8318 180 57.8318 180C57.8318 180 57.8318 180 57.8318 180H57.8318C57.8318 180 57.8318 180 57.8318 180C57.8318 180 57.8318 180 57.8318 180H57.8318C57.8318 180 57.8318 180 57.8318 180C57.8318 180 57.8318 180 57.8318 180H57.8318C57.8318 180 57.8318 180 57.8318 180C57.8318 180 57.8318 180 57.8318 180H57.8318H57.8318C57.8318 180 57.8318 180 57.8318 180H57.8318H57.8318C57.8318 180 57.8318 180 57.8318 180H57.8318H57.8317C57.8317 180 57.8317 180 57.8317 180H57.8317H57.8317C57.8317 180 57.8317 180 57.8317 180C57.8317 180 57.8317 180 57.8317 180H57.8317C57.8317 180 57.8317 180 57.8317 180C57.8317 180 57.8317 180 57.8317 180H57.8317C57.8317 180 57.8317 180 57.8317 180C57.8317 180 57.8317 180 57.8317 180H57.8317C57.8317 180 57.8317 180 57.8317 180C57.8317 180 57.8317 180 57.8317 180H57.8317C57.8317 180 57.8317 180 57.8317 180C57.8317 180 57.8317 180 57.8317 180H57.8317C57.8317 180 57.8317 180 57.8317 180C57.8317 180 57.8317 180 57.8317 180H57.8317C57.8317 180 57.8317 180 57.8317 180C57.8317 180 57.8317 180 57.8317 180H57.8317C57.8317 180 57.8317 180 57.8317 180C57.8317 180 57.8317 180 57.8317 180H57.8317C57.8317 180 57.8317 180 57.8317 180C57.8317 180 57.8317 180 57.8317 180H57.8317H57.8317C57.8317 180 57.8317 180 57.8317 180H57.8317H57.8317C57.8317 180 57.8317 180 57.8317 180H57.8317H57.8317C57.8317 180 57.8317 180 57.8317 180H57.8316H57.8316C57.8316 180 57.8316 180 57.8316 180C57.8316 180 57.8316 180 57.8316 180H57.8316C57.8316 180 57.8316 180 57.8316 180C57.8316 180 57.8316 180 57.8316 180H57.8316C57.8316 180 57.8316 180 57.8316 180C57.8316 180 57.8316 180 57.8316 180H57.8316C57.8316 180 57.8316 180 57.8316 180C57.8316 180 57.8316 180 57.8316 180H57.8316C57.8316 180 57.8316 180 57.8316 180C57.8316 180 57.8316 180 57.8316 180H57.8316C57.8316 180 57.8316 180 57.8316 180C57.8316 180 57.8316 180 57.8316 180H57.8316C57.8316 180 57.8316 180 57.8316 180C57.8316 180 57.8316 180 57.8316 180H57.8316C57.8316 180 57.8316 180 57.8316 180C57.8316 180 57.8316 180 57.8316 180H57.8316C57.8316 180 57.8316 180 57.8316 180C57.8316 180 57.8316 180 57.8316 180H57.8316H57.8316C57.8316 180 57.8316 180 57.8316 180H57.8316H57.8316C57.8316 180 57.8316 180 57.8316 180H57.8316H57.8316C57.8316 180 57.8316 180 57.8316 180H57.8316H57.8316C57.8316 180 57.8316 180 57.8316 180C57.8316 180 57.8316 180 57.8315 180H57.8315C57.8315 180 57.8315 180 57.8315 180C57.8315 180 57.8315 180 57.8315 180H57.8315C57.8315 180 57.8315 180 57.8315 180C57.8315 180 57.8315 180 57.8315 180H57.8315C57.8315 180 57.8315 180 57.8315 180C57.8315 180 57.8315 180 57.8315 180H57.8315C57.8315 180 57.8315 180 57.8315 180C57.8315 180 57.8315 180 57.8315 180H57.8315C57.8315 180 57.8315 180 57.8315 180C57.8315 180 57.8315 180 57.8315 180H57.8315C57.8315 180 57.8315 180 57.8315 180C57.8315 180 57.8315 180 57.8315 180H57.8315C57.8315 180 57.8315 180 57.8315 180C57.8315 180 57.8315 180 57.8315 180H57.8315H57.8315C57.8315 180 57.8315 180 57.8315 180H57.8315H57.8315C57.8315 180 57.8315 180 57.8315 180H57.8315H57.8315C57.8315 180 57.8315 180 57.8315 180H57.8315H57.8315C57.8315 180 57.8315 180 57.8315 180H57.8315H57.8315C57.8315 180 57.8315 180 57.8315 180C57.8315 180 57.8315 180 57.8315 180H57.8315C57.8315 180 57.8315 180 57.8314 180C57.8314 180 57.8314 180 57.8314 180H57.8314C57.8314 180 57.8314 180 57.8314 180C57.8314 180 57.8314 180 57.8314 180H57.8314C57.8314 180 57.8314 180 57.8314 180C57.8314 180 57.8314 180 57.8314 180H57.8314C57.8314 180 57.8314 180 57.8314 180C57.8314 180 57.8314 180 57.8314 180H57.8314C57.8314 180 57.8314 180 57.8314 180C57.8314 180 57.8314 180 57.8314 180H57.8314C57.8314 180 57.8314 180 57.8314 180C57.8314 180 57.8314 180 57.8314 180H57.8314C57.8314 180 57.8314 180 57.8314 180C57.8314 180 57.8314 180 57.8314 180H57.8314H57.8314C57.8314 180 57.8314 180 57.8314 180H57.8314H57.8314C57.8314 180 57.8314 180 57.8314 180H57.8314H57.8314C57.8314 180 57.8314 180 57.8314 180H57.8314H57.8314C57.8314 180 57.8314 180 57.8314 180H57.8314H57.8314C57.8314 180 57.8314 180 57.8314 180C57.8314 180 57.8314 180 57.8314 180H57.8314C57.8314 180 57.8314 180 57.8314 180C57.8314 180 57.8314 180 57.8314 180H57.8314C57.8314 180 57.8314 180 57.8313 180C57.8313 180 57.8313 180 57.8313 180H57.8313C57.8313 180 57.8313 180 57.8313 180C57.8313 180 57.8313 180 57.8313 180H57.8313C57.8313 180 57.8313 180 57.8313 180C57.8313 180 57.8313 180 57.8313 180H57.8313C57.8313 180 57.8313 180 57.8313 180C57.8313 180 57.8313 180 57.8313 180H57.8313C57.8313 180 57.8313 180 57.8313 180C57.8313 180 57.8313 180 57.8313 180H57.8313C57.8313 180 57.8313 180 57.8313 180C57.8313 180 57.8313 180 57.8313 180H57.8313H57.8313C57.8313 180 57.8313 180 57.8313 180H57.8313H57.8313C57.8313 180 57.8313 180 57.8313 180H57.8313H57.8313C57.8313 180 57.8313 180 57.8313 180H57.8313H57.8313C57.8313 180 57.8313 180 57.8313 180H57.8313H57.8313C57.8313 180 57.8313 180 57.8313 180C57.8313 180 57.8313 180 57.8313 180H57.8313C57.8313 180 57.8313 180 57.8313 180C57.8313 180 57.8313 180 57.8313 180H57.8313C57.8313 180 57.8313 180 57.8313 180C57.8313 180 57.8313 180 57.8313 180H57.8313C57.8312 180 57.8312 180 57.8312 180C57.8312 180 57.8312 180 57.8312 180H57.8312C57.8312 180 57.8312 180 57.8312 180C57.8312 180 57.8312 180 57.8312 180H57.8312C57.8312 180 57.8312 180 57.8312 180C57.8312 180 57.8312 180 57.8312 180H57.8312C57.8312 180 57.8312 180 57.8312 180C57.8312 180 57.8312 180 57.8312 180H57.8312C57.8312 180 57.8312 180 57.8312 180C57.8312 180 57.8312 180 57.8312 180H57.8312H57.8312C57.8312 180 57.8312 180 57.8312 180H57.8312H57.8312C57.8312 180 57.8312 180 57.8312 180H57.8312H57.8312C57.8312 180 57.8312 180 57.8312 180H57.8312H57.8312C57.8312 180 57.8312 180 57.8312 180C57.8312 180 57.8312 180 57.8312 180H57.8312C57.8312 180 57.8312 180 57.8312 180C57.8312 180 57.8312 180 57.8312 180H57.8312C57.8312 180 57.8312 180 57.8312 180C57.8312 180 57.8312 180 57.8312 180H57.8312C57.8312 180 57.8312 180 57.8312 180C57.8312 180 57.8312 180 57.8312 180H57.8312C57.8312 180 57.8312 180 57.8312 180C57.8312 180 57.8312 180 57.8312 180H57.8312C57.8311 180 57.8311 180 57.8311 180C57.8311 180 57.8311 180 57.8311 180H57.8311C57.8311 180 57.8311 180 57.8311 180C57.8311 180 57.8311 180 57.8311 180H57.8311C57.8311 180 57.8311 180 57.8311 180C57.8311 180 57.8311 180 57.8311 180H57.8311C57.8311 180 57.8311 180 57.8311 180C57.8311 180 57.8311 180 57.8311 180H57.8311H57.8311C57.8311 180 57.8311 180 57.8311 180H57.8311H57.8311C57.8311 180 57.8311 180 57.8311 180H57.8311H57.8311C57.8311 180 57.8311 180 57.8311 180H57.8311H57.8311C57.8311 180 57.8311 180 57.8311 180C57.8311 180 57.8311 180 57.8311 180H57.8311C57.8311 180 57.8311 180 57.8311 180C57.8311 180 57.8311 180 57.8311 180H57.8311C57.8311 180 57.8311 180 57.8311 180C57.8311 180 57.8311 180 57.8311 180H57.8311C57.8311 180 57.8311 180 57.8311 180C57.8311 180 57.8311 180 57.8311 180H57.8311C57.8311 180 57.8311 180 57.8311 180C57.8311 180 57.8311 180 57.8311 180H57.8311C57.8311 180 57.8311 180 57.8311 180C57.8311 180 57.8311 180 57.8311 180H57.831C57.831 180 57.831 180 57.831 180C57.831 180 57.831 180 57.831 180H57.831C57.831 180 57.831 180 57.831 180C57.831 180 57.831 180 57.831 180H57.831C57.831 180 57.831 180 57.831 180C57.831 180 57.831 180 57.831 180H57.831H57.831C57.831 180 57.831 180 57.831 180H57.831H57.831C57.831 180 57.831 180 57.831 180H57.831H57.831C57.831 180 57.831 180 57.831 180H57.831H57.831C57.831 180 57.831 180 57.831 180C57.831 180 57.831 180 57.831 180H57.831C57.831 180 57.831 180 57.831 180C57.831 180 57.831 180 57.831 180H57.831C57.831 180 57.831 180 57.831 180C57.831 180 57.831 180 57.831 180H57.831C57.831 180 57.831 180 57.831 180C57.831 180 57.831 180 57.831 180H57.831C57.831 180 57.831 180 57.831 180C57.831 180 57.831 180 57.831 180H57.831C57.831 180 57.831 180 57.831 180C57.831 180 57.831 180 57.831 180H57.831C57.831 180 57.831 180 57.831 180C57.831 180 57.831 180 57.8309 180H57.8309C57.8309 180 57.8309 180 57.8309 180C57.8309 180 57.8309 180 57.8309 180H57.8309C57.8309 180 57.8309 180 57.8309 180C57.8309 180 57.8309 180 57.8309 180H57.8309H57.8309C57.8309 180 57.8309 180 57.8309 180H57.8309H57.8309C57.8309 180 57.8309 180 57.8309 180H57.8309H57.8309C57.8309 180 57.8309 180 57.8309 180H57.8309H57.8309C57.8309 180 57.8309 180 57.8309 180C57.8309 180 57.8309 180 57.8309 180H57.8309C57.8309 180 57.8309 180 57.8309 180C57.8309 180 57.8309 180 57.8309 180H57.8309C57.8309 180 57.8309 180 57.8309 180C57.8309 180 57.8309 180 57.8309 180H57.8309C57.8309 180 57.8309 180 57.8309 180C57.8309 180 57.8309 180 57.8309 180H57.8309C57.8309 180 57.8309 180 57.8309 180C57.8309 180 57.8309 180 57.8309 180H57.8309C57.8309 180 57.8309 180 57.8309 180C57.8309 180 57.8309 180 57.8309 180H57.8309C57.8309 180 57.8309 180 57.8309 180C57.8309 180 57.8309 180 57.8309 180H57.8309C57.8309 180 57.8309 180 57.8309 180C57.8309 180 57.8309 180 57.8308 180H57.8308C57.8308 180 57.8308 180 57.8308 180C57.8308 180 57.8308 180 57.8308 180H57.8308H57.8308C57.8308 180 57.8308 180 57.8308 180H57.8308H57.8308C57.8308 180 57.8308 180 57.8308 180H57.8308H57.8308C57.8308 180 57.8308 180 57.8308 180H57.8308H57.8308C57.8308 180 57.8308 180 57.8308 180C57.8308 180 57.8308 180 57.8308 180H57.8308C57.8308 180 57.8308 180 57.8308 180C57.8308 180 57.8308 180 57.8308 180H57.8308C57.8308 180 57.8308 180 57.8308 180C57.8308 180 57.8308 180 57.8308 180H57.8308C57.8308 180 57.8308 180 57.8308 180C57.8308 180 57.8308 180 57.8308 180H57.8308C57.8308 180 57.8308 180 57.8308 180C57.8308 180 57.8308 180 57.8308 180H57.8308C57.8308 180 57.8308 180 57.8308 180C57.8308 180 57.8308 180 57.8308 180H57.8308C57.8308 180 57.8308 180 57.8308 180C57.8308 180 57.8308 180 57.8308 180H57.8308C57.8308 180 57.8308 180 57.8308 180C57.8308 180 57.8308 180 57.8308 180H57.8308H57.8308C57.8307 180 57.8307 180 57.8307 180H57.8307H57.8307C57.8307 180 57.8307 180 57.8307 180H57.8307V182H57.8307C57.8307 182 57.8307 182 57.8307 182H57.8307H57.8307C57.8307 182 57.8307 182 57.8308 182H57.8308H57.8308C57.8308 182 57.8308 182 57.8308 182C57.8308 182 57.8308 182 57.8308 182H57.8308C57.8308 182 57.8308 182 57.8308 182C57.8308 182 57.8308 182 57.8308 182H57.8308C57.8308 182 57.8308 182 57.8308 182C57.8308 182 57.8308 182 57.8308 182H57.8308C57.8308 182 57.8308 182 57.8308 182C57.8308 182 57.8308 182 57.8308 182H57.8308C57.8308 182 57.8308 182 57.8308 182C57.8308 182 57.8308 182 57.8308 182H57.8308C57.8308 182 57.8308 182 57.8308 182C57.8308 182 57.8308 182 57.8308 182H57.8308C57.8308 182 57.8308 182 57.8308 182C57.8308 182 57.8308 182 57.8308 182H57.8308C57.8308 182 57.8308 182 57.8308 182C57.8308 182 57.8308 182 57.8308 182H57.8308H57.8308C57.8308 182 57.8308 182 57.8308 182H57.8308H57.8308C57.8308 182 57.8308 182 57.8308 182H57.8308H57.8308C57.8308 182 57.8308 182 57.8308 182H57.8308H57.8308C57.8308 182 57.8308 182 57.8308 182C57.8308 182 57.8308 182 57.8308 182H57.8308C57.8309 182 57.8309 182 57.8309 182C57.8309 182 57.8309 182 57.8309 182H57.8309C57.8309 182 57.8309 182 57.8309 182C57.8309 182 57.8309 182 57.8309 182H57.8309C57.8309 182 57.8309 182 57.8309 182C57.8309 182 57.8309 182 57.8309 182H57.8309C57.8309 182 57.8309 182 57.8309 182C57.8309 182 57.8309 182 57.8309 182H57.8309C57.8309 182 57.8309 182 57.8309 182C57.8309 182 57.8309 182 57.8309 182H57.8309C57.8309 182 57.8309 182 57.8309 182C57.8309 182 57.8309 182 57.8309 182H57.8309C57.8309 182 57.8309 182 57.8309 182C57.8309 182 57.8309 182 57.8309 182H57.8309C57.8309 182 57.8309 182 57.8309 182C57.8309 182 57.8309 182 57.8309 182H57.8309H57.8309C57.8309 182 57.8309 182 57.8309 182H57.8309H57.8309C57.8309 182 57.8309 182 57.8309 182H57.8309H57.8309C57.8309 182 57.8309 182 57.8309 182H57.8309H57.8309C57.8309 182 57.8309 182 57.8309 182C57.8309 182 57.8309 182 57.8309 182H57.8309C57.8309 182 57.8309 182 57.8309 182C57.8309 182 57.8309 182 57.8309 182H57.8309C57.831 182 57.831 182 57.831 182C57.831 182 57.831 182 57.831 182H57.831C57.831 182 57.831 182 57.831 182C57.831 182 57.831 182 57.831 182H57.831C57.831 182 57.831 182 57.831 182C57.831 182 57.831 182 57.831 182H57.831C57.831 182 57.831 182 57.831 182C57.831 182 57.831 182 57.831 182H57.831C57.831 182 57.831 182 57.831 182C57.831 182 57.831 182 57.831 182H57.831C57.831 182 57.831 182 57.831 182C57.831 182 57.831 182 57.831 182H57.831C57.831 182 57.831 182 57.831 182C57.831 182 57.831 182 57.831 182H57.831H57.831C57.831 182 57.831 182 57.831 182H57.831H57.831C57.831 182 57.831 182 57.831 182H57.831H57.831C57.831 182 57.831 182 57.831 182H57.831H57.831C57.831 182 57.831 182 57.831 182C57.831 182 57.831 182 57.831 182H57.831C57.831 182 57.831 182 57.831 182C57.831 182 57.831 182 57.831 182H57.831C57.831 182 57.831 182 57.831 182C57.831 182 57.831 182 57.831 182H57.8311C57.8311 182 57.8311 182 57.8311 182C57.8311 182 57.8311 182 57.8311 182H57.8311C57.8311 182 57.8311 182 57.8311 182C57.8311 182 57.8311 182 57.8311 182H57.8311C57.8311 182 57.8311 182 57.8311 182C57.8311 182 57.8311 182 57.8311 182H57.8311C57.8311 182 57.8311 182 57.8311 182C57.8311 182 57.8311 182 57.8311 182H57.8311C57.8311 182 57.8311 182 57.8311 182C57.8311 182 57.8311 182 57.8311 182H57.8311C57.8311 182 57.8311 182 57.8311 182C57.8311 182 57.8311 182 57.8311 182H57.8311H57.8311C57.8311 182 57.8311 182 57.8311 182H57.8311H57.8311C57.8311 182 57.8311 182 57.8311 182H57.8311H57.8311C57.8311 182 57.8311 182 57.8311 182H57.8311H57.8311C57.8311 182 57.8311 182 57.8311 182C57.8311 182 57.8311 182 57.8311 182H57.8311C57.8311 182 57.8311 182 57.8311 182C57.8311 182 57.8311 182 57.8311 182H57.8311C57.8311 182 57.8311 182 57.8311 182C57.8311 182 57.8311 182 57.8311 182H57.8311C57.8311 182 57.8311 182 57.8311 182C57.8311 182 57.8311 182 57.8312 182H57.8312C57.8312 182 57.8312 182 57.8312 182C57.8312 182 57.8312 182 57.8312 182H57.8312C57.8312 182 57.8312 182 57.8312 182C57.8312 182 57.8312 182 57.8312 182H57.8312C57.8312 182 57.8312 182 57.8312 182C57.8312 182 57.8312 182 57.8312 182H57.8312C57.8312 182 57.8312 182 57.8312 182C57.8312 182 57.8312 182 57.8312 182H57.8312C57.8312 182 57.8312 182 57.8312 182C57.8312 182 57.8312 182 57.8312 182H57.8312H57.8312C57.8312 182 57.8312 182 57.8312 182H57.8312H57.8312C57.8312 182 57.8312 182 57.8312 182H57.8312H57.8312C57.8312 182 57.8312 182 57.8312 182H57.8312H57.8312C57.8312 182 57.8312 182 57.8312 182C57.8312 182 57.8312 182 57.8312 182H57.8312C57.8312 182 57.8312 182 57.8312 182C57.8312 182 57.8312 182 57.8312 182H57.8312C57.8312 182 57.8312 182 57.8312 182C57.8312 182 57.8312 182 57.8312 182H57.8312C57.8312 182 57.8312 182 57.8312 182C57.8312 182 57.8312 182 57.8312 182H57.8312C57.8312 182 57.8312 182 57.8312 182C57.8312 182 57.8312 182 57.8313 182H57.8313C57.8313 182 57.8313 182 57.8313 182C57.8313 182 57.8313 182 57.8313 182H57.8313C57.8313 182 57.8313 182 57.8313 182C57.8313 182 57.8313 182 57.8313 182H57.8313C57.8313 182 57.8313 182 57.8313 182C57.8313 182 57.8313 182 57.8313 182H57.8313H57.8313C57.8313 182 57.8313 182 57.8313 182H57.8313H57.8313C57.8313 182 57.8313 182 57.8313 182H57.8313H57.8313C57.8313 182 57.8313 182 57.8313 182H57.8313H57.8313C57.8313 182 57.8313 182 57.8313 182H57.8313H57.8313C57.8313 182 57.8313 182 57.8313 182C57.8313 182 57.8313 182 57.8313 182H57.8313C57.8313 182 57.8313 182 57.8313 182C57.8313 182 57.8313 182 57.8313 182H57.8313C57.8313 182 57.8313 182 57.8313 182C57.8313 182 57.8313 182 57.8313 182H57.8313C57.8313 182 57.8313 182 57.8313 182C57.8313 182 57.8313 182 57.8313 182H57.8313C57.8313 182 57.8313 182 57.8313 182C57.8313 182 57.8313 182 57.8313 182H57.8313C57.8313 182 57.8313 182 57.8313 182C57.8314 182 57.8314 182 57.8314 182H57.8314C57.8314 182 57.8314 182 57.8314 182C57.8314 182 57.8314 182 57.8314 182H57.8314C57.8314 182 57.8314 182 57.8314 182C57.8314 182 57.8314 182 57.8314 182H57.8314H57.8314C57.8314 182 57.8314 182 57.8314 182H57.8314H57.8314C57.8314 182 57.8314 182 57.8314 182H57.8314H57.8314C57.8314 182 57.8314 182 57.8314 182H57.8314H57.8314C57.8314 182 57.8314 182 57.8314 182H57.8314H57.8314C57.8314 182 57.8314 182 57.8314 182C57.8314 182 57.8314 182 57.8314 182H57.8314C57.8314 182 57.8314 182 57.8314 182C57.8314 182 57.8314 182 57.8314 182H57.8314C57.8314 182 57.8314 182 57.8314 182C57.8314 182 57.8314 182 57.8314 182H57.8314C57.8314 182 57.8314 182 57.8314 182C57.8314 182 57.8314 182 57.8314 182H57.8314C57.8314 182 57.8314 182 57.8314 182C57.8314 182 57.8314 182 57.8314 182H57.8314C57.8314 182 57.8314 182 57.8314 182C57.8314 182 57.8314 182 57.8314 182H57.8314C57.8314 182 57.8314 182 57.8314 182C57.8315 182 57.8315 182 57.8315 182H57.8315C57.8315 182 57.8315 182 57.8315 182C57.8315 182 57.8315 182 57.8315 182H57.8315H57.8315C57.8315 182 57.8315 182 57.8315 182H57.8315H57.8315C57.8315 182 57.8315 182 57.8315 182H57.8315H57.8315C57.8315 182 57.8315 182 57.8315 182H57.8315H57.8315C57.8315 182 57.8315 182 57.8315 182H57.8315H57.8315C57.8315 182 57.8315 182 57.8315 182C57.8315 182 57.8315 182 57.8315 182H57.8315C57.8315 182 57.8315 182 57.8315 182C57.8315 182 57.8315 182 57.8315 182H57.8315C57.8315 182 57.8315 182 57.8315 182C57.8315 182 57.8315 182 57.8315 182H57.8315C57.8315 182 57.8315 182 57.8315 182C57.8315 182 57.8315 182 57.8315 182H57.8315C57.8315 182 57.8315 182 57.8315 182C57.8315 182 57.8315 182 57.8315 182H57.8315C57.8315 182 57.8315 182 57.8315 182C57.8315 182 57.8315 182 57.8315 182H57.8315C57.8315 182 57.8315 182 57.8315 182C57.8315 182 57.8315 182 57.8315 182H57.8315C57.8316 182 57.8316 182 57.8316 182C57.8316 182 57.8316 182 57.8316 182H57.8316H57.8316C57.8316 182 57.8316 182 57.8316 182H57.8316H57.8316C57.8316 182 57.8316 182 57.8316 182H57.8316H57.8316C57.8316 182 57.8316 182 57.8316 182H57.8316H57.8316C57.8316 182 57.8316 182 57.8316 182C57.8316 182 57.8316 182 57.8316 182H57.8316C57.8316 182 57.8316 182 57.8316 182C57.8316 182 57.8316 182 57.8316 182H57.8316C57.8316 182 57.8316 182 57.8316 182C57.8316 182 57.8316 182 57.8316 182H57.8316C57.8316 182 57.8316 182 57.8316 182C57.8316 182 57.8316 182 57.8316 182H57.8316C57.8316 182 57.8316 182 57.8316 182C57.8316 182 57.8316 182 57.8316 182H57.8316C57.8316 182 57.8316 182 57.8316 182C57.8316 182 57.8316 182 57.8316 182H57.8316C57.8316 182 57.8316 182 57.8316 182C57.8316 182 57.8316 182 57.8316 182H57.8316C57.8316 182 57.8316 182 57.8316 182C57.8316 182 57.8316 182 57.8316 182H57.8316C57.8316 182 57.8316 182 57.8316 182C57.8316 182 57.8316 182 57.8316 182H57.8316H57.8317C57.8317 182 57.8317 182 57.8317 182H57.8317H57.8317C57.8317 182 57.8317 182 57.8317 182H57.8317H57.8317C57.8317 182 57.8317 182 57.8317 182H57.8317H57.8317C57.8317 182 57.8317 182 57.8317 182C57.8317 182 57.8317 182 57.8317 182H57.8317C57.8317 182 57.8317 182 57.8317 182C57.8317 182 57.8317 182 57.8317 182H57.8317C57.8317 182 57.8317 182 57.8317 182C57.8317 182 57.8317 182 57.8317 182H57.8317C57.8317 182 57.8317 182 57.8317 182C57.8317 182 57.8317 182 57.8317 182H57.8317C57.8317 182 57.8317 182 57.8317 182C57.8317 182 57.8317 182 57.8317 182H57.8317C57.8317 182 57.8317 182 57.8317 182C57.8317 182 57.8317 182 57.8317 182H57.8317C57.8317 182 57.8317 182 57.8317 182C57.8317 182 57.8317 182 57.8317 182H57.8317C57.8317 182 57.8317 182 57.8317 182C57.8317 182 57.8317 182 57.8317 182H57.8317C57.8317 182 57.8317 182 57.8317 182C57.8317 182 57.8317 182 57.8317 182H57.8317H57.8317C57.8317 182 57.8317 182 57.8317 182H57.8318H57.8318C57.8318 182 57.8318 182 57.8318 182H57.8318H57.8318C57.8318 182 57.8318 182 57.8318 182H57.8318H57.8318C57.8318 182 57.8318 182 57.8318 182C57.8318 182 57.8318 182 57.8318 182H57.8318C57.8318 182 57.8318 182 57.8318 182C57.8318 182 57.8318 182 57.8318 182H57.8318C57.8318 182 57.8318 182 57.8318 182C57.8318 182 57.8318 182 57.8318 182H57.8318C57.8318 182 57.8318 182 57.8318 182C57.8318 182 57.8318 182 57.8318 182H57.8318C57.8318 182 57.8318 182 57.8318 182C57.8318 182 57.8318 182 57.8318 182H57.8318C57.8318 182 57.8318 182 57.8318 182C57.8318 182 57.8318 182 57.8318 182H57.8318C57.8318 182 57.8318 182 57.8318 182C57.8318 182 57.8318 182 57.8318 182H57.8318C57.8318 182 57.8318 182 57.8318 182C57.8318 182 57.8318 182 57.8318 182H57.8318C57.8318 182 57.8318 182 57.8318 182C57.8318 182 57.8318 182 57.8318 182H57.8318H57.8318C57.8318 182 57.8318 182 57.8318 182H57.8318H57.8318C57.8318 182 57.8318 182 57.8319 182H57.8319H57.8319C57.8319 182 57.8319 182 57.8319 182H57.8319H57.8319C57.8319 182 57.8319 182 57.8319 182C57.8319 182 57.8319 182 57.8319 182H57.8319C57.8319 182 57.8319 182 57.8319 182C57.8319 182 57.8319 182 57.8319 182H57.8319C57.8319 182 57.8319 182 57.8319 182C57.8319 182 57.8319 182 57.8319 182H57.8319C57.8319 182 57.8319 182 57.8319 182C57.8319 182 57.8319 182 57.8319 182H57.8319C57.8319 182 57.8319 182 57.8319 182C57.8319 182 57.8319 182 57.8319 182H57.8319C57.8319 182 57.8319 182 57.8319 182C57.8319 182 57.8319 182 57.8319 182H57.8319C57.8319 182 57.8319 182 57.8319 182C57.8319 182 57.8319 182 57.8319 182H57.8319C57.8319 182 57.8319 182 57.8319 182C57.8319 182 57.8319 182 57.8319 182H57.8319C57.8319 182 57.8319 182 57.8319 182C57.8319 182 57.8319 182 57.8319 182H57.8319H57.8319C57.8319 182 57.8319 182 57.8319 182H57.8319H57.8319C57.8319 182 57.8319 182 57.8319 182H57.8319H57.8319C57.8319 182 57.8319 182 57.832 182H57.832H57.832C57.832 182 57.832 182 57.832 182C57.832 182 57.832 182 57.832 182H57.832C57.832 182 57.832 182 57.832 182C57.832 182 57.832 182 57.832 182H57.832C57.832 182 57.832 182 57.832 182C57.832 182 57.832 182 57.832 182H57.832C57.832 182 57.832 182 57.832 182C57.832 182 57.832 182 57.832 182H57.832C57.832 182 57.832 182 57.832 182C57.832 182 57.832 182 57.832 182H57.832C57.832 182 57.832 182 57.832 182C57.832 182 57.832 182 57.832 182H57.832C57.832 182 57.832 182 57.832 182C57.832 182 57.832 182 57.832 182H57.832C57.832 182 57.832 182 57.832 182C57.832 182 57.832 182 57.832 182H57.832H57.832C57.832 182 57.832 182 57.832 182H57.832H57.832C57.832 182 57.832 182 57.832 182H57.832V180ZM57.8307 180C55.9097 180 53.3963 178.551 50.6186 175.459C47.886 172.418 45.0662 167.972 42.5204 162.424C37.4314 151.332 33.5 135.974 33.5 119H31.5C31.5 136.267 35.4955 151.909 40.7026 163.258C43.3049 168.929 46.2255 173.563 49.1309 176.796C51.9911 179.979 55.0133 182 57.8307 182V180ZM33.5 119C33.5 102.026 37.4314 86.6676 42.5204 75.5764C45.0662 70.028 47.886 65.5818 50.6186 62.5406C53.3963 59.4491 55.9097 58 57.8307 58V56C55.0133 56 51.9911 58.0207 49.1309 61.2039C46.2255 64.4374 43.3049 69.0709 40.7026 74.7423C35.4955 86.0908 31.5 101.733 31.5 119H33.5ZM57.8307 58H57.8307C57.8307 58 57.8307 58 57.8307 58H57.8307H57.8307C57.8307 58 57.8307 58 57.8308 58H57.8308H57.8308C57.8308 58 57.8308 58 57.8308 58C57.8308 58 57.8308 58 57.8308 58H57.8308C57.8308 58 57.8308 58 57.8308 58C57.8308 58 57.8308 58 57.8308 58H57.8308C57.8308 58 57.8308 58 57.8308 58C57.8308 58 57.8308 58 57.8308 58H57.8308C57.8308 58 57.8308 58 57.8308 58C57.8308 58 57.8308 58 57.8308 58H57.8308C57.8308 58 57.8308 58 57.8308 58C57.8308 58 57.8308 58 57.8308 58H57.8308C57.8308 58 57.8308 58 57.8308 58C57.8308 58 57.8308 58 57.8308 58H57.8308C57.8308 58 57.8308 58 57.8308 58C57.8308 58 57.8308 58 57.8308 58H57.8308C57.8308 58 57.8308 58 57.8308 58C57.8308 58 57.8308 58 57.8308 58H57.8308H57.8308C57.8308 58 57.8308 58 57.8308 58H57.8308H57.8308C57.8308 58 57.8308 58 57.8308 58H57.8308H57.8308C57.8308 58 57.8308 58 57.8308 58H57.8308H57.8308C57.8308 58 57.8308 58 57.8308 58C57.8308 58 57.8308 58 57.8308 58H57.8308C57.8309 58 57.8309 58 57.8309 58C57.8309 58 57.8309 58 57.8309 58H57.8309C57.8309 58 57.8309 58 57.8309 58C57.8309 58 57.8309 58 57.8309 58H57.8309C57.8309 58 57.8309 58 57.8309 58C57.8309 58 57.8309 58 57.8309 58H57.8309C57.8309 58 57.8309 58 57.8309 58C57.8309 58 57.8309 58 57.8309 58H57.8309C57.8309 58 57.8309 58 57.8309 58C57.8309 58 57.8309 58 57.8309 58H57.8309C57.8309 58 57.8309 58 57.8309 58C57.8309 58 57.8309 58 57.8309 58H57.8309C57.8309 58 57.8309 58 57.8309 58C57.8309 58 57.8309 58 57.8309 58H57.8309C57.8309 58 57.8309 58 57.8309 58C57.8309 58 57.8309 58 57.8309 58H57.8309H57.8309C57.8309 58 57.8309 58 57.8309 58H57.8309H57.8309C57.8309 58 57.8309 58 57.8309 58H57.8309H57.8309C57.8309 58 57.8309 58 57.8309 58H57.8309H57.8309C57.8309 58 57.8309 58 57.8309 58C57.8309 58 57.8309 58 57.8309 58H57.8309C57.8309 58 57.8309 58 57.8309 58C57.8309 58 57.8309 58 57.8309 58H57.8309C57.831 58 57.831 58 57.831 58C57.831 58 57.831 58 57.831 58H57.831C57.831 58 57.831 58 57.831 58C57.831 58 57.831 58 57.831 58H57.831C57.831 58 57.831 58 57.831 58C57.831 58 57.831 58 57.831 58H57.831C57.831 58 57.831 58 57.831 58C57.831 58 57.831 58 57.831 58H57.831C57.831 58 57.831 58 57.831 58C57.831 58 57.831 58 57.831 58H57.831C57.831 58 57.831 58 57.831 58C57.831 58 57.831 58 57.831 58H57.831C57.831 58 57.831 58 57.831 58C57.831 58 57.831 58 57.831 58H57.831H57.831C57.831 58 57.831 58 57.831 58H57.831H57.831C57.831 58 57.831 58 57.831 58H57.831H57.831C57.831 58 57.831 58 57.831 58H57.831H57.831C57.831 58 57.831 58 57.831 58C57.831 58 57.831 58 57.831 58H57.831C57.831 58 57.831 58 57.831 58C57.831 58 57.831 58 57.831 58H57.831C57.831 58 57.831 58 57.831 58C57.831 58 57.831 58 57.831 58H57.8311C57.8311 58 57.8311 58 57.8311 58C57.8311 58 57.8311 58 57.8311 58H57.8311C57.8311 58 57.8311 58 57.8311 58C57.8311 58 57.8311 58 57.8311 58H57.8311C57.8311 58 57.8311 58 57.8311 58C57.8311 58 57.8311 58 57.8311 58H57.8311C57.8311 58 57.8311 58 57.8311 58C57.8311 58 57.8311 58 57.8311 58H57.8311C57.8311 58 57.8311 58 57.8311 58C57.8311 58 57.8311 58 57.8311 58H57.8311C57.8311 58 57.8311 58 57.8311 58C57.8311 58 57.8311 58 57.8311 58H57.8311H57.8311C57.8311 58 57.8311 58 57.8311 58H57.8311H57.8311C57.8311 58 57.8311 58 57.8311 58H57.8311H57.8311C57.8311 58 57.8311 58 57.8311 58H57.8311H57.8311C57.8311 58 57.8311 58 57.8311 58C57.8311 58 57.8311 58 57.8311 58H57.8311C57.8311 58 57.8311 58 57.8311 58C57.8311 58 57.8311 58 57.8311 58H57.8311C57.8311 58 57.8311 58 57.8311 58C57.8311 58 57.8311 58 57.8311 58H57.8311C57.8311 58 57.8311 58 57.8311 58C57.8311 58 57.8311 58 57.8312 58H57.8312C57.8312 58 57.8312 58 57.8312 58C57.8312 58 57.8312 58 57.8312 58H57.8312C57.8312 58 57.8312 58 57.8312 58C57.8312 58 57.8312 58 57.8312 58H57.8312C57.8312 58 57.8312 58 57.8312 58C57.8312 58 57.8312 58 57.8312 58H57.8312C57.8312 58 57.8312 58 57.8312 58C57.8312 58 57.8312 58 57.8312 58H57.8312C57.8312 58 57.8312 58 57.8312 58C57.8312 58 57.8312 58 57.8312 58H57.8312H57.8312C57.8312 58 57.8312 58 57.8312 58H57.8312H57.8312C57.8312 58 57.8312 58 57.8312 58H57.8312H57.8312C57.8312 58 57.8312 58 57.8312 58H57.8312H57.8312C57.8312 58 57.8312 58 57.8312 58C57.8312 58 57.8312 58 57.8312 58H57.8312C57.8312 58 57.8312 58 57.8312 58C57.8312 58 57.8312 58 57.8312 58H57.8312C57.8312 58 57.8312 58 57.8312 58C57.8312 58 57.8312 58 57.8312 58H57.8312C57.8312 58 57.8312 58 57.8312 58C57.8312 58 57.8312 58 57.8312 58H57.8312C57.8312 58 57.8312 58 57.8312 58C57.8312 58 57.8312 58 57.8313 58H57.8313C57.8313 58 57.8313 58 57.8313 58C57.8313 58 57.8313 58 57.8313 58H57.8313C57.8313 58 57.8313 58 57.8313 58C57.8313 58 57.8313 58 57.8313 58H57.8313C57.8313 58 57.8313 58 57.8313 58C57.8313 58 57.8313 58 57.8313 58H57.8313H57.8313C57.8313 58 57.8313 58 57.8313 58H57.8313H57.8313C57.8313 58 57.8313 58 57.8313 58H57.8313H57.8313C57.8313 58 57.8313 58 57.8313 58H57.8313H57.8313C57.8313 58 57.8313 58 57.8313 58H57.8313H57.8313C57.8313 58 57.8313 58 57.8313 58C57.8313 58 57.8313 58 57.8313 58H57.8313C57.8313 58 57.8313 58 57.8313 58C57.8313 58 57.8313 58 57.8313 58H57.8313C57.8313 58 57.8313 58 57.8313 58C57.8313 58 57.8313 58 57.8313 58H57.8313C57.8313 58 57.8313 58 57.8313 58C57.8313 58 57.8313 58 57.8313 58H57.8313C57.8313 58 57.8313 58 57.8313 58C57.8313 58 57.8313 58 57.8313 58H57.8313C57.8313 58 57.8313 58 57.8313 58C57.8314 58 57.8314 58 57.8314 58H57.8314C57.8314 58 57.8314 58 57.8314 58C57.8314 58 57.8314 58 57.8314 58H57.8314C57.8314 58 57.8314 58 57.8314 58C57.8314 58 57.8314 58 57.8314 58H57.8314H57.8314C57.8314 58 57.8314 58 57.8314 58H57.8314H57.8314C57.8314 58 57.8314 58 57.8314 58H57.8314H57.8314C57.8314 58 57.8314 58 57.8314 58H57.8314H57.8314C57.8314 58 57.8314 58 57.8314 58H57.8314H57.8314C57.8314 58 57.8314 58 57.8314 58C57.8314 58 57.8314 58 57.8314 58H57.8314C57.8314 58 57.8314 58 57.8314 58C57.8314 58 57.8314 58 57.8314 58H57.8314C57.8314 58 57.8314 58 57.8314 58C57.8314 58 57.8314 58 57.8314 58H57.8314C57.8314 58 57.8314 58 57.8314 58C57.8314 58 57.8314 58 57.8314 58H57.8314C57.8314 58 57.8314 58 57.8314 58C57.8314 58 57.8314 58 57.8314 58H57.8314C57.8314 58 57.8314 58 57.8314 58C57.8314 58 57.8314 58 57.8314 58H57.8314C57.8314 58 57.8314 58 57.8314 58C57.8315 58 57.8315 58 57.8315 58H57.8315C57.8315 58 57.8315 58 57.8315 58C57.8315 58 57.8315 58 57.8315 58H57.8315H57.8315C57.8315 58 57.8315 58 57.8315 58H57.8315H57.8315C57.8315 58 57.8315 58 57.8315 58H57.8315H57.8315C57.8315 58 57.8315 58 57.8315 58H57.8315H57.8315C57.8315 58 57.8315 58 57.8315 58H57.8315H57.8315C57.8315 58 57.8315 58 57.8315 58C57.8315 58 57.8315 58 57.8315 58H57.8315C57.8315 58 57.8315 58 57.8315 58C57.8315 58 57.8315 58 57.8315 58H57.8315C57.8315 58 57.8315 58 57.8315 58C57.8315 58 57.8315 58 57.8315 58H57.8315C57.8315 58 57.8315 58 57.8315 58C57.8315 58 57.8315 58 57.8315 58H57.8315C57.8315 58 57.8315 58 57.8315 58C57.8315 58 57.8315 58 57.8315 58H57.8315C57.8315 58 57.8315 58 57.8315 58C57.8315 58 57.8315 58 57.8315 58H57.8315C57.8315 58 57.8315 58 57.8315 58C57.8315 58 57.8315 58 57.8315 58H57.8315C57.8316 58 57.8316 58 57.8316 58C57.8316 58 57.8316 58 57.8316 58H57.8316H57.8316C57.8316 58 57.8316 58 57.8316 58H57.8316H57.8316C57.8316 58 57.8316 58 57.8316 58H57.8316H57.8316C57.8316 58 57.8316 58 57.8316 58H57.8316H57.8316C57.8316 58 57.8316 58 57.8316 58C57.8316 58 57.8316 58 57.8316 58H57.8316C57.8316 58 57.8316 58 57.8316 58C57.8316 58 57.8316 58 57.8316 58H57.8316C57.8316 58 57.8316 58 57.8316 58C57.8316 58 57.8316 58 57.8316 58H57.8316C57.8316 58 57.8316 58 57.8316 58C57.8316 58 57.8316 58 57.8316 58H57.8316C57.8316 58 57.8316 58 57.8316 58C57.8316 58 57.8316 58 57.8316 58H57.8316C57.8316 58 57.8316 58 57.8316 58C57.8316 58 57.8316 58 57.8316 58H57.8316C57.8316 58 57.8316 58 57.8316 58C57.8316 58 57.8316 58 57.8316 58H57.8316C57.8316 58 57.8316 58 57.8316 58C57.8316 58 57.8316 58 57.8316 58H57.8316C57.8316 58 57.8316 58 57.8316 58C57.8316 58 57.8316 58 57.8316 58H57.8316H57.8317C57.8317 58 57.8317 58 57.8317 58H57.8317H57.8317C57.8317 58 57.8317 58 57.8317 58H57.8317H57.8317C57.8317 58 57.8317 58 57.8317 58H57.8317H57.8317C57.8317 58 57.8317 58 57.8317 58C57.8317 58 57.8317 58 57.8317 58H57.8317C57.8317 58 57.8317 58 57.8317 58C57.8317 58 57.8317 58 57.8317 58H57.8317C57.8317 58 57.8317 58 57.8317 58C57.8317 58 57.8317 58 57.8317 58H57.8317C57.8317 58 57.8317 58 57.8317 58C57.8317 58 57.8317 58 57.8317 58H57.8317C57.8317 58 57.8317 58 57.8317 58C57.8317 58 57.8317 58 57.8317 58H57.8317C57.8317 58 57.8317 58 57.8317 58C57.8317 58 57.8317 58 57.8317 58H57.8317C57.8317 58 57.8317 58 57.8317 58C57.8317 58 57.8317 58 57.8317 58H57.8317C57.8317 58 57.8317 58 57.8317 58C57.8317 58 57.8317 58 57.8317 58H57.8317C57.8317 58 57.8317 58 57.8317 58C57.8317 58 57.8317 58 57.8317 58H57.8317H57.8317C57.8317 58 57.8317 58 57.8317 58H57.8318H57.8318C57.8318 58 57.8318 58 57.8318 58H57.8318H57.8318C57.8318 58 57.8318 58 57.8318 58H57.8318H57.8318C57.8318 58 57.8318 58 57.8318 58C57.8318 58 57.8318 58 57.8318 58H57.8318C57.8318 58 57.8318 58 57.8318 58C57.8318 58 57.8318 58 57.8318 58H57.8318C57.8318 58 57.8318 58 57.8318 58C57.8318 58 57.8318 58 57.8318 58H57.8318C57.8318 58 57.8318 58 57.8318 58C57.8318 58 57.8318 58 57.8318 58H57.8318C57.8318 58 57.8318 58 57.8318 58C57.8318 58 57.8318 58 57.8318 58H57.8318C57.8318 58 57.8318 58 57.8318 58C57.8318 58 57.8318 58 57.8318 58H57.8318C57.8318 58 57.8318 58 57.8318 58C57.8318 58 57.8318 58 57.8318 58H57.8318C57.8318 58 57.8318 58 57.8318 58C57.8318 58 57.8318 58 57.8318 58H57.8318C57.8318 58 57.8318 58 57.8318 58C57.8318 58 57.8318 58 57.8318 58H57.8318H57.8318C57.8318 58 57.8318 58 57.8318 58H57.8318H57.8318C57.8318 58 57.8318 58 57.8319 58H57.8319H57.8319C57.8319 58 57.8319 58 57.8319 58H57.8319H57.8319C57.8319 58 57.8319 58 57.8319 58C57.8319 58 57.8319 58 57.8319 58H57.8319C57.8319 58 57.8319 58 57.8319 58C57.8319 58 57.8319 58 57.8319 58H57.8319C57.8319 58 57.8319 58 57.8319 58C57.8319 58 57.8319 58 57.8319 58H57.8319C57.8319 58 57.8319 58 57.8319 58C57.8319 58 57.8319 58 57.8319 58H57.8319C57.8319 58 57.8319 58 57.8319 58C57.8319 58 57.8319 58 57.8319 58H57.8319C57.8319 58 57.8319 58 57.8319 58C57.8319 58 57.8319 58 57.8319 58H57.8319C57.8319 58 57.8319 58 57.8319 58C57.8319 58 57.8319 58 57.8319 58H57.8319C57.8319 58 57.8319 58 57.8319 58C57.8319 58 57.8319 58 57.8319 58H57.8319C57.8319 58 57.8319 58 57.8319 58C57.8319 58 57.8319 58 57.8319 58H57.8319H57.8319C57.8319 58 57.8319 58 57.8319 58H57.8319H57.8319C57.8319 58 57.8319 58 57.8319 58H57.8319H57.8319C57.8319 58 57.8319 58 57.832 58H57.832H57.832C57.832 58 57.832 58 57.832 58C57.832 58 57.832 58 57.832 58H57.832C57.832 58 57.832 58 57.832 58C57.832 58 57.832 58 57.832 58H57.832C57.832 58 57.832 58 57.832 58C57.832 58 57.832 58 57.832 58H57.832C57.832 58 57.832 58 57.832 58C57.832 58 57.832 58 57.832 58H57.832C57.832 58 57.832 58 57.832 58C57.832 58 57.832 58 57.832 58H57.832C57.832 58 57.832 58 57.832 58C57.832 58 57.832 58 57.832 58H57.832C57.832 58 57.832 58 57.832 58C57.832 58 57.832 58 57.832 58H57.832C57.832 58 57.832 58 57.832 58C57.832 58 57.832 58 57.832 58H57.832H57.832C57.832 58 57.832 58 57.832 58H57.832H57.832C57.832 58 57.832 58 57.832 58H57.832V56H57.832C57.832 56 57.832 56 57.832 56H57.832H57.832C57.832 56 57.832 56 57.832 56H57.832H57.832C57.832 56 57.832 56 57.832 56C57.832 56 57.832 56 57.832 56H57.832C57.832 56 57.832 56 57.832 56C57.832 56 57.832 56 57.832 56H57.832C57.832 56 57.832 56 57.832 56C57.832 56 57.832 56 57.832 56H57.832C57.832 56 57.832 56 57.832 56C57.832 56 57.832 56 57.832 56H57.832C57.832 56 57.832 56 57.832 56C57.832 56 57.832 56 57.832 56H57.832C57.832 56 57.832 56 57.832 56C57.832 56 57.832 56 57.832 56H57.832C57.832 56 57.832 56 57.832 56C57.832 56 57.832 56 57.832 56H57.832C57.832 56 57.832 56 57.832 56C57.832 56 57.832 56 57.832 56H57.832H57.832C57.8319 56 57.8319 56 57.8319 56H57.8319H57.8319C57.8319 56 57.8319 56 57.8319 56H57.8319H57.8319C57.8319 56 57.8319 56 57.8319 56H57.8319H57.8319C57.8319 56 57.8319 56 57.8319 56C57.8319 56 57.8319 56 57.8319 56H57.8319C57.8319 56 57.8319 56 57.8319 56C57.8319 56 57.8319 56 57.8319 56H57.8319C57.8319 56 57.8319 56 57.8319 56C57.8319 56 57.8319 56 57.8319 56H57.8319C57.8319 56 57.8319 56 57.8319 56C57.8319 56 57.8319 56 57.8319 56H57.8319C57.8319 56 57.8319 56 57.8319 56C57.8319 56 57.8319 56 57.8319 56H57.8319C57.8319 56 57.8319 56 57.8319 56C57.8319 56 57.8319 56 57.8319 56H57.8319C57.8319 56 57.8319 56 57.8319 56C57.8319 56 57.8319 56 57.8319 56H57.8319C57.8319 56 57.8319 56 57.8319 56C57.8319 56 57.8319 56 57.8319 56H57.8319C57.8319 56 57.8319 56 57.8319 56C57.8319 56 57.8319 56 57.8319 56H57.8319H57.8319C57.8319 56 57.8319 56 57.8319 56H57.8319H57.8319C57.8318 56 57.8318 56 57.8318 56H57.8318H57.8318C57.8318 56 57.8318 56 57.8318 56H57.8318H57.8318C57.8318 56 57.8318 56 57.8318 56C57.8318 56 57.8318 56 57.8318 56H57.8318C57.8318 56 57.8318 56 57.8318 56C57.8318 56 57.8318 56 57.8318 56H57.8318C57.8318 56 57.8318 56 57.8318 56C57.8318 56 57.8318 56 57.8318 56H57.8318C57.8318 56 57.8318 56 57.8318 56C57.8318 56 57.8318 56 57.8318 56H57.8318C57.8318 56 57.8318 56 57.8318 56C57.8318 56 57.8318 56 57.8318 56H57.8318C57.8318 56 57.8318 56 57.8318 56C57.8318 56 57.8318 56 57.8318 56H57.8318C57.8318 56 57.8318 56 57.8318 56C57.8318 56 57.8318 56 57.8318 56H57.8318C57.8318 56 57.8318 56 57.8318 56C57.8318 56 57.8318 56 57.8318 56H57.8318C57.8318 56 57.8318 56 57.8318 56C57.8318 56 57.8318 56 57.8318 56H57.8318H57.8318C57.8318 56 57.8318 56 57.8318 56H57.8318H57.8318C57.8318 56 57.8318 56 57.8318 56H57.8318H57.8317C57.8317 56 57.8317 56 57.8317 56H57.8317H57.8317C57.8317 56 57.8317 56 57.8317 56C57.8317 56 57.8317 56 57.8317 56H57.8317C57.8317 56 57.8317 56 57.8317 56C57.8317 56 57.8317 56 57.8317 56H57.8317C57.8317 56 57.8317 56 57.8317 56C57.8317 56 57.8317 56 57.8317 56H57.8317C57.8317 56 57.8317 56 57.8317 56C57.8317 56 57.8317 56 57.8317 56H57.8317C57.8317 56 57.8317 56 57.8317 56C57.8317 56 57.8317 56 57.8317 56H57.8317C57.8317 56 57.8317 56 57.8317 56C57.8317 56 57.8317 56 57.8317 56H57.8317C57.8317 56 57.8317 56 57.8317 56C57.8317 56 57.8317 56 57.8317 56H57.8317C57.8317 56 57.8317 56 57.8317 56C57.8317 56 57.8317 56 57.8317 56H57.8317C57.8317 56 57.8317 56 57.8317 56C57.8317 56 57.8317 56 57.8317 56H57.8317H57.8317C57.8317 56 57.8317 56 57.8317 56H57.8317H57.8317C57.8317 56 57.8317 56 57.8317 56H57.8317H57.8317C57.8317 56 57.8317 56 57.8317 56H57.8316H57.8316C57.8316 56 57.8316 56 57.8316 56C57.8316 56 57.8316 56 57.8316 56H57.8316C57.8316 56 57.8316 56 57.8316 56C57.8316 56 57.8316 56 57.8316 56H57.8316C57.8316 56 57.8316 56 57.8316 56C57.8316 56 57.8316 56 57.8316 56H57.8316C57.8316 56 57.8316 56 57.8316 56C57.8316 56 57.8316 56 57.8316 56H57.8316C57.8316 56 57.8316 56 57.8316 56C57.8316 56 57.8316 56 57.8316 56H57.8316C57.8316 56 57.8316 56 57.8316 56C57.8316 56 57.8316 56 57.8316 56H57.8316C57.8316 56 57.8316 56 57.8316 56C57.8316 56 57.8316 56 57.8316 56H57.8316C57.8316 56 57.8316 56 57.8316 56C57.8316 56 57.8316 56 57.8316 56H57.8316C57.8316 56 57.8316 56 57.8316 56C57.8316 56 57.8316 56 57.8316 56H57.8316H57.8316C57.8316 56 57.8316 56 57.8316 56H57.8316H57.8316C57.8316 56 57.8316 56 57.8316 56H57.8316H57.8316C57.8316 56 57.8316 56 57.8316 56H57.8316H57.8316C57.8316 56 57.8316 56 57.8316 56C57.8316 56 57.8316 56 57.8315 56H57.8315C57.8315 56 57.8315 56 57.8315 56C57.8315 56 57.8315 56 57.8315 56H57.8315C57.8315 56 57.8315 56 57.8315 56C57.8315 56 57.8315 56 57.8315 56H57.8315C57.8315 56 57.8315 56 57.8315 56C57.8315 56 57.8315 56 57.8315 56H57.8315C57.8315 56 57.8315 56 57.8315 56C57.8315 56 57.8315 56 57.8315 56H57.8315C57.8315 56 57.8315 56 57.8315 56C57.8315 56 57.8315 56 57.8315 56H57.8315C57.8315 56 57.8315 56 57.8315 56C57.8315 56 57.8315 56 57.8315 56H57.8315C57.8315 56 57.8315 56 57.8315 56C57.8315 56 57.8315 56 57.8315 56H57.8315H57.8315C57.8315 56 57.8315 56 57.8315 56H57.8315H57.8315C57.8315 56 57.8315 56 57.8315 56H57.8315H57.8315C57.8315 56 57.8315 56 57.8315 56H57.8315H57.8315C57.8315 56 57.8315 56 57.8315 56H57.8315H57.8315C57.8315 56 57.8315 56 57.8315 56C57.8315 56 57.8315 56 57.8315 56H57.8315C57.8315 56 57.8315 56 57.8314 56C57.8314 56 57.8314 56 57.8314 56H57.8314C57.8314 56 57.8314 56 57.8314 56C57.8314 56 57.8314 56 57.8314 56H57.8314C57.8314 56 57.8314 56 57.8314 56C57.8314 56 57.8314 56 57.8314 56H57.8314C57.8314 56 57.8314 56 57.8314 56C57.8314 56 57.8314 56 57.8314 56H57.8314C57.8314 56 57.8314 56 57.8314 56C57.8314 56 57.8314 56 57.8314 56H57.8314C57.8314 56 57.8314 56 57.8314 56C57.8314 56 57.8314 56 57.8314 56H57.8314C57.8314 56 57.8314 56 57.8314 56C57.8314 56 57.8314 56 57.8314 56H57.8314H57.8314C57.8314 56 57.8314 56 57.8314 56H57.8314H57.8314C57.8314 56 57.8314 56 57.8314 56H57.8314H57.8314C57.8314 56 57.8314 56 57.8314 56H57.8314H57.8314C57.8314 56 57.8314 56 57.8314 56H57.8314H57.8314C57.8314 56 57.8314 56 57.8314 56C57.8314 56 57.8314 56 57.8314 56H57.8314C57.8314 56 57.8314 56 57.8314 56C57.8314 56 57.8314 56 57.8314 56H57.8314C57.8314 56 57.8314 56 57.8313 56C57.8313 56 57.8313 56 57.8313 56H57.8313C57.8313 56 57.8313 56 57.8313 56C57.8313 56 57.8313 56 57.8313 56H57.8313C57.8313 56 57.8313 56 57.8313 56C57.8313 56 57.8313 56 57.8313 56H57.8313C57.8313 56 57.8313 56 57.8313 56C57.8313 56 57.8313 56 57.8313 56H57.8313C57.8313 56 57.8313 56 57.8313 56C57.8313 56 57.8313 56 57.8313 56H57.8313C57.8313 56 57.8313 56 57.8313 56C57.8313 56 57.8313 56 57.8313 56H57.8313H57.8313C57.8313 56 57.8313 56 57.8313 56H57.8313H57.8313C57.8313 56 57.8313 56 57.8313 56H57.8313H57.8313C57.8313 56 57.8313 56 57.8313 56H57.8313H57.8313C57.8313 56 57.8313 56 57.8313 56H57.8313H57.8313C57.8313 56 57.8313 56 57.8313 56C57.8313 56 57.8313 56 57.8313 56H57.8313C57.8313 56 57.8313 56 57.8313 56C57.8313 56 57.8313 56 57.8313 56H57.8313C57.8313 56 57.8313 56 57.8313 56C57.8313 56 57.8313 56 57.8313 56H57.8313C57.8312 56 57.8312 56 57.8312 56C57.8312 56 57.8312 56 57.8312 56H57.8312C57.8312 56 57.8312 56 57.8312 56C57.8312 56 57.8312 56 57.8312 56H57.8312C57.8312 56 57.8312 56 57.8312 56C57.8312 56 57.8312 56 57.8312 56H57.8312C57.8312 56 57.8312 56 57.8312 56C57.8312 56 57.8312 56 57.8312 56H57.8312C57.8312 56 57.8312 56 57.8312 56C57.8312 56 57.8312 56 57.8312 56H57.8312H57.8312C57.8312 56 57.8312 56 57.8312 56H57.8312H57.8312C57.8312 56 57.8312 56 57.8312 56H57.8312H57.8312C57.8312 56 57.8312 56 57.8312 56H57.8312H57.8312C57.8312 56 57.8312 56 57.8312 56C57.8312 56 57.8312 56 57.8312 56H57.8312C57.8312 56 57.8312 56 57.8312 56C57.8312 56 57.8312 56 57.8312 56H57.8312C57.8312 56 57.8312 56 57.8312 56C57.8312 56 57.8312 56 57.8312 56H57.8312C57.8312 56 57.8312 56 57.8312 56C57.8312 56 57.8312 56 57.8312 56H57.8312C57.8312 56 57.8312 56 57.8312 56C57.8312 56 57.8312 56 57.8312 56H57.8312C57.8311 56 57.8311 56 57.8311 56C57.8311 56 57.8311 56 57.8311 56H57.8311C57.8311 56 57.8311 56 57.8311 56C57.8311 56 57.8311 56 57.8311 56H57.8311C57.8311 56 57.8311 56 57.8311 56C57.8311 56 57.8311 56 57.8311 56H57.8311C57.8311 56 57.8311 56 57.8311 56C57.8311 56 57.8311 56 57.8311 56H57.8311H57.8311C57.8311 56 57.8311 56 57.8311 56H57.8311H57.8311C57.8311 56 57.8311 56 57.8311 56H57.8311H57.8311C57.8311 56 57.8311 56 57.8311 56H57.8311H57.8311C57.8311 56 57.8311 56 57.8311 56C57.8311 56 57.8311 56 57.8311 56H57.8311C57.8311 56 57.8311 56 57.8311 56C57.8311 56 57.8311 56 57.8311 56H57.8311C57.8311 56 57.8311 56 57.8311 56C57.8311 56 57.8311 56 57.8311 56H57.8311C57.8311 56 57.8311 56 57.8311 56C57.8311 56 57.8311 56 57.8311 56H57.8311C57.8311 56 57.8311 56 57.8311 56C57.8311 56 57.8311 56 57.8311 56H57.8311C57.8311 56 57.8311 56 57.8311 56C57.8311 56 57.8311 56 57.8311 56H57.831C57.831 56 57.831 56 57.831 56C57.831 56 57.831 56 57.831 56H57.831C57.831 56 57.831 56 57.831 56C57.831 56 57.831 56 57.831 56H57.831C57.831 56 57.831 56 57.831 56C57.831 56 57.831 56 57.831 56H57.831H57.831C57.831 56 57.831 56 57.831 56H57.831H57.831C57.831 56 57.831 56 57.831 56H57.831H57.831C57.831 56 57.831 56 57.831 56H57.831H57.831C57.831 56 57.831 56 57.831 56C57.831 56 57.831 56 57.831 56H57.831C57.831 56 57.831 56 57.831 56C57.831 56 57.831 56 57.831 56H57.831C57.831 56 57.831 56 57.831 56C57.831 56 57.831 56 57.831 56H57.831C57.831 56 57.831 56 57.831 56C57.831 56 57.831 56 57.831 56H57.831C57.831 56 57.831 56 57.831 56C57.831 56 57.831 56 57.831 56H57.831C57.831 56 57.831 56 57.831 56C57.831 56 57.831 56 57.831 56H57.831C57.831 56 57.831 56 57.831 56C57.831 56 57.831 56 57.8309 56H57.8309C57.8309 56 57.8309 56 57.8309 56C57.8309 56 57.8309 56 57.8309 56H57.8309C57.8309 56 57.8309 56 57.8309 56C57.8309 56 57.8309 56 57.8309 56H57.8309H57.8309C57.8309 56 57.8309 56 57.8309 56H57.8309H57.8309C57.8309 56 57.8309 56 57.8309 56H57.8309H57.8309C57.8309 56 57.8309 56 57.8309 56H57.8309H57.8309C57.8309 56 57.8309 56 57.8309 56C57.8309 56 57.8309 56 57.8309 56H57.8309C57.8309 56 57.8309 56 57.8309 56C57.8309 56 57.8309 56 57.8309 56H57.8309C57.8309 56 57.8309 56 57.8309 56C57.8309 56 57.8309 56 57.8309 56H57.8309C57.8309 56 57.8309 56 57.8309 56C57.8309 56 57.8309 56 57.8309 56H57.8309C57.8309 56 57.8309 56 57.8309 56C57.8309 56 57.8309 56 57.8309 56H57.8309C57.8309 56 57.8309 56 57.8309 56C57.8309 56 57.8309 56 57.8309 56H57.8309C57.8309 56 57.8309 56 57.8309 56C57.8309 56 57.8309 56 57.8309 56H57.8309C57.8309 56 57.8309 56 57.8309 56C57.8309 56 57.8309 56 57.8308 56H57.8308C57.8308 56 57.8308 56 57.8308 56C57.8308 56 57.8308 56 57.8308 56H57.8308H57.8308C57.8308 56 57.8308 56 57.8308 56H57.8308H57.8308C57.8308 56 57.8308 56 57.8308 56H57.8308H57.8308C57.8308 56 57.8308 56 57.8308 56H57.8308H57.8308C57.8308 56 57.8308 56 57.8308 56C57.8308 56 57.8308 56 57.8308 56H57.8308C57.8308 56 57.8308 56 57.8308 56C57.8308 56 57.8308 56 57.8308 56H57.8308C57.8308 56 57.8308 56 57.8308 56C57.8308 56 57.8308 56 57.8308 56H57.8308C57.8308 56 57.8308 56 57.8308 56C57.8308 56 57.8308 56 57.8308 56H57.8308C57.8308 56 57.8308 56 57.8308 56C57.8308 56 57.8308 56 57.8308 56H57.8308C57.8308 56 57.8308 56 57.8308 56C57.8308 56 57.8308 56 57.8308 56H57.8308C57.8308 56 57.8308 56 57.8308 56C57.8308 56 57.8308 56 57.8308 56H57.8308C57.8308 56 57.8308 56 57.8308 56C57.8308 56 57.8308 56 57.8308 56H57.8308H57.8308C57.8307 56 57.8307 56 57.8307 56H57.8307H57.8307C57.8307 56 57.8307 56 57.8307 56H57.8307V58ZM217.167 56H57.832V58H217.167V56ZM217.171 56H217.167V58H217.171V56ZM243.498 119C243.498 101.735 239.503 86.0943 234.297 74.7462C231.695 69.0749 228.775 64.4413 225.87 61.2072C223.01 58.0234 219.988 56.0019 217.171 56L217.17 58C219.091 58.0013 221.605 59.4516 224.382 62.5437C227.115 65.5855 229.934 70.0319 232.479 75.5802C237.568 86.6711 241.498 102.027 241.498 119H243.498ZM217.171 182C219.988 181.998 223.01 179.977 225.87 176.793C228.775 173.559 231.695 168.925 234.297 163.254C239.503 151.906 243.498 136.265 243.498 119H241.498C241.498 135.973 237.568 151.329 232.479 162.42C229.934 167.968 227.115 172.414 224.382 175.456C221.605 178.548 219.091 179.999 217.17 180L217.171 182ZM217.167 182H217.171V180H217.167V182ZM57.832 182H217.167V180H57.832V182Z" fill="#A78BFA" mask="url(#path-15-inside-1_5873_68024)" />
	<path d="M57.8289 180.184C53.3161 180.184 48.0234 152.561 48.0234 119C48.0234 85.4383 53.3161 57.8154 57.8289 57.8154" stroke="#A78BFA" />
	<path d="M217.171 180.184C212.658 180.184 209 152.38 209 118.592C209 84.8036 212.658 57.8154 217.171 57.8154" stroke="#A78BFA" />
	<line x1="50.5" y1="180.5" x2="8.5" y2="180.5" stroke="#A78BFA" />
	<line x1="28.5" y1="122.5" x2="8.5" y2="122.5" stroke="#A78BFA" />
	<path d="M13.1464 179.354C13.3417 179.549 13.6583 179.549 13.8536 179.354L17.0355 176.172C17.2308 175.976 17.2308 175.66 17.0355 175.464C16.8403 175.269 16.5237 175.269 16.3284 175.464L13.5 178.293L10.6716 175.464C10.4763 175.269 10.1597 175.269 9.96447 175.464C9.7692 175.66 9.7692 175.976 9.96447 176.172L13.1464 179.354ZM13.8536 123.646C13.6583 123.451 13.3417 123.451 13.1464 123.646L9.96447 126.828C9.76921 127.024 9.76921 127.34 9.96447 127.536C10.1597 127.731 10.4763 127.731 10.6716 127.536L13.5 124.707L16.3284 127.536C16.5237 127.731 16.8403 127.731 17.0355 127.536C17.2308 127.34 17.2308 127.024 17.0355 126.828L13.8536 123.646ZM14 179L14 124L13 124L13 179L14 179Z" fill="#A78BFA" />
	<path d="M21.3352 148.455V149.307H17.8068V148.455H21.3352ZM18.8636 155V147.551C18.8636 147.176 18.9517 146.864 19.1278 146.614C19.304 146.364 19.5327 146.176 19.8139 146.051C20.0952 145.926 20.392 145.864 20.7045 145.864C20.9517 145.864 21.1534 145.884 21.3097 145.923C21.4659 145.963 21.5824 146 21.6591 146.034L21.3693 146.903C21.3182 146.886 21.2472 146.865 21.1562 146.839C21.0682 146.814 20.9517 146.801 20.8068 146.801C20.4744 146.801 20.2344 146.885 20.0866 147.053C19.9418 147.22 19.8693 147.466 19.8693 147.79V155H18.8636Z" fill="#7C3AED" />
</svg>