<svg width="272" height="140" viewBox="0 0 272 140" fill="none" class="tab tab--active" data-tab="0" xmlns="http://www.w3.org/2000/svg">
	<mask id="mask0_5859_68519" style="mask-type:alpha" maskUnits="userSpaceOnUse" x="55" y="40" width="160" height="80">
		<path fill-rule="evenodd" clip-rule="evenodd" d="M95 120C72.9086 120 55 102.091 55 80C55 57.9086 72.9086 40 95 40H175C185.609 40 195.783 44.2143 203.284 51.7157C210.786 59.2172 215 69.3913 215 80C215 90.6087 210.786 100.783 203.284 108.284C195.783 115.786 185.609 120 175 120H95Z" fill="#66CBFF" />
	</mask>
	<g mask="url(#mask0_5859_68519)">
		<rect x="55" y="80" width="160" height="40" fill="#F5F3FF" />
	</g>
	<mask id="path-3-inside-1_5859_68519" fill="white">
		<path fill-rule="evenodd" clip-rule="evenodd" d="M95 120C72.9086 120 55 102.091 55 80C55 57.9086 72.9086 40 95 40H175C185.609 40 195.783 44.2143 203.284 51.7157C210.786 59.2172 215 69.3913 215 80C215 90.6087 210.786 100.783 203.284 108.284C195.783 115.786 185.609 120 175 120H95Z" />
	</mask>
	<path d="M175 40V39V40ZM203.284 51.7157L202.577 52.4228V52.4228L203.284 51.7157ZM203.284 108.284L203.991 108.991L203.284 108.284ZM54 80C54 102.644 72.3563 121 95 121V119C73.4609 119 56 101.539 56 80H54ZM95 39C72.3563 39 54 57.3563 54 80H56C56 58.4609 73.4609 41 95 41V39ZM95 41H175V39H95V41ZM175 41C185.343 41 195.263 45.1089 202.577 52.4228L203.991 51.0086C196.302 43.3196 185.874 39 175 39V41ZM202.577 52.4228C209.891 59.7368 214 69.6566 214 80H216C216 69.1261 211.68 58.6976 203.991 51.0086L202.577 52.4228ZM214 80C214 90.3434 209.891 100.263 202.577 107.577L203.991 108.991C211.68 101.302 216 90.8739 216 80H214ZM202.577 107.577C195.263 114.891 185.343 119 175 119V121C185.874 121 196.302 116.68 203.991 108.991L202.577 107.577ZM175 119H95V121H175V119Z" fill="#A78BFA" mask="url(#path-3-inside-1_5859_68519)" />
	<circle cx="95" cy="80" r="39.5" stroke="#A78BFA" />
	<line x1="94.5" y1="36" x2="94.5" y2="16" stroke="#A78BFA" />
	<line x1="75" y1="120.5" x2="35" y2="120.5" stroke="#A78BFA" />
	<line x1="235" y1="120.5" x2="195" y2="120.5" stroke="#A78BFA" />
	<line x1="177.5" y1="36" x2="177.5" y2="16" stroke="#A78BFA" />
	<line x1="75" y1="40.5" x2="35" y2="40.5" stroke="#A78BFA" />
	<line x1="235" y1="80.5" x2="219" y2="80.5" stroke="#A78BFA" />
	<path d="M95.6464 20.6464C95.4512 20.8417 95.4512 21.1583 95.6464 21.3536L98.8284 24.5355C99.0237 24.7308 99.3403 24.7308 99.5355 24.5355C99.7308 24.3403 99.7308 24.0237 99.5355 23.8284L96.7071 21L99.5355 18.1716C99.7308 17.9763 99.7308 17.6597 99.5355 17.4645C99.3403 17.2692 99.0237 17.2692 98.8284 17.4645L95.6464 20.6464ZM176.354 21.3536C176.549 21.1583 176.549 20.8417 176.354 20.6464L173.172 17.4645C172.976 17.2692 172.66 17.2692 172.464 17.4645C172.269 17.6597 172.269 17.9763 172.464 18.1716L175.293 21L172.464 23.8284C172.269 24.0237 172.269 24.3403 172.464 24.5355C172.66 24.7308 172.976 24.7308 173.172 24.5355L176.354 21.3536ZM96 21.5H176V20.5H96V21.5Z" fill="#A78BFA" />
	<path d="M39.6464 119.354C39.8417 119.549 40.1583 119.549 40.3536 119.354L43.5355 116.172C43.7308 115.976 43.7308 115.66 43.5355 115.464C43.3403 115.269 43.0237 115.269 42.8284 115.464L40 118.293L37.1716 115.464C36.9763 115.269 36.6597 115.269 36.4645 115.464C36.2692 115.66 36.2692 115.976 36.4645 116.172L39.6464 119.354ZM40.3536 41.6464C40.1583 41.4512 39.8417 41.4512 39.6464 41.6464L36.4645 44.8284C36.2692 45.0237 36.2692 45.3403 36.4645 45.5355C36.6597 45.7308 36.9763 45.7308 37.1716 45.5355L40 42.7071L42.8284 45.5355C43.0237 45.7308 43.3403 45.7308 43.5355 45.5355C43.7308 45.3403 43.7308 45.0237 43.5355 44.8284L40.3536 41.6464ZM40.5 119L40.5 42L39.5 42L39.5 119L40.5 119Z" fill="#A78BFA" />
	<path d="M230.646 119.354C230.842 119.549 231.158 119.549 231.354 119.354L234.536 116.172C234.731 115.976 234.731 115.66 234.536 115.464C234.34 115.269 234.024 115.269 233.828 115.464L231 118.293L228.172 115.464C227.976 115.269 227.66 115.269 227.464 115.464C227.269 115.66 227.269 115.976 227.464 116.172L230.646 119.354ZM231.354 81.6464C231.158 81.4512 230.842 81.4512 230.646 81.6464L227.464 84.8284C227.269 85.0237 227.269 85.3403 227.464 85.5355C227.66 85.7308 227.976 85.7308 228.172 85.5355L231 82.7071L233.828 85.5355C234.024 85.7308 234.34 85.7308 234.536 85.5355C234.731 85.3403 234.731 85.0237 234.536 84.8284L231.354 81.6464ZM231.5 119L231.5 82L230.5 82L230.5 119L231.5 119Z" fill="#A78BFA" />
	<path d="M30.392 84.1364C29.8466 84.1364 29.3651 83.9986 28.9474 83.723C28.5298 83.4446 28.2031 83.0526 27.9673 82.5469C27.7315 82.0384 27.6136 81.4375 27.6136 80.7443C27.6136 80.0568 27.7315 79.4602 27.9673 78.9545C28.2031 78.4489 28.5313 78.0582 28.9517 77.7827C29.3722 77.5071 29.858 77.3693 30.4091 77.3693C30.8352 77.3693 31.1719 77.4403 31.419 77.5824C31.669 77.7216 31.8594 77.8807 31.9901 78.0597C32.1236 78.2358 32.2273 78.3807 32.3011 78.4943H32.3864V75.2727H33.392V84H32.4205V82.9943H32.3011C32.2273 83.1136 32.1222 83.2642 31.9858 83.446C31.8494 83.625 31.6548 83.7855 31.402 83.9276C31.1491 84.0668 30.8125 84.1364 30.392 84.1364ZM30.5284 83.233C30.9318 83.233 31.2727 83.1278 31.5511 82.9176C31.8295 82.7045 32.0412 82.4105 32.1861 82.0355C32.331 81.6577 32.4034 81.2216 32.4034 80.7273C32.4034 80.2386 32.3324 79.8111 32.1903 79.4446C32.0483 79.0753 31.8381 78.7884 31.5597 78.5838C31.2813 78.3764 30.9375 78.2727 30.5284 78.2727C30.1023 78.2727 29.7472 78.3821 29.4631 78.6009C29.1818 78.8168 28.9702 79.1108 28.8281 79.483C28.6889 79.8523 28.6193 80.267 28.6193 80.7273C28.6193 81.1932 28.6903 81.6165 28.8324 81.9972C28.9773 82.375 29.1903 82.6761 29.4716 82.9006C29.7557 83.1222 30.108 83.233 30.5284 83.233Z" fill="#7C3AED" />
	<path d="M138.926 3.27273V12H137.92V3.27273H138.926Z" fill="#7C3AED" />
	<path d="M243.835 98.4545V99.3068H240.307V98.4545H243.835ZM241.364 105V97.5511C241.364 97.1761 241.452 96.8636 241.628 96.6136C241.804 96.3636 242.033 96.1761 242.314 96.0511C242.595 95.9261 242.892 95.8636 243.205 95.8636C243.452 95.8636 243.653 95.8835 243.81 95.9233C243.966 95.9631 244.082 96 244.159 96.0341L243.869 96.9034C243.818 96.8864 243.747 96.8651 243.656 96.8395C243.568 96.8139 243.452 96.8011 243.307 96.8011C242.974 96.8011 242.734 96.8849 242.587 97.0526C242.442 97.2202 242.369 97.4659 242.369 97.7898V105H241.364Z" fill="#7C3AED" />
</svg>