<svg xmlns="http://www.w3.org/2000/svg" xmlns:xlink="http://www.w3.org/1999/xlink" viewBox="0 0 1920 1080"><defs><style>.cls-1,.cls-21,.cls-23,.cls-60,.cls-61,.cls-62,.cls-63{fill:none;}.cls-2{isolation:isolate;}.cls-3{clip-path:url(#clip-path);}.cls-4{fill:#39baf9;}.cls-5{fill:#4180e2;}.cls-59,.cls-6,.cls-64{fill:#e8f6ff;}.cls-7{fill:#bee6ff;}.cls-8{fill:#f1f2f2;}.cls-9{fill:#d2cec1;}.cls-10{fill:#bfbfbf;}.cls-11{fill:#a1a3a4;}.cls-12{fill:#eb435b;}.cls-13{fill:#8c96ab;}.cls-14,.cls-22{fill:#1f398e;}.cls-15{fill:#577a8e;opacity:0.5;mix-blend-mode:multiply;}.cls-16{fill:#f6c01c;}.cls-17{fill:#fff6bf;}.cls-18{fill:#ffe590;}.cls-19{fill:#606263;}.cls-20{fill:#4a4c4e;}.cls-21,.cls-23{stroke:#1f398e;}.cls-21,.cls-23,.cls-61,.cls-62,.cls-63{stroke-linecap:round;stroke-linejoin:round;}.cls-21{stroke-width:4.64px;}.cls-22{font-size:52.49px;font-family:OpenSans-SemiBold, Open Sans;font-weight:600;}.cls-23{stroke-width:4.31px;}.cls-24{opacity:0.3;}.cls-25{fill:#eba298;}.cls-26{fill:#778489;}.cls-27{fill:#abbec5;}.cls-28{clip-path:url(#clip-path-2);}.cls-29{fill:#738085;}.cls-30{fill:#78858a;}.cls-31{fill:#7c8a8f;}.cls-32{fill:#818f94;}.cls-33{fill:#859499;}.cls-34{fill:#8a999e;}.cls-35{fill:#8e9da3;}.cls-36{fill:#93a2a8;}.cls-37{fill:#97a7ad;}.cls-38{fill:#9bacb3;}.cls-39{fill:#a0b1b8;}.cls-40{clip-path:url(#clip-path-3);}.cls-41{fill:#376a80;}.cls-42{fill:#396e85;}.cls-43{fill:#3b7189;}.cls-44{fill:#3d758d;}.cls-45{fill:#3f7992;}.cls-46{fill:#417c96;}.cls-47{fill:#43809b;}.cls-48{fill:#44849f;}.cls-49{fill:#35667c;}.cls-50{fill:#336377;}.cls-51{fill:#315f73;}.cls-52{fill:#336277;}.cls-53{fill:#8979cc;}.cls-54{fill:#498dab;}.cls-55{fill:#383534;}.cls-56{fill:#cccecc;}.cls-57{fill:#eaeaea;}.cls-58{fill:#424141;}.cls-59{font-size:51.71px;font-family:OpenSans-Bold, Open Sans;}.cls-59,.cls-64{font-weight:700;}.cls-60,.cls-61,.cls-62,.cls-63{stroke:#e8f6ff;}.cls-60{stroke-miterlimit:10;stroke-width:3px;}.cls-61,.cls-62,.cls-63{stroke-width:2px;}.cls-62{stroke-dasharray:5.12 5.12;}.cls-63{stroke-dasharray:5;}.cls-64{font-size:28px;font-family:OpenSans-BoldItalic, Open Sans;font-style:italic;}</style><clipPath id="clip-path"><rect class="cls-1" width="1920" height="1080"/></clipPath><clipPath id="clip-path-2"><path id="SVGID" class="cls-1" d="M915.08,797.12a.73.73,0,0,0-.43.6v-1.45a.73.73,0,0,1,.42-.6c0,.48,0,1,0,1.45,0-.48,0-1,0-1.45a2.31,2.31,0,0,1,2.08,0c0,.48,0,1,0,1.45,0-.48,0-1,0-1.45a.75.75,0,0,1,.44.6v1.46a.74.74,0,0,0-.43-.61A2.31,2.31,0,0,0,915.08,797.12Z"/></clipPath><clipPath id="clip-path-3"><path id="SVGID-2" data-name="SVGID" class="cls-1" d="M917.59,796.26v1.45a.75.75,0,0,1-.42.61,2.31,2.31,0,0,1-2.08,0,.75.75,0,0,1-.44-.61v-1.45a.73.73,0,0,0,.44.6,2.31,2.31,0,0,0,2.08,0A.75.75,0,0,0,917.59,796.26Z"/></clipPath></defs><g class="cls-2"><g id="Tank_Volume" data-name="Tank Volume"><g class="cls-3"><rect class="cls-4" width="1920" height="1080"/><polygon class="cls-5" points="599.29 217.83 597.18 963.99 1246.6 1338.93 1248.71 592.78 599.29 217.83"/><polygon class="cls-6" points="1246.6 1338.93 1917.89 948.82 1920 202.67 1248.71 592.78 1246.6 1338.93"/><polygon class="cls-6" points="1248.71 592.78 1920 202.67 1270.58 -172.27 599.29 217.83 1248.71 592.78"/><polygon class="cls-7" points="720.06 250.9 1269.57 -68.44 1799.23 237.36 1249.72 556.7 720.06 250.9"/><polygon class="cls-7" points="1736.4 553.07 1861.67 480.26 1862.07 341.02 1736.8 413.82 1736.4 553.07"/><polygon class="cls-7" points="1744.36 539.63 1853.76 476.06 1854.11 354.45 1744.71 418.03 1744.36 539.63"/><polygon class="cls-8" points="1836.4 469.11 1836.69 364.57 1854.11 354.45 1853.76 476.06 1744.36 539.63 1744.41 522.57 1836.4 469.11"/><polygon class="cls-7" points="1736.4 780.11 1861.67 707.31 1862.07 568.07 1736.8 640.87 1736.4 780.11"/><polygon class="cls-7" points="1744.36 766.68 1853.76 703.1 1854.11 581.5 1744.71 645.08 1744.36 766.68"/><polygon class="cls-8" points="1836.4 696.16 1836.69 591.62 1854.11 581.5 1853.76 703.1 1744.36 766.68 1744.41 749.61 1836.4 696.16"/><polygon class="cls-7" points="1736.4 1007.16 1861.67 934.36 1862.07 795.12 1736.8 867.92 1736.4 1007.16"/><polygon class="cls-7" points="1744.36 993.73 1853.76 930.15 1854.11 808.55 1744.71 872.13 1744.36 993.73"/><polygon class="cls-8" points="1836.4 923.21 1836.69 818.67 1854.11 808.55 1853.76 930.15 1744.36 993.73 1744.41 976.66 1836.4 923.21"/><polygon class="cls-7" points="1534.1 670.28 1659.37 597.48 1659.77 458.23 1534.49 531.04 1534.1 670.28"/><polygon class="cls-7" points="1542.06 656.84 1651.46 593.27 1651.8 471.67 1542.4 535.25 1542.06 656.84"/><polygon class="cls-8" points="1634.09 586.32 1634.39 481.79 1651.8 471.67 1651.46 593.27 1542.06 656.84 1542.11 639.78 1634.09 586.32"/><polygon class="cls-7" points="1534.1 897.33 1659.37 824.53 1659.77 685.28 1534.49 758.08 1534.1 897.33"/><polygon class="cls-7" points="1542.06 883.89 1651.46 820.32 1651.8 698.72 1542.4 762.29 1542.06 883.89"/><polygon class="cls-8" points="1634.09 813.37 1634.39 708.84 1651.8 698.72 1651.46 820.32 1542.06 883.89 1542.11 866.83 1634.09 813.37"/><polygon class="cls-7" points="1534.1 1124.38 1659.37 1051.58 1659.77 912.33 1534.49 985.13 1534.1 1124.38"/><polygon class="cls-7" points="1542.06 1110.94 1651.46 1047.37 1651.8 925.77 1542.4 989.34 1542.06 1110.94"/><polygon class="cls-8" points="1634.09 1040.42 1634.39 935.88 1651.8 925.77 1651.46 1047.37 1542.06 1110.94 1542.11 1093.87 1634.09 1040.42"/><polygon class="cls-7" points="1302.27 804.74 1427.55 731.94 1427.94 592.69 1302.67 665.5 1302.27 804.74"/><polygon class="cls-7" points="1310.24 791.3 1419.64 727.73 1419.98 606.13 1310.58 669.71 1310.24 791.3"/><polygon class="cls-8" points="1402.27 720.78 1402.57 616.25 1419.98 606.13 1419.63 727.73 1310.24 791.3 1310.29 774.24 1402.27 720.78"/><polygon class="cls-7" points="1302.27 1031.79 1427.55 958.99 1427.94 819.74 1302.67 892.54 1302.27 1031.79"/><polygon class="cls-7" points="1310.24 1018.35 1419.64 954.78 1419.98 833.18 1310.58 896.75 1310.24 1018.35"/><polygon class="cls-8" points="1402.27 947.83 1402.57 843.3 1419.98 833.18 1419.63 954.78 1310.24 1018.35 1310.29 1001.29 1402.27 947.83"/><polygon class="cls-7" points="1302.27 1258.84 1427.55 1186.04 1427.94 1046.79 1302.67 1119.59 1302.27 1258.84"/><polygon class="cls-7" points="1310.24 1245.4 1419.64 1181.83 1419.98 1060.23 1310.58 1123.8 1310.24 1245.4"/><polygon class="cls-8" points="1402.27 1174.88 1402.57 1070.35 1419.98 1060.23 1419.63 1181.83 1310.24 1245.4 1310.29 1228.33 1402.27 1174.88"/><polygon class="cls-5" points="1859.19 202.52 1799.23 237.36 1269.57 -68.44 1269.57 -137.9 1859.19 202.52"/><polygon class="cls-5" points="1269.57 -137.9 1269.57 -68.44 720.06 250.9 660.1 216.28 1269.57 -137.9"/><polygon class="cls-6" points="-20.05 1556.57 651.24 1166.46 653.36 420.31 -17.93 810.42 -20.05 1556.57"/><polygon class="cls-9" points="-17.93 810.42 653.36 420.31 3.94 45.37 -667.35 435.48 -17.93 810.42"/><polygon class="cls-6" points="-546.58 468.55 2.93 149.2 532.59 455 -16.92 774.34 -546.58 468.55"/><polygon class="cls-7" points="469.76 770.71 595.03 697.91 595.43 558.66 470.15 631.46 469.76 770.71"/><polygon class="cls-7" points="477.72 757.27 587.12 693.7 587.46 572.1 478.06 635.67 477.72 757.27"/><polygon class="cls-8" points="569.75 686.75 570.05 582.22 587.46 572.1 587.12 693.7 477.72 757.27 477.77 740.21 569.75 686.75"/><polygon class="cls-7" points="469.76 997.76 595.03 924.96 595.43 785.71 470.15 858.51 469.76 997.76"/><polygon class="cls-7" points="477.72 984.32 587.12 920.75 587.46 799.15 478.06 862.72 477.72 984.32"/><polygon class="cls-8" points="569.75 913.8 570.05 809.27 587.46 799.15 587.12 920.75 477.72 984.32 477.77 967.25 569.75 913.8"/><polygon class="cls-7" points="469.76 1224.81 595.03 1152 595.43 1012.76 470.15 1085.56 469.76 1224.81"/><polygon class="cls-7" points="477.72 1211.37 587.12 1147.79 587.46 1026.19 478.06 1089.77 477.72 1211.37"/><polygon class="cls-8" points="569.75 1140.85 570.05 1036.31 587.46 1026.19 587.12 1147.79 477.72 1211.37 477.77 1194.3 569.75 1140.85"/><polygon class="cls-7" points="267.45 887.92 392.73 815.12 393.12 675.88 267.85 748.68 267.45 887.92"/><polygon class="cls-7" points="275.42 874.49 384.82 810.91 385.16 689.31 275.76 752.89 275.42 874.49"/><polygon class="cls-8" points="367.45 803.97 367.75 699.43 385.16 689.31 384.82 810.91 275.42 874.49 275.47 857.42 367.45 803.97"/><polygon class="cls-7" points="267.45 1114.97 392.73 1042.17 393.12 902.93 267.85 975.73 267.45 1114.97"/><polygon class="cls-7" points="275.42 1101.54 384.82 1037.96 385.16 916.36 275.76 979.94 275.42 1101.54"/><polygon class="cls-8" points="367.45 1031.01 367.75 926.48 385.16 916.36 384.82 1037.96 275.42 1101.54 275.47 1084.47 367.45 1031.01"/><polygon class="cls-7" points="35.63 1022.38 160.9 949.58 161.3 810.34 36.03 883.14 35.63 1022.38"/><polygon class="cls-7" points="43.59 1008.95 152.99 945.37 153.34 823.77 43.94 887.35 43.59 1008.95"/><polygon class="cls-8" points="135.63 938.43 135.93 833.89 153.34 823.77 152.99 945.37 43.59 1008.95 43.64 991.88 135.63 938.43"/><polygon class="cls-7" points="35.63 1249.43 160.9 1176.63 161.3 1037.38 36.03 1110.19 35.63 1249.43"/><polygon class="cls-7" points="43.59 1236 152.99 1172.42 153.34 1050.82 43.94 1114.4 43.59 1236"/><polygon class="cls-8" points="135.63 1165.48 135.93 1060.94 153.34 1050.82 152.99 1172.42 43.59 1236 43.64 1218.93 135.63 1165.48"/><polygon class="cls-10" points="592.55 420.16 532.59 455 2.93 149.2 2.93 79.74 592.55 420.16"/><polygon class="cls-11" points="2.93 79.74 2.93 149.2 -546.58 468.55 -606.54 433.93 2.93 79.74"/><polygon class="cls-6" points="-17.73 894.5 653.56 504.39 655.67 -241.76 -15.61 148.35 -17.73 894.5"/><polygon class="cls-6" points="-15.61 148.35 655.67 -241.76 6.25 -616.7 -665.03 -226.59 -15.61 148.35"/><polygon class="cls-7" points="-544.27 -193.53 5.25 -512.87 534.91 -207.07 -14.61 112.27 -544.27 -193.53"/><polygon class="cls-7" points="472.07 108.64 597.35 35.84 597.74 -103.41 472.47 -30.61 472.07 108.64"/><polygon class="cls-7" points="480.04 95.2 589.43 31.63 589.78 -89.97 480.38 -26.4 480.04 95.2"/><polygon class="cls-8" points="572.07 24.68 572.37 -79.86 589.78 -89.97 589.43 31.63 480.04 95.2 480.08 78.14 572.07 24.68"/><polygon class="cls-7" points="472.07 335.68 597.35 262.88 597.74 123.64 472.47 196.44 472.07 335.68"/><polygon class="cls-7" points="480.04 322.25 589.43 258.67 589.78 137.07 480.38 200.65 480.04 322.25"/><polygon class="cls-8" points="572.07 251.73 572.37 147.19 589.78 137.07 589.43 258.67 480.04 322.25 480.08 305.18 572.07 251.73"/><polygon class="cls-7" points="472.07 562.73 597.35 489.93 597.74 350.69 472.47 423.49 472.07 562.73"/><polygon class="cls-7" points="480.04 549.3 589.43 485.72 589.78 364.12 480.38 427.7 480.04 549.3"/><polygon class="cls-8" points="572.07 478.78 572.37 374.24 589.78 364.12 589.43 485.72 480.04 549.3 480.08 532.23 572.07 478.78"/><polygon class="cls-7" points="269.77 225.85 395.04 153.05 395.44 13.8 270.17 86.61 269.77 225.85"/><polygon class="cls-7" points="277.74 212.41 387.13 148.84 387.48 27.24 278.08 90.82 277.74 212.41"/><polygon class="cls-8" points="369.77 141.89 370.06 37.36 387.48 27.24 387.13 148.84 277.74 212.41 277.78 195.35 369.77 141.89"/><polygon class="cls-7" points="269.77 452.9 395.04 380.1 395.44 240.85 270.17 313.65 269.77 452.9"/><polygon class="cls-7" points="277.74 439.46 387.13 375.89 387.48 254.29 278.08 317.86 277.74 439.46"/><polygon class="cls-8" points="369.77 368.94 370.06 264.41 387.48 254.29 387.13 375.89 277.74 439.46 277.78 422.4 369.77 368.94"/><polygon class="cls-7" points="269.77 679.95 395.04 607.14 395.44 467.9 270.17 540.7 269.77 679.95"/><polygon class="cls-7" points="277.74 666.51 387.13 602.93 387.48 481.34 278.08 544.91 277.74 666.51"/><polygon class="cls-8" points="369.77 595.99 370.06 491.45 387.48 481.34 387.13 602.93 277.74 666.51 277.78 649.44 369.77 595.99"/><polygon class="cls-7" points="37.95 360.31 163.22 287.51 163.62 148.26 38.34 221.07 37.95 360.31"/><polygon class="cls-7" points="45.91 346.88 155.31 283.3 155.65 161.7 46.26 225.28 45.91 346.88"/><polygon class="cls-8" points="137.94 276.35 138.24 171.82 155.65 161.7 155.31 283.3 45.91 346.88 45.96 329.81 137.94 276.35"/><polygon class="cls-7" points="37.95 587.36 163.22 514.56 163.62 375.31 38.34 448.12 37.95 587.36"/><polygon class="cls-7" points="45.91 573.92 155.31 510.35 155.65 388.75 46.26 452.32 45.91 573.92"/><polygon class="cls-8" points="137.94 503.4 138.24 398.87 155.65 388.75 155.31 510.35 45.91 573.92 45.96 556.86 137.94 503.4"/><polygon class="cls-7" points="37.95 814.41 163.22 741.61 163.62 602.36 38.34 675.16 37.95 814.41"/><polygon class="cls-7" points="45.91 800.97 155.31 737.4 155.65 615.8 46.26 679.37 45.91 800.97"/><polygon class="cls-8" points="137.94 730.45 138.24 625.92 155.65 615.8 155.31 737.4 45.91 800.97 45.96 783.9 137.94 730.45"/><path class="cls-12" d="M1385.1,427.93a7.54,7.54,0,0,1-3.91-14l72.2-43.79a7.53,7.53,0,1,1,7.82,12.88L1389,426.84A7.5,7.5,0,0,1,1385.1,427.93Z"/><g class="cls-2"><polygon class="cls-5" points="1563.03 1680.57 1560.59 2540.57 423.96 1884.34 426.4 1024.34 1563.03 1680.57"/><polygon class="cls-13" points="2362.93 1215.72 1563.03 1680.57 426.4 1024.34 1226.3 559.49 2362.93 1215.72"/></g><g class="cls-2"><polygon class="cls-14" points="1571.34 1591.74 1570.84 1770.09 371.75 1077.8 372.25 899.44 1571.34 1591.74"/><polygon class="cls-6" points="2415.14 1101.37 1571.34 1591.74 372.25 899.45 1216.05 409.08 1450.36 544.36 1465.43 553.06 2415.14 1101.37"/><polygon class="cls-7" points="2317.29 1101.38 1571.34 1534.87 473.24 900.88 1219.19 467.38 2317.29 1101.38"/><polygon class="cls-5" points="1219.19 510.09 2280.42 1122.8 2317.29 1101.38 1219.19 467.38 473.25 900.88 510.11 922.16 1219.19 510.09"/></g><path class="cls-12" d="M1465.43,164.13V553.06l-15.07-8.7V177.17l-118.9,68.65a7.54,7.54,0,0,1-7.54-13l130.21-75.16a7.54,7.54,0,0,1,11.3,6.52Z"/><polygon class="cls-15" points="510.11 922.16 1007.38 633.09 1433.69 716.25 1214.47 955.86 990.7 1200.45 510.11 922.16"/><path class="cls-16" d="M1011.2,325.5V685.22c0,31.26,20.66,62.51,62,86.39s95.46,35.79,149.65,35.79,108.31-11.91,149.64-35.79,62-55.13,62-86.39V325.5Z"/><path class="cls-17" d="M1369.33,325.51l3.18,86.41V771.61c41.35-23.86,62-55.14,62-86.41V325.51Z"/><path class="cls-18" d="M1073.17,239.09c-41.33,23.86-62,55.13-62,86.41s20.66,62.55,62,86.41,95.5,35.79,149.67,35.79,108.34-11.93,149.67-35.79,62-55.14,62-86.41-20.67-62.55-62-86.41-95.5-35.8-149.67-35.8S1114.5,215.22,1073.17,239.09Z"/><path class="cls-18" d="M1011.2,653.47v31c9.45,23,29.55,44,58.85,60.87,40.89,23.62,95.14,36.6,152.8,36.6s111.9-13,152.79-36.6c29.3-16.89,49.4-37.87,58.86-60.87v-31c0,31.25-20.67,62.57-62,86.38s-95.46,35.79-149.64,35.79-108.32-11.91-149.65-35.79S1011.2,684.72,1011.2,653.47Z"/><path class="cls-18" d="M1004.9,653.47a80.43,80.43,0,0,0,6.3,31v-62A80.39,80.39,0,0,0,1004.9,653.47Z"/><path class="cls-18" d="M1434.5,622.47v62a79.42,79.42,0,0,0,0-62Z"/><path class="cls-18" d="M1011.2,580.46v31c9.45,23,29.55,44,58.85,60.87,40.89,23.62,95.14,36.6,152.8,36.6s111.9-13,152.79-36.6c29.3-16.89,49.4-37.87,58.86-60.87v-31c0,31.25-20.67,62.57-62,86.38s-95.46,35.79-149.64,35.79-108.32-11.91-149.65-35.79S1011.2,611.71,1011.2,580.46Z"/><path class="cls-18" d="M1004.9,580.46a80.43,80.43,0,0,0,6.3,31v-62A80.39,80.39,0,0,0,1004.9,580.46Z"/><path class="cls-18" d="M1434.5,549.46v62a79.42,79.42,0,0,0,0-62Z"/><path class="cls-18" d="M1011.2,507.45v31c9.45,23,29.55,44,58.85,60.86,40.89,23.63,95.14,36.61,152.8,36.61s111.9-13,152.79-36.61c29.3-16.88,49.4-37.86,58.86-60.86v-31c0,31.25-20.67,62.57-62,86.38s-95.46,35.79-149.64,35.79-108.32-11.91-149.65-35.79S1011.2,538.7,1011.2,507.45Z"/><path class="cls-18" d="M1004.9,507.45a80.43,80.43,0,0,0,6.3,31v-62A80.35,80.35,0,0,0,1004.9,507.45Z"/><path class="cls-18" d="M1434.5,476.45v62a79.42,79.42,0,0,0,0-62Z"/><path class="cls-18" d="M1011.2,434.44v31c9.45,23,29.55,44,58.85,60.86,40.89,23.63,95.14,36.61,152.8,36.61s111.9-13,152.79-36.61c29.3-16.88,49.4-37.86,58.86-60.86v-31c0,31.25-20.67,62.56-62,86.38s-95.46,35.79-149.64,35.79-108.32-11.91-149.65-35.79S1011.2,465.69,1011.2,434.44Z"/><path class="cls-18" d="M1004.9,434.44a80.43,80.43,0,0,0,6.3,31v-62A80.35,80.35,0,0,0,1004.9,434.44Z"/><path class="cls-18" d="M1434.5,403.44v62a79.42,79.42,0,0,0,0-62Z"/><path class="cls-18" d="M1011.2,361.43v31c9.45,23,29.55,44,58.85,60.86,40.89,23.63,95.14,36.61,152.8,36.61s111.9-13,152.79-36.61c29.3-16.88,49.4-37.86,58.86-60.86v-31c0,31.25-20.67,62.56-62,86.38S1277,483.6,1222.85,483.6s-108.32-11.91-149.65-35.79S1011.2,392.68,1011.2,361.43Z"/><path class="cls-18" d="M1004.9,361.43a80.43,80.43,0,0,0,6.3,31v-62A80.35,80.35,0,0,0,1004.9,361.43Z"/><path class="cls-18" d="M1434.5,330.43v62a79.42,79.42,0,0,0,0-62Z"/><polygon class="cls-19" points="1052.9 379.71 1117.05 342.5 1123.56 346.35 1061.05 384.41 1052.9 379.71"/><polygon class="cls-19" points="1089.19 400.75 1154.04 364.1 1160.85 367.65 1097.34 405.45 1089.19 400.75"/><polygon class="cls-20" points="1123.56 346.35 1123.56 348.42 1062.89 385.41 1062.89 747.17 1061.05 749.31 1061.05 384.41 1123.56 346.35"/><polygon class="cls-20" points="1160.85 367.65 1160.77 369.83 1099.29 406.42 1099.29 768.19 1097.44 770.33 1097.44 405.42 1160.85 367.65"/><polygon class="cls-19" points="1089.19 765.66 1097.34 770.36 1097.34 405.45 1089.19 400.75 1089.19 765.66"/><polygon class="cls-19" points="1052.9 744.61 1061.05 749.31 1061.05 384.41 1052.9 379.71 1052.9 744.61"/><polygon class="cls-19" points="1057.68 400.01 1093.2 420.62 1093.2 412.47 1057.68 391.87 1057.68 400.01"/><polygon class="cls-19" points="1057.68 426.19 1093.2 446.8 1093.2 438.65 1057.68 418.05 1057.68 426.19"/><polygon class="cls-19" points="1057.68 452.38 1093.2 472.98 1093.2 464.84 1057.68 444.24 1057.68 452.38"/><polygon class="cls-19" points="1057.68 478.56 1093.2 499.17 1093.2 491.02 1057.68 470.42 1057.68 478.56"/><polygon class="cls-19" points="1057.68 504.75 1093.2 525.35 1093.2 517.21 1057.68 496.61 1057.68 504.75"/><polygon class="cls-19" points="1057.68 530.93 1093.2 551.53 1093.2 543.39 1057.68 522.79 1057.68 530.93"/><polygon class="cls-19" points="1057.68 557.12 1093.2 577.72 1093.2 569.58 1057.68 548.98 1057.68 557.12"/><polygon class="cls-19" points="1057.68 583.3 1093.2 603.9 1093.2 595.76 1057.68 575.16 1057.68 583.3"/><polygon class="cls-19" points="1057.68 609.49 1093.2 630.09 1093.2 621.95 1057.68 601.35 1057.68 609.49"/><polygon class="cls-19" points="1057.68 635.67 1093.2 656.27 1093.2 648.13 1057.68 627.53 1057.68 635.67"/><polygon class="cls-19" points="1057.68 661.86 1093.2 682.46 1093.2 674.32 1057.68 653.72 1057.68 661.86"/><polygon class="cls-19" points="1057.68 688.04 1093.2 708.64 1093.2 700.5 1057.68 679.9 1057.68 688.04"/><polygon class="cls-19" points="1057.68 714.23 1093.2 734.83 1093.2 726.69 1057.68 706.08 1057.68 714.23"/><polygon class="cls-19" points="1057.68 740.41 1093.2 761.01 1093.2 752.87 1057.68 732.27 1057.68 740.41"/><path class="cls-16" d="M1090,246.86v63.49c0,19.63,13,39.26,38.93,54.24s59.95,22.48,93.93,22.48,68-7.51,94-22.48,38.9-34.61,38.9-54.24V246.86Z"/><path class="cls-17" d="M1314.79,246.86l2,54.24v63.49c26-15,38.9-34.61,38.9-54.24V246.86Z"/><path class="cls-18" d="M1128.89,192.61c-25.94,15-38.91,34.61-38.91,54.24s13,39.26,38.91,54.24,59.95,22.47,93.95,22.47,68-7.49,94-22.47,38.92-34.61,38.92-54.24-13-39.26-38.92-54.24-60-22.47-94-22.47S1154.84,177.63,1128.89,192.61Z"/><path class="cls-17" d="M1222.84,298.36c30.69,0,60.33-7,81.35-19.09,16.72-9.66,26.31-21.47,26.31-32.42s-9.59-22.76-26.31-32.41c-21-12.13-50.67-19.09-81.35-19.09s-60.33,7-81.35,19.09c-16.72,9.65-26.31,21.46-26.31,32.41s9.59,22.76,26.31,32.41C1162.51,291.4,1192.15,298.36,1222.84,298.36Z"/><line class="cls-21" x1="1423.72" y1="105.46" x2="1023.24" y2="105.46"/><polygon class="cls-14" points="1014.34 105.76 1046.94 118.48 1039.52 105.76 1046.94 93.03 1014.34 105.76"/><polygon class="cls-14" points="1434.11 105.76 1401.5 118.48 1408.92 105.76 1401.5 93.03 1434.11 105.76"/><line class="cls-21" x1="1011.2" y1="194.24" x2="1011.2" y2="96.59"/><line class="cls-21" x1="1436.14" y1="195.13" x2="1436.14" y2="96.59"/><line class="cls-21" x1="924.05" y1="411" x2="924.05" y2="692.28"/><polygon class="cls-14" points="924.34 710.3 937.07 677.7 924.34 685.12 911.62 677.7 924.34 710.3"/><polygon class="cls-14" points="924.34 400.61 937.07 433.22 924.34 425.8 911.62 433.22 924.34 400.61"/><line class="cls-21" x1="1012.82" y1="713.44" x2="915.17" y2="713.44"/><line class="cls-21" x1="1013.71" y1="398.58" x2="915.17" y2="398.58"/><text class="cls-22" transform="translate(1190.14 84.75)">d</text><line class="cls-23" x1="1584.9" y1="279.29" x2="1584.9" y2="702.99"/><polygon class="cls-14" points="1584.61 712.41 1571.88 677.91 1584.61 685.77 1597.33 677.91 1584.61 712.41"/><polygon class="cls-14" points="1584.61 268.3 1571.88 302.8 1584.61 294.95 1597.33 302.8 1584.61 268.3"/><line class="cls-23" x1="1433.69" y1="716.25" x2="1593.78" y2="716.25"/><line class="cls-23" x1="1468.31" y1="266.15" x2="1593.78" y2="266.15"/><text class="cls-22" transform="translate(1606.8 505.85)">h</text><text class="cls-22" transform="translate(880.01 567.7)">f</text><rect class="cls-14" x="262.43" y="143.94" width="557.72" height="540.04" rx="48.93"/><path class="cls-24" d="M846.36,924.88c-21.35,12.33-21.45,32.32-.24,44.65s55.74,12.34,77.09,0,21.48-32.32.26-44.65S867.73,912.54,846.36,924.88Z"/><path d="M858.89,940.25s.56-1.29,1.48-3c1.81-3.31,5-8.12,8.25-7.46,4.81,1,5.61,6.12,5.11,9.33s-3.21,5.82-4.21,8.12-5.82,10.43-9.93,9-5.11-5.42-3.31-10.53S858.89,940.25,858.89,940.25Z"/><path d="M858.09,934.84s5.81-3.61,7-4.62,5.6-1.86,6.71,1.33,1.51,6.6-.59,9.6-5.35,10.13-6.59,11.14-3.95,3.2-6.95,1.86c-2.61-1.16-1.93-2.16-2.27-5S858.09,934.84,858.09,934.84Z"/><path class="cls-14" d="M856.48,812.28s-4,10.23-4.21,19.86.2,45.53,0,49.94-3.81,26.68-1.8,33.1,4.92,28.68,4.92,28.68,6.58,4.42,9.25,0,1.27-19.05,2.88-24.67,1.6-14.64,1.6-18.25v-7.82s5.21-19.46,7-37.31S878.55,805.86,856.48,812.28Z"/><path d="M875.34,951.92s-2.79,9.25,0,11c7.22,4.61,15.2-.7,19,.3s14.89,1.3,17.29-1.1,4.74-6.55,2.94-10.27c-.91-1.86-12,1.24-14.37,0s-12-3.86-12-3.86Z"/><path d="M875.34,949.68s-2.79,9.25,0,11c7.22,4.61,15.2-.7,19,.3s14.89,1.31,17.29-1.1,4.21-7.62,2.41-8.63-11.43-.4-13.84-1.6-12-3.86-12-3.86Z"/><path class="cls-14" d="M862.86,821.91s-3.09,16.32,4.53,21.71c4.14,2.92,11.36,42.88,11.36,47.29s-6.62,21.26-6,31.29,1.13,28.88,1.13,28.88a10.38,10.38,0,0,0,10.9,1.41c6.22-2.81,6.22-6.67,6.22-6.67a59.38,59.38,0,0,1-1.4-9.38c0-3.21,7.62-28.48,7.82-34.5s2-10.23,2-15.44,5.41-37.51,4.21-49.15-8.83-24.87-8.83-24.87l-27.27,1.65Z"/><path class="cls-6" d="M852.66,747.72s-4.08-3.76-5.6-3.23c-11.56,4-18.26,37.07-15.45,47.41s21,19.55,21,19.55a21.61,21.61,0,0,0,6-11.2c1.2-6.82-8.83-12.61-8.83-12.61h-1l-.62-1.67-.36-3.16S857.29,757.52,852.66,747.72Z"/><path class="cls-6" d="M899.6,837.63c-.28,8.22-11.43,3.63-22.47,5.1s-17.57-11.07-19.66-13.53c-5.68-6.69-6.22-19.73-6.22-19.73s1.08-7.22,1.42-12.43-1.78-8.69-3.79-17.11c-.26-1.11-.58-2.44-.92-3.93-.52-2.28-1.1-4.92-1.62-7.71-.29-1.48-.55-3-.78-4.53-.11-.71-.21-1.43-.3-2.15-.94-7.28-1-14.27,1.79-17.12l.07-.08c.62-.64.33-.3,2.17-1.26.57-.3,1.34-.73,2.42-1.35.86-.5,3-.55,5.54-.39l.68.05c1.61.11,3.31.3,4.85.5,2.88.36,5.18.76,5.18.76a9.12,9.12,0,0,0,.2,1.49c.24,1.19.79,2.72,2,3.09,2.68.81,13.44,1.06,14.44,1.64.63.36,1.36.82,2.17,1.37a56,56,0,0,1,7,5.56,30.1,30.1,0,0,1,5.79,7.07c1.72,3.16,1.63,9.84,1,16.36-.57,5.77-1.58,11.42-2.16,14.39-.26,1.35-.43,2.15-.43,2.15s5.43,24.45,5.43,26.33S899.77,832.52,899.6,837.63Z"/><path class="cls-25" d="M868.52,736.66l-.4,7.35s4.89,4.26,9.87,5,8.44,1.07,8.44,1.07V737.87Z"/><path d="M890.58,729.44c0-.3,1.64-6.09,1.31-7.82a18.46,18.46,0,0,1-.21-3.91s-.29-8.28-8.22-10.22c-6.82-1.66-13.14-1.11-18.75,7-4.46,6.45-1.9,13.51-1.41,14.94,1.26,3.69,3.31,8,4.82,8.63s11.33,2.71,13.34,2a16.16,16.16,0,0,0,5-2.7C886.89,736.76,890.58,729.44,890.58,729.44Z"/><path class="cls-25" d="M891.68,717.71a6,6,0,0,1,.81,3.91,13.12,13.12,0,0,0-.36,3.41c0,1.4.66.6,0,2.81a36.28,36.28,0,0,0-1.51,7c-.1,1.6-4.11,4.32-5.11,4.77a16,16,0,0,1-4,.44l3.94-2.27s-1.07-.43-.53-2.54,1.08-3.71,2.14-3.81,1.06,1.3,1.06,1.3,2.61-5.71,2.91-6.92S891.68,717.71,891.68,717.71Z"/><path class="cls-14" d="M903.43,842.48c-.28,8.22-14,6.71-25.07,8.18s-22.11-13.44-24.2-15.9c-5.68-6.69-2.91-25.29-2.91-25.29s1.08-7.22,1.42-12.43-1.78-8.69-3.79-17.11c-.26-1.11-.58-2.44-.92-3.93-.52-2.28-1.1-4.92-1.62-7.71-.29-1.48-.55-3-.78-4.53a58,58,0,0,0,6.47,4.76c9.3,5.92,25.51,12.89,48.56,10.78-.57,5.77-1.58,11.42-2.16,14.39-.26,1.35-.43,2.15-.43,2.15s5.43,24.45,5.43,26.33S903.6,837.37,903.43,842.48Z"/><polygon class="cls-26" points="952.95 786.94 952.95 788.39 932.79 776.88 932.79 775.42 952.95 786.94"/><polygon class="cls-27" points="932.79 775.42 932.79 776.88 908.74 791 908.74 789.55 932.79 775.42"/><g class="cls-2"><g class="cls-28"><g class="cls-2"><path class="cls-29" d="M917.59,796.26v1.45a.74.74,0,0,0-.43-.6l-.22-.1v-1.45a1,1,0,0,1,.21.1.75.75,0,0,1,.44.6Z"/><path class="cls-30" d="M916.94,795.56V797l-.18-.06V795.5l.18.06Z"/><path class="cls-31" d="M916.76,795.5V797l-.15,0v-1.46l.15,0Z"/><path class="cls-32" d="M916.61,795.46v1.46l-.15,0v-1.45l.15,0Z"/><path class="cls-33" d="M916.46,795.44v1.45h-.14v-1.46l.14,0Z"/><path class="cls-34" d="M916.32,795.42v1.46h-.15v-1.46Z"/><path class="cls-35" d="M916.17,795.41v1.46H916v-1.45Z"/><path class="cls-36" d="M916,795.42v1.45h-.16v-1.45Z"/><path class="cls-37" d="M915.86,795.43v1.45l-.19,0v-1.45a.63.63,0,0,1,.19,0Z"/><path class="cls-38" d="M915.67,795.46v1.45l-.27.07v-1.45a1.28,1.28,0,0,1,.28-.07Z"/><path class="cls-39" d="M915.39,795.53V797a1.34,1.34,0,0,0-.32.14h0v-1.45h0a1.83,1.83,0,0,1,.32-.14Z"/><path class="cls-38" d="M915.06,795.68v1.45a1.56,1.56,0,0,0-.19.14v-1.45a.72.72,0,0,1,.19-.14Z"/><path class="cls-37" d="M914.87,795.82v1.45l-.09.1v-1.46l.09-.09Z"/><path class="cls-36" d="M914.78,795.91v1.46l-.06.09V796a.7.7,0,0,0,.06-.09Z"/><path class="cls-35" d="M914.72,796v1.46l0,.08v-1.45l0-.09Z"/><path class="cls-34" d="M914.68,796.09v1.45a.26.26,0,0,0,0,.08v-1.45a.19.19,0,0,1,0-.08Z"/><path class="cls-33" d="M914.66,796.17v1.45s0,.06,0,.09v-1.45s0-.06,0-.09Z"/><path class="cls-32" d="M914.65,796.26v1.45h0v-1.45Z"/></g></g></g><g class="cls-2"><g class="cls-40"><g class="cls-2"><path class="cls-41" d="M917.59,796.26v0Z"/><path class="cls-42" d="M917.59,796.28v1.45a.28.28,0,0,1,0,.09v-1.46a.22.22,0,0,0,0-.08Z"/><path class="cls-43" d="M917.58,796.36v1.46a.31.31,0,0,1,0,.08v-1.45s0-.06,0-.09Z"/><path class="cls-44" d="M917.56,796.45v1.45l0,.08v-1.45l0-.08Z"/><path class="cls-45" d="M917.52,796.53V798l-.06.09v-1.45l.06-.09Z"/><path class="cls-46" d="M917.46,796.62v1.45a.41.41,0,0,1-.09.1v-1.45l.09-.1Z"/><path class="cls-47" d="M917.37,796.72v1.45a1.41,1.41,0,0,1-.18.14v-1.46a1,1,0,0,0,.19-.13Z"/><path class="cls-48" d="M917.18,796.85v1.46s0,0,0,0l-.32.14V797a2.52,2.52,0,0,0,.33-.14v0Z"/><path class="cls-47" d="M916.84,797v1.45l-.28.07v-1.45l.27-.07Z"/><path class="cls-46" d="M916.57,797.08v1.45l-.19,0V797.1l.19,0Z"/><path class="cls-45" d="M916.38,797.1v1.46h-.16v-1.45l.16,0Z"/><path class="cls-44" d="M916.22,797.12v1.45h-.15v-1.45Z"/><path class="cls-43" d="M916.06,797.12v1.45h-.14v-1.45Z"/><path class="cls-42" d="M915.92,797.11v1.45h-.15V797.1Z"/><path class="cls-41" d="M915.78,797.1v1.45l-.15,0v-1.45l.15,0Z"/><path class="cls-49" d="M915.63,797.07v1.45l-.15,0V797l.15,0Z"/><path class="cls-50" d="M915.48,797v1.46l-.18-.06V797l.18.06Z"/><path class="cls-51" d="M915.3,797v1.46l-.21-.1a.75.75,0,0,1-.44-.61v-1.45a.73.73,0,0,0,.44.6.81.81,0,0,0,.21.1Z"/></g></g></g><polygon class="cls-52" points="928.9 801.06 928.9 802.51 908.74 791 908.74 789.55 928.9 801.06"/><path class="cls-53" d="M917.15,795.66a.64.64,0,0,1,0,1.21,2.31,2.31,0,0,1-2.08,0,.63.63,0,0,1,0-1.2A2.31,2.31,0,0,1,917.15,795.66Z"/><polygon class="cls-54" points="952.95 786.94 952.95 788.39 928.9 802.51 928.9 801.06 952.95 786.94"/><polygon class="cls-55" points="952.95 786.94 928.9 801.06 908.74 789.55 932.79 775.42 952.95 786.94"/><polygon class="cls-56" points="947.26 786.71 929.41 797.19 914.46 788.65 932.31 778.17 947.26 786.71"/><polygon class="cls-57" points="935.91 783.09 930.84 786.07 926.6 783.64 931.66 780.67 935.91 783.09"/><path class="cls-56" d="M955.74,787v0a.42.42,0,0,1-.07.13v0a.69.69,0,0,1-.11.13l-.11.08-.08.06L927,804.06v1.46l28.31-16.63h0l.06,0,.11-.08h0l.09-.09v0l0,0a.05.05,0,0,0,0,0,.2.2,0,0,0,0-.08h0a.13.13,0,0,0,0-.06.22.22,0,0,0,0-.08v-1.45h0A.68.68,0,0,1,955.74,787Z"/><path class="cls-57" d="M955.34,786.27a.62.62,0,0,1,0,1.17L927,804.06a2.21,2.21,0,0,1-2,0L903.85,792a.62.62,0,0,1,0-1.17l28.31-16.62a2.21,2.21,0,0,1,2,0ZM928.9,801.06,953,786.94l-20.16-11.52-24,14.13,20.16,11.51Zm-13.81-4.19a2.31,2.31,0,0,0,2.08,0,.64.64,0,0,0,0-1.21,2.31,2.31,0,0,0-2.08,0,.63.63,0,0,0,0,1.2Z"/><path class="cls-58" d="M927,804.06l-.28.13-.11,0-.14,0-.18,0h0l-.24,0h-.31l-.23,0,0,0-.19,0h0l-.22-.11L903.85,792a.71.71,0,0,1-.42-.58v1.45a.7.7,0,0,0,.43.58L925,805.52a1,1,0,0,0,.21.1h0l.12,0,.07,0h.08l.14,0h.64l.13,0h0l.14,0,.08,0,0,0a1.18,1.18,0,0,0,.28-.12Z"/><polygon class="cls-57" points="943.35 787.65 942.58 788.1 935.74 784.22 936.53 783.76 943.35 787.65"/><polygon class="cls-57" points="941.25 788.85 940.48 789.3 933.64 785.42 934.43 784.96 941.25 788.85"/><polygon class="cls-57" points="939.38 790.11 938.61 790.56 931.77 786.68 932.56 786.22 939.38 790.11"/><path class="cls-58" d="M917.15,795.81c.58.33.59.87,0,1.2a2.28,2.28,0,0,1-2.08,0c-.58-.33-.59-.87,0-1.2A2.28,2.28,0,0,1,917.15,795.81Z"/><path class="cls-25" d="M925.47,805.7l1.57-7.42,6.23-3.38s2,2.22-2,3.67l.52,2.26,4.14-.52,5.49-3.23s2.55,1.59-2,6.69S927,811.45,927,811.45Z"/><path class="cls-6" d="M887.37,784.4s8.36,24.32,11.23,27.05c7.83,7.42,28.29,2.37,29.69,0s3-7-3-9.8-13.4-1.44-13.4-1.44-4.65-34.06-12.27-38.67S883.56,765.15,887.37,784.4Z"/><path class="cls-14" d="M893.82,755.87c-16.67,6.39-18.51,23.63-18.58,24.42l-8-.72c.67-7.59,5.68-21.84,19.52-29.26A56,56,0,0,1,893.82,755.87Z"/><path class="cls-14" d="M868.16,744.21c-13.59,6.89-15.87,22.18-16.13,24.31,0,.15,0,.24,0,.25l-5.67-.48c-.29-1.48-.55-3-.78-4.53-.11-.71-.21-1.43-.3-2.15a40.8,40.8,0,0,1,12.67-20.15c1.61.11,3.31.3,4.85.5,2.88.36,5.18.76,5.18.76A9.12,9.12,0,0,0,868.16,744.21Z"/><path class="cls-14" d="M861.94,722.48s13.4,8.42,30.51-2.17c0,0,1.91-20.17-18-16.85C859.84,705.89,861.94,722.48,861.94,722.48Z"/><path class="cls-6" d="M866.64,742.5s1.36-3.15,1.78-2.85a8.93,8.93,0,0,0,5.21,3.71c3.8,1,12.18,1.29,13.22,2.8a27.3,27.3,0,0,1,2.22,5.62s-16.69-.67-19.6-3.58S866.64,742.5,866.64,742.5Z"/><path class="cls-14" d="M891.17,721.07s10.6-3.57,12.26-7.78-14.43-2.81-21.19-.13S891.17,721.07,891.17,721.07Z"/><path class="cls-6" d="M668.3,396.77H657.82l-.12,1.49c-.29,4-.49,8-.89,11.94a102.76,102.76,0,0,1-2.75,16.53,10.57,10.57,0,0,1-2.49,4.66,3.87,3.87,0,0,1-6.17-1.3,4.68,4.68,0,0,1,.47-4.25,24.1,24.1,0,0,1,1.71-2.51,19.56,19.56,0,0,0,3.65-8.75,85.1,85.1,0,0,0,1-9.14q.28-4,.59-8c0-.22,0-.44,0-.7-.63,0-1.25-.05-1.85,0a20.23,20.23,0,0,0-2.7.42,6.63,6.63,0,0,0-3.64,2.45c-.78,1-1.48,2.06-2.2,3.1a.55.55,0,0,1-.54.32c-.4,0-.8,0-1.26,0L641,402a22.21,22.21,0,0,1,3-6.71,24.54,24.54,0,0,1,2.47-2.83,7.21,7.21,0,0,1,4.65-2c1.34-.13,2.69-.23,4-.23q14,0,28.08,0h.41v6.53h-10c-.29,0-.42.05-.46.38-.37,3.35-.81,6.7-1.14,10.05a98.75,98.75,0,0,0-.53,10.46,10.63,10.63,0,0,0,.71,4,5.17,5.17,0,0,0,7.33,2.7,5,5,0,0,0,2.37-3.7c0-.19.06-.38.09-.6h1.62c-.11.72-.21,1.42-.34,2.12a17,17,0,0,1-2.09,6.08,8.47,8.47,0,0,1-5,3.95,6.51,6.51,0,0,1-7.13-2.58,10.17,10.17,0,0,1-1.77-4.3,46,46,0,0,1-.66-10.54c.13-4.61.68-9.19,1.14-13.77.13-1.36.33-2.7.5-4.05A1,1,0,0,0,668.3,396.77Z"/><text class="cls-59" transform="translate(554.26 429.09)">V = </text><text class="cls-59" transform="translate(694.18 428.82)">r</text><text class="cls-59" transform="translate(717.66 411.6) scale(0.58)">2</text><text class="cls-59" transform="translate(734.87 428.82)"><tspan xml:space="preserve"> h</tspan></text><polygon class="cls-14" points="761.67 655.64 841.31 712.05 815.87 640.15 761.67 655.64"/><path class="cls-5" d="M505.34,514.11a38.67,38.67,0,0,1,.77,7.7c0,29.92-34,54.17-76,54.17-40.69,0-73.91-22.82-75.87-51.49h-.6V449.43h1.13c4.77-25.49,36.68-45.2,75.34-45.2,42,0,76,23.21,76,51.83a35.53,35.53,0,0,1-.77,7.37Z"/><ellipse class="cls-60" cx="430.15" cy="317.55" rx="75.96" ry="44.55"/><path class="cls-60" d="M506.11,521.81c0,29.92-34,54.17-76,54.17s-76-24.25-76-54.17"/><line class="cls-60" x1="354.19" y1="317.55" x2="354.19" y2="525.26"/><line class="cls-60" x1="506.11" y1="317.55" x2="506.11" y2="521.81"/><ellipse class="cls-60" cx="430.15" cy="456.06" rx="75.96" ry="51.83"/><line class="cls-61" x1="353.94" y1="259.47" x2="356.44" y2="259.47"/><line class="cls-62" x1="361.56" y1="259.47" x2="502.41" y2="259.47"/><line class="cls-61" x1="504.97" y1="259.47" x2="507.47" y2="259.47"/><line class="cls-63" x1="320.74" y1="300.83" x2="320.74" y2="555.13"/><line class="cls-63" x1="521.94" y1="447.38" x2="521.94" y2="554.11"/><text class="cls-64" transform="translate(420.32 253.85)">d</text><text class="cls-64" transform="translate(293.68 441.85)">h</text><text class="cls-64" transform="translate(531.13 505.43)">f</text><polygon class="cls-15" points="1599.45 977.23 1416.06 1080.96 1920 1080 1920.91 977.23 1599.45 977.23"/><g id="Axonometric_Cube" data-name="Axonometric Cube"><polygon id="Cube_face_-_top" data-name="Cube face - top" class="cls-6" points="1599.45 914.94 1760.18 822.14 1920.91 914.94 1760.18 1007.74 1599.45 914.94"/><polygon id="Cube_face_-_left" data-name="Cube face - left" class="cls-7" points="1760.18 1070.03 1920.91 977.23 1920.91 914.94 1760.18 1007.74 1760.18 1070.03"/><polygon id="Cube_face_-_right" data-name="Cube face - right" class="cls-5" points="1599.45 977.23 1760.18 1070.03 1760.18 1007.74 1599.45 914.94 1599.45 977.23"/></g><path class="cls-14" d="M1694.38,876.94c-35.45,20.46-35.45,53.64,0,74.11s92.91,20.46,128.35,0,35.45-53.65,0-74.11S1729.82,856.47,1694.38,876.94Z"/><ellipse class="cls-5" cx="1758.56" cy="913.99" rx="75.29" ry="43.47"/><ellipse class="cls-6" cx="1758.56" cy="913.99" rx="20.67" ry="11.93"/></g></g></g></svg>