<svg width="272" height="240" viewBox="0 0 272 240" fill="none" class="tab" data-tab="2" xmlns="http://www.w3.org/2000/svg">
	<line x1="134.5" y1="190.5" x2="134.5" y2="170.5" stroke="#A78BFA" />
	<line x1="54.5" y1="190.5" x2="54.5" y2="170.5" stroke="#A78BFA" />
	<line x1="214.5" y1="150.5" x2="214.5" y2="130.5" stroke="#A78BFA" />
	<path d="M136.522 183.354C136.441 183.619 136.59 183.898 136.854 183.978L141.159 185.289C141.424 185.369 141.703 185.22 141.783 184.956C141.864 184.692 141.715 184.412 141.451 184.332L137.624 183.167L138.789 179.341C138.869 179.076 138.72 178.797 138.456 178.717C138.192 178.636 137.912 178.785 137.832 179.049L136.522 183.354ZM212.478 143.646C212.559 143.381 212.41 143.102 212.146 143.022L207.841 141.711C207.576 141.631 207.297 141.78 207.217 142.044C207.136 142.308 207.285 142.588 207.549 142.668L211.376 143.833L210.211 147.659C210.131 147.924 210.28 148.203 210.544 148.283C210.808 148.364 211.088 148.215 211.168 147.951L212.478 143.646ZM137.235 183.941L212.235 143.941L211.765 143.059L136.765 183.059L137.235 183.941Z" fill="#A78BFA" />
	<path d="M180.926 168.773V177.5H179.92V168.773H180.926Z" fill="#7C3AED" />
	<line x1="252" y1="122" x2="229" y2="122" stroke="#A78BFA" />
	<line x1="252" y1="42" x2="229" y2="42" stroke="#A78BFA" />
	<path d="M235.646 120.854C235.842 121.049 236.158 121.049 236.354 120.854L239.536 117.672C239.731 117.476 239.731 117.16 239.536 116.964C239.34 116.769 239.024 116.769 238.828 116.964L236 119.793L233.172 116.964C232.976 116.769 232.66 116.769 232.464 116.964C232.269 117.16 232.269 117.476 232.464 117.672L235.646 120.854ZM236.354 43.1464C236.158 42.9512 235.842 42.9512 235.646 43.1464L232.464 46.3284C232.269 46.5237 232.269 46.8403 232.464 47.0355C232.66 47.2308 232.976 47.2308 233.172 47.0355L236 44.2071L238.828 47.0355C239.024 47.2308 239.34 47.2308 239.536 47.0355C239.731 46.8403 239.731 46.5237 239.536 46.3284L236.354 43.1464ZM236.5 120.5L236.5 43.5L235.5 43.5L235.5 120.5L236.5 120.5Z" fill="#A78BFA" />
	<path d="M245.926 81.5625V85.5H244.92V76.7727H245.926V79.9773H246.011C246.165 79.6392 246.395 79.3707 246.702 79.1719C247.011 78.9702 247.423 78.8693 247.938 78.8693C248.384 78.8693 248.774 78.9588 249.109 79.1378C249.445 79.3139 249.705 79.5852 249.889 79.9517C250.077 80.3153 250.17 80.7784 250.17 81.3409V85.5H249.165V81.4091C249.165 80.8892 249.03 80.4872 248.76 80.2031C248.493 79.9162 248.122 79.7727 247.648 79.7727C247.318 79.7727 247.023 79.8423 246.761 79.9815C246.503 80.1207 246.298 80.3239 246.148 80.5909C246 80.858 245.926 81.1818 245.926 81.5625Z" fill="#7C3AED" />
	<line x1="47" y1="162" x2="20" y2="162" stroke="#A78BFA" />
	<line x1="47" y1="122" x2="20" y2="122" stroke="#A78BFA" />
	<path d="M34.6464 160.854C34.8417 161.049 35.1583 161.049 35.3536 160.854L38.5355 157.672C38.7308 157.476 38.7308 157.16 38.5355 156.964C38.3403 156.769 38.0237 156.769 37.8284 156.964L35 159.793L32.1716 156.964C31.9763 156.769 31.6597 156.769 31.4645 156.964C31.2692 157.16 31.2692 157.476 31.4645 157.672L34.6464 160.854ZM35.3536 123.146C35.1583 122.951 34.8417 122.951 34.6464 123.146L31.4645 126.328C31.2692 126.524 31.2692 126.84 31.4645 127.036C31.6597 127.231 31.9763 127.231 32.1716 127.036L35 124.207L37.8284 127.036C38.0237 127.231 38.3403 127.231 38.5355 127.036C38.7308 126.84 38.7308 126.524 38.5355 126.328L35.3536 123.146ZM35.5 160.5L35.5 123.5L34.5 123.5L34.5 160.5L35.5 160.5Z" fill="#A78BFA" />
	<path d="M56.6464 183.146C56.4512 183.342 56.4512 183.658 56.6464 183.854L59.8284 187.036C60.0237 187.231 60.3403 187.231 60.5355 187.036C60.7308 186.84 60.7308 186.524 60.5355 186.328L57.7071 183.5L60.5355 180.672C60.7308 180.476 60.7308 180.16 60.5355 179.964C60.3403 179.769 60.0237 179.769 59.8284 179.964L56.6464 183.146ZM132.354 183.854C132.549 183.658 132.549 183.342 132.354 183.146L129.172 179.964C128.976 179.769 128.66 179.769 128.464 179.964C128.269 180.16 128.269 180.476 128.464 180.672L131.293 183.5L128.464 186.328C128.269 186.524 128.269 186.84 128.464 187.036C128.66 187.231 128.976 187.231 129.172 187.036L132.354 183.854ZM57 184L132 184L132 183L57 183L57 184Z" fill="#A78BFA" />
	<path d="M23.8352 139.955V140.807H20.3068V139.955H23.8352ZM21.3636 146.5V139.051C21.3636 138.676 21.4517 138.364 21.6278 138.114C21.804 137.864 22.0327 137.676 22.3139 137.551C22.5952 137.426 22.892 137.364 23.2045 137.364C23.4517 137.364 23.6534 137.384 23.8097 137.423C23.9659 137.463 24.0824 137.5 24.1591 137.534L23.8693 138.403C23.8182 138.386 23.7472 138.365 23.6562 138.339C23.5682 138.314 23.4517 138.301 23.3068 138.301C22.9744 138.301 22.7344 138.385 22.5866 138.553C22.4418 138.72 22.3693 138.966 22.3693 139.29V146.5H21.3636Z" fill="#7C3AED" />
	<path d="M92.4034 195.5L90.4091 188.955H91.4659L92.8807 193.966H92.9489L94.3466 188.955H95.4205L96.8011 193.949H96.8693L98.2841 188.955H99.3409L97.3466 195.5H96.358L94.9261 190.472H94.8239L93.392 195.5H92.4034Z" fill="#7C3AED" />
	<path d="M215 81L135 121.5H55V161.5H135L215 121.5V81Z" fill="#F5F3FF" />
	<rect x="55.5" y="82" width="79" height="79" stroke="#A78BFA" />
	<path d="M134.5 82L214.5 42" stroke="#A78BFA" />
	<path d="M55.5 81.809L135.118 42H214.5V121.191L134.882 161H55.5V81.809Z" stroke="#A78BFA" />
</svg>