<svg width="272" height="240" viewBox="0 0 272 240" fill="none" class="tab" data-tab="6" xmlns="http://www.w3.org/2000/svg">
	<line x1="228" y1="169" x2="197" y2="169" stroke="#A78BFA" />
	<line x1="228" y1="95" x2="197" y2="95" stroke="#A78BFA" />
	<path d="M211.646 166.854C211.842 167.049 212.158 167.049 212.354 166.854L215.536 163.672C215.731 163.476 215.731 163.16 215.536 162.964C215.34 162.769 215.024 162.769 214.828 162.964L212 165.793L209.172 162.964C208.976 162.769 208.66 162.769 208.464 162.964C208.269 163.16 208.269 163.476 208.464 163.672L211.646 166.854ZM212.354 97.1464C212.158 96.9512 211.842 96.9512 211.646 97.1464L208.464 100.328C208.269 100.524 208.269 100.84 208.464 101.036C208.66 101.231 208.976 101.231 209.172 101.036L212 98.2071L214.828 101.036C215.024 101.231 215.34 101.231 215.536 101.036C215.731 100.84 215.731 100.524 215.536 100.328L212.354 97.1464ZM212.5 166.5L212.5 97.5L211.5 97.5L211.5 166.5L212.5 166.5Z" fill="#A78BFA" />
	<path d="M221.926 132.562V136.5H220.92V127.773H221.926V130.977H222.011C222.165 130.639 222.395 130.371 222.702 130.172C223.011 129.97 223.423 129.869 223.938 129.869C224.384 129.869 224.774 129.959 225.109 130.138C225.445 130.314 225.705 130.585 225.889 130.952C226.077 131.315 226.17 131.778 226.17 132.341V136.5H225.165V132.409C225.165 131.889 225.03 131.487 224.76 131.203C224.493 130.916 224.122 130.773 223.648 130.773C223.318 130.773 223.023 130.842 222.761 130.982C222.503 131.121 222.298 131.324 222.148 131.591C222 131.858 221.926 132.182 221.926 132.562Z" fill="#7C3AED" />
	<line x1="104" y1="229" x2="44" y2="229" stroke="#A78BFA" />
	<line x1="60" y1="158" x2="44" y2="158" stroke="#A78BFA" />
	<path d="M48.6464 226.854C48.8417 227.049 49.1583 227.049 49.3536 226.854L52.5355 223.672C52.7308 223.476 52.7308 223.16 52.5355 222.964C52.3403 222.769 52.0237 222.769 51.8284 222.964L49 225.793L46.1716 222.964C45.9763 222.769 45.6597 222.769 45.4645 222.964C45.2692 223.16 45.2692 223.476 45.4645 223.672L48.6464 226.854ZM49.3536 160.146C49.1583 159.951 48.8417 159.951 48.6464 160.146L45.4645 163.328C45.2692 163.524 45.2692 163.84 45.4645 164.036C45.6597 164.231 45.9763 164.231 46.1716 164.036L49 161.207L51.8284 164.036C52.0237 164.231 52.3403 164.231 52.5355 164.036C52.7308 163.84 52.7308 163.524 52.5355 163.328L49.3536 160.146ZM49.5 226.5L49.5 160.5L48.5 160.5L48.5 226.5L49.5 226.5Z" fill="#A78BFA" />
	<path d="M58.8352 190.955V191.807H55.3068V190.955H58.8352ZM56.3636 197.5V190.051C56.3636 189.676 56.4517 189.364 56.6278 189.114C56.804 188.864 57.0327 188.676 57.3139 188.551C57.5952 188.426 57.892 188.364 58.2045 188.364C58.4517 188.364 58.6534 188.384 58.8097 188.423C58.9659 188.463 59.0824 188.5 59.1591 188.534L58.8693 189.403C58.8182 189.386 58.7472 189.365 58.6562 189.339C58.5682 189.314 58.4517 189.301 58.3068 189.301C57.9744 189.301 57.7344 189.385 57.5866 189.553C57.4418 189.72 57.3693 189.966 57.3693 190.29V197.5H56.3636Z" fill="#7C3AED" />
	<mask id="mask0_5873_67868" style="mask-type:alpha" maskUnits="userSpaceOnUse" x="65" y="35" width="127" height="194">
		<rect x="65" y="228.5" width="193" height="127" rx="63.5" transform="rotate(-90 65 228.5)" fill="#F5F3FF" />
	</mask>
	<g mask="url(#mask0_5873_67868)">
		<rect x="66" y="153.5" width="125" height="76" fill="#F5F3FF" />
		<ellipse cx="128.5" cy="157.5" rx="61.5" ry="15" fill="#F5F3FF" />
	</g>
	<path d="M190.5 157.5C190.5 159.429 188.963 161.404 185.83 163.3C182.727 165.178 178.204 166.887 172.57 168.329C161.311 171.212 145.73 173 128.5 173C111.27 173 95.689 171.212 84.4298 168.329C78.7965 166.887 74.2733 165.178 71.1705 163.3C68.0374 161.404 66.5 159.429 66.5 157.5C66.5 155.571 68.0374 153.596 71.1705 151.7C74.2733 149.822 78.7965 148.113 84.4298 146.671C95.689 143.788 111.27 142 128.5 142C145.73 142 161.311 143.788 172.57 146.671C178.204 148.113 182.727 149.822 185.83 151.7C188.963 153.596 190.5 155.571 190.5 157.5Z" stroke="#C4B5FD" />
	<rect x="65.5" y="228" width="192" height="126" rx="63" transform="rotate(-90 65.5 228)" stroke="#A78BFA" />
	<path d="M66 165.5C66 168.914 68.5907 172.295 71.6814 175.45C74.7721 178.604 79.3021 181.47 85.0129 183.885C90.7237 186.299 97.5034 188.214 104.965 189.521C112.426 190.827 120.424 191.5 128.5 191.5C136.576 191.5 144.574 190.827 152.035 189.521C159.497 188.214 166.276 186.299 171.987 183.885C177.698 181.47 182.228 178.604 185.319 175.45C188.409 172.295 191 168.914 191 165.5" stroke="#A78BFA" />
	<path d="M66 93.5C66 96.9144 68.5907 100.295 71.6814 103.45C74.7721 106.604 79.3021 109.47 85.0129 111.885C90.7237 114.299 97.5034 116.214 104.965 117.521C112.426 118.827 120.424 119.5 128.5 119.5C136.576 119.5 144.574 118.827 152.035 117.521C159.497 116.214 166.276 114.299 171.987 111.885C177.698 109.47 182.228 106.604 185.319 103.45C188.409 100.295 191 96.9144 191 93.5" stroke="#A78BFA" />
	<line x1="65.5" y1="78.5" x2="65.5" y2="19.5" stroke="#A78BFA" />
	<line x1="190.5" y1="78.5" x2="190.5" y2="19.5" stroke="#A78BFA" />
	<path d="M67.6464 29.1464C67.4512 29.3417 67.4512 29.6583 67.6464 29.8536L70.8284 33.0355C71.0237 33.2308 71.3403 33.2308 71.5355 33.0355C71.7308 32.8403 71.7308 32.5237 71.5355 32.3284L68.7071 29.5L71.5355 26.6716C71.7308 26.4763 71.7308 26.1597 71.5355 25.9645C71.3403 25.7692 71.0237 25.7692 70.8284 25.9645L67.6464 29.1464ZM188.354 29.8536C188.549 29.6583 188.549 29.3417 188.354 29.1465L185.172 25.9645C184.976 25.7692 184.66 25.7692 184.464 25.9645C184.269 26.1597 184.269 26.4763 184.464 26.6716L187.293 29.5L184.464 32.3284C184.269 32.5237 184.269 32.8403 184.464 33.0355C184.66 33.2308 184.976 33.2308 185.172 33.0355L188.354 29.8536ZM68 30L188 30L188 29L68 29L68 30Z" fill="#A78BFA" />
	<path d="M128.392 23.6364C127.847 23.6364 127.365 23.4986 126.947 23.223C126.53 22.9446 126.203 22.5526 125.967 22.0469C125.732 21.5384 125.614 20.9375 125.614 20.2443C125.614 19.5568 125.732 18.9602 125.967 18.4545C126.203 17.9489 126.531 17.5582 126.952 17.2827C127.372 17.0071 127.858 16.8693 128.409 16.8693C128.835 16.8693 129.172 16.9403 129.419 17.0824C129.669 17.2216 129.859 17.3807 129.99 17.5597C130.124 17.7358 130.227 17.8807 130.301 17.9943H130.386V14.7727H131.392V23.5H130.42V22.4943H130.301C130.227 22.6136 130.122 22.7642 129.986 22.946C129.849 23.125 129.655 23.2855 129.402 23.4276C129.149 23.5668 128.813 23.6364 128.392 23.6364ZM128.528 22.733C128.932 22.733 129.273 22.6278 129.551 22.4176C129.83 22.2045 130.041 21.9105 130.186 21.5355C130.331 21.1577 130.403 20.7216 130.403 20.2273C130.403 19.7386 130.332 19.3111 130.19 18.9446C130.048 18.5753 129.838 18.2884 129.56 18.0838C129.281 17.8764 128.938 17.7727 128.528 17.7727C128.102 17.7727 127.747 17.8821 127.463 18.1009C127.182 18.3168 126.97 18.6108 126.828 18.983C126.689 19.3523 126.619 19.767 126.619 20.2273C126.619 20.6932 126.69 21.1165 126.832 21.4972C126.977 21.875 127.19 22.1761 127.472 22.4006C127.756 22.6222 128.108 22.733 128.528 22.733Z" fill="#7C3AED" />
</svg>