<svg width="272" height="240" viewBox="0 0 272 240" fill="none" class="tab" data-tab="4" xmlns="http://www.w3.org/2000/svg">
	<line x1="33.5" y1="194" x2="11.5" y2="194" stroke="#A78BFA" />
	<line x1="33.5" y1="126" x2="11.5" y2="126" stroke="#A78BFA" />
	<path d="M22.1464 192.854C22.3417 193.049 22.6583 193.049 22.8536 192.854L26.0355 189.672C26.2308 189.476 26.2308 189.16 26.0355 188.964C25.8403 188.769 25.5237 188.769 25.3284 188.964L22.5 191.793L19.6716 188.964C19.4763 188.769 19.1597 188.769 18.9645 188.964C18.7692 189.16 18.7692 189.476 18.9645 189.672L22.1464 192.854ZM22.8536 127.146C22.6583 126.951 22.3417 126.951 22.1464 127.146L18.9645 130.328C18.7692 130.524 18.7692 130.84 18.9645 131.036C19.1597 131.231 19.4763 131.231 19.6716 131.036L22.5 128.207L25.3284 131.036C25.5237 131.231 25.8403 131.231 26.0355 131.036C26.2308 130.84 26.2308 130.524 26.0355 130.328L22.8536 127.146ZM23 192.5L23 127.5L22 127.5L22 192.5L23 192.5Z" fill="#A78BFA" />
	<path d="M15.3352 157.955V158.807H11.8068V157.955H15.3352ZM12.8636 164.5V157.051C12.8636 156.676 12.9517 156.364 13.1278 156.114C13.304 155.864 13.5327 155.676 13.8139 155.551C14.0952 155.426 14.392 155.364 14.7045 155.364C14.9517 155.364 15.1534 155.384 15.3097 155.423C15.4659 155.463 15.5824 155.5 15.6591 155.534L15.3693 156.403C15.3182 156.386 15.2472 156.365 15.1562 156.339C15.0682 156.314 14.9517 156.301 14.8068 156.301C14.4744 156.301 14.2344 156.385 14.0866 156.553C13.9418 156.72 13.8693 156.966 13.8693 157.29V164.5H12.8636Z" fill="#7C3AED" />
	<line x1="234.5" y1="155" x2="219.5" y2="155" stroke="#A78BFA" />
	<line x1="256.5" y1="195" x2="185.5" y2="195" stroke="#A78BFA" />
	<line x1="256.5" y1="57" x2="185.5" y2="57" stroke="#A78BFA" />
	<line x1="234.5" y1="98" x2="219.5" y2="98" stroke="#A78BFA" />
	<path d="M226.146 153.854C226.342 154.049 226.658 154.049 226.854 153.854L230.036 150.672C230.231 150.476 230.231 150.16 230.036 149.964C229.84 149.769 229.524 149.769 229.328 149.964L226.5 152.793L223.672 149.964C223.476 149.769 223.16 149.769 222.964 149.964C222.769 150.16 222.769 150.476 222.964 150.672L226.146 153.854ZM226.854 99.1464C226.658 98.9512 226.342 98.9512 226.146 99.1464L222.964 102.328C222.769 102.524 222.769 102.84 222.964 103.036C223.16 103.231 223.476 103.231 223.672 103.036L226.5 100.207L229.328 103.036C229.524 103.231 229.84 103.231 230.036 103.036C230.231 102.84 230.231 102.524 230.036 102.328L226.854 99.1464ZM227 153.5L227 99.5L226 99.5L226 153.5L227 153.5Z" fill="#A78BFA" />
	<path d="M246.146 193.854C246.342 194.049 246.658 194.049 246.854 193.854L250.036 190.672C250.231 190.476 250.231 190.16 250.036 189.964C249.84 189.769 249.524 189.769 249.328 189.964L246.5 192.793L243.672 189.964C243.476 189.769 243.16 189.769 242.964 189.964C242.769 190.16 242.769 190.476 242.964 190.672L246.146 193.854ZM246.854 58.1465C246.658 57.9512 246.342 57.9512 246.146 58.1465L242.964 61.3284C242.769 61.5237 242.769 61.8403 242.964 62.0355C243.16 62.2308 243.476 62.2308 243.672 62.0355L246.5 59.2071L249.328 62.0355C249.524 62.2308 249.84 62.2308 250.036 62.0355C250.231 61.8403 250.231 61.5237 250.036 61.3284L246.854 58.1465ZM247 193.5L247 58.5L246 58.5L246 193.5L247 193.5Z" fill="#A78BFA" />
	<path d="M254.426 125.562V129.5H253.42V120.773H254.426V123.977H254.511C254.665 123.639 254.895 123.371 255.202 123.172C255.511 122.97 255.923 122.869 256.438 122.869C256.884 122.869 257.274 122.959 257.609 123.138C257.945 123.314 258.205 123.585 258.389 123.952C258.577 124.315 258.67 124.778 258.67 125.341V129.5H257.665V125.409C257.665 124.889 257.53 124.487 257.26 124.203C256.993 123.916 256.622 123.773 256.148 123.773C255.818 123.773 255.523 123.842 255.261 123.982C255.003 124.121 254.798 124.324 254.648 124.591C254.5 124.858 254.426 125.182 254.426 125.562Z" fill="#7C3AED" />
	<path d="M233.347 129.653C232.932 129.653 232.555 129.575 232.217 129.419C231.879 129.26 231.611 129.031 231.412 128.733C231.213 128.432 231.114 128.068 231.114 127.642C231.114 127.267 231.188 126.963 231.335 126.73C231.483 126.494 231.68 126.31 231.928 126.176C232.175 126.043 232.447 125.943 232.746 125.878C233.047 125.81 233.349 125.756 233.653 125.716C234.051 125.665 234.374 125.626 234.621 125.601C234.871 125.572 235.053 125.526 235.166 125.46C235.283 125.395 235.341 125.281 235.341 125.119V125.085C235.341 124.665 235.226 124.338 234.996 124.105C234.768 123.872 234.423 123.756 233.96 123.756C233.48 123.756 233.104 123.861 232.831 124.071C232.558 124.281 232.366 124.506 232.256 124.744L231.301 124.403C231.472 124.006 231.699 123.696 231.983 123.474C232.27 123.25 232.582 123.094 232.92 123.006C233.261 122.915 233.597 122.869 233.926 122.869C234.136 122.869 234.378 122.895 234.651 122.946C234.926 122.994 235.192 123.095 235.447 123.249C235.706 123.402 235.92 123.634 236.091 123.943C236.261 124.253 236.347 124.668 236.347 125.188V129.5H235.341V128.614H235.29C235.222 128.756 235.108 128.908 234.949 129.07C234.79 129.232 234.578 129.369 234.314 129.483C234.05 129.597 233.727 129.653 233.347 129.653ZM233.5 128.75C233.898 128.75 234.233 128.672 234.506 128.516C234.781 128.359 234.989 128.158 235.128 127.911C235.27 127.663 235.341 127.403 235.341 127.131V126.21C235.298 126.261 235.205 126.308 235.06 126.351C234.918 126.391 234.753 126.426 234.565 126.457C234.381 126.486 234.2 126.511 234.024 126.534C233.851 126.554 233.71 126.571 233.602 126.585C233.341 126.619 233.097 126.675 232.869 126.751C232.645 126.825 232.463 126.937 232.324 127.088C232.188 127.236 232.119 127.437 232.119 127.693C232.119 128.043 232.249 128.307 232.507 128.486C232.768 128.662 233.099 128.75 233.5 128.75Z" fill="#7C3AED" />
	<path d="M37.1464 204.146C36.9512 204.342 36.9512 204.658 37.1464 204.854L40.3284 208.036C40.5237 208.231 40.8403 208.231 41.0355 208.036C41.2308 207.84 41.2308 207.524 41.0355 207.328L38.2071 204.5L41.0355 201.672C41.2308 201.476 41.2308 201.16 41.0355 200.964C40.8403 200.769 40.5237 200.769 40.3284 200.964L37.1464 204.146ZM124.854 204.854C125.049 204.658 125.049 204.342 124.854 204.146L121.672 200.964C121.476 200.769 121.16 200.769 120.964 200.964C120.769 201.16 120.769 201.476 120.964 201.672L123.793 204.5L120.964 207.328C120.769 207.524 120.769 207.84 120.964 208.036C121.16 208.231 121.476 208.231 121.672 208.036L124.854 204.854ZM37.5 205H124.5V204H37.5V205Z" fill="#A78BFA" />
	<path d="M78.9034 220.5L76.9091 213.955H77.9659L79.3807 218.966H79.4489L80.8466 213.955H81.9205L83.3011 218.949H83.3693L84.7841 213.955H85.8409L83.8466 220.5H82.858L81.4261 215.472H81.3239L79.892 220.5H78.9034Z" fill="#7C3AED" />
	<line x1="36" y1="223.5" x2="36" y2="162.5" stroke="#A78BFA" stroke-dasharray="4 4" />
	<line x1="81" y1="52.5" x2="81" y2="32.5" stroke="#A78BFA" />
	<line x1="175" y1="52.5" x2="175" y2="32.5" stroke="#A78BFA" />
	<path d="M82.1464 37.1464C81.9512 37.3417 81.9512 37.6583 82.1464 37.8536L85.3284 41.0355C85.5237 41.2308 85.8403 41.2308 86.0355 41.0355C86.2308 40.8403 86.2308 40.5237 86.0355 40.3284L83.2071 37.5L86.0355 34.6716C86.2308 34.4763 86.2308 34.1597 86.0355 33.9645C85.8403 33.7692 85.5237 33.7692 85.3284 33.9645L82.1464 37.1464ZM173.854 37.8536C174.049 37.6583 174.049 37.3417 173.854 37.1464L170.672 33.9645C170.476 33.7692 170.16 33.7692 169.964 33.9645C169.769 34.1597 169.769 34.4763 169.964 34.6716L172.793 37.5L169.964 40.3284C169.769 40.5237 169.769 40.8403 169.964 41.0355C170.16 41.2308 170.476 41.2308 170.672 41.0355L173.854 37.8536ZM82.5 38H173.5V37H82.5V38Z" fill="#A78BFA" />
	<path d="M128.426 19.7727V28.5H127.42V19.7727H128.426Z" fill="#7C3AED" />
	<mask id="mask0_5864_67865" style="mask-type:alpha" maskUnits="userSpaceOnUse" x="36" y="56" width="181" height="139">
		<path d="M37.3654 101.35C37.3654 77.0607 57.1224 57.3654 81.5 57.3654H171.5C195.878 57.3654 215.635 77.0607 215.635 101.35V149.65C215.635 173.939 195.878 193.635 171.5 193.635H81.5C57.1224 193.635 37.3654 173.939 37.3654 149.65V101.35Z" fill="#D9D9D9" stroke="#A78BFA" stroke-width="1.73077" />
	</mask>
	<g mask="url(#mask0_5864_67865)">
		<rect x="36.5" y="125.5" width="180" height="69" fill="#F5F3FF" />
	</g>
	<mask id="path-22-inside-1_5864_67865" fill="white">
		<path fill-rule="evenodd" clip-rule="evenodd" d="M36.5 101.5C36.5 76.6472 56.6472 56.5 81.5 56.5C81.5438 56.5 81.5876 56.5001 81.6314 56.5002H171.5C196.353 56.5002 216.5 76.6474 216.5 101.5V149.5C216.5 174.353 196.353 194.5 171.5 194.5H81.5V194.5C56.6472 194.5 36.5 174.353 36.5 149.5V101.5Z" />
	</mask>
	<path d="M81.6314 56.5002L81.6289 57.3656H81.6314V56.5002ZM81.5 194.5H80.6346V195.366H81.5V194.5ZM81.5 194.5H82.3654V193.635H81.5V194.5ZM81.5 55.6346C56.1692 55.6346 35.6346 76.1692 35.6346 101.5H37.3654C37.3654 77.1251 57.1251 57.3654 81.5 57.3654V55.6346ZM81.6339 55.6348C81.5893 55.6347 81.5446 55.6346 81.5 55.6346V57.3654C81.543 57.3654 81.586 57.3654 81.6289 57.3656L81.6339 55.6348ZM81.6314 57.3656H171.5V55.6348H81.6314V57.3656ZM217.365 101.5C217.365 76.1694 196.831 55.6348 171.5 55.6348V57.3656C195.875 57.3656 215.635 77.1253 215.635 101.5H217.365ZM217.365 149.5V101.5H215.635V149.5H217.365ZM171.5 195.366C196.831 195.366 217.365 174.831 217.365 149.5H215.635C215.635 173.875 195.875 193.635 171.5 193.635V195.366ZM171.5 193.635H81.5V195.366H171.5V193.635ZM82.3654 194.5V194.5H80.6346V194.5H82.3654ZM35.6346 149.5C35.6346 174.831 56.1692 195.365 81.5 195.365V193.635C57.1251 193.635 37.3654 173.875 37.3654 149.5H35.6346ZM35.6346 101.5V149.5H37.3654V101.5H35.6346Z" fill="#A78BFA" mask="url(#path-22-inside-1_5864_67865)" />
	<mask id="path-24-inside-2_5864_67865" fill="white">
		<path fill-rule="evenodd" clip-rule="evenodd" d="M36.5 101.5C36.5 76.6472 56.6472 56.5 81.5 56.5C81.5438 56.5 81.5876 56.5001 81.6314 56.5002H171.5C196.353 56.5002 216.5 76.6474 216.5 101.5V149.5C216.5 174.353 196.353 194.5 171.5 194.5H81.5V194.5C56.6472 194.5 36.5 174.353 36.5 149.5V101.5Z" />
	</mask>
	<path d="M81.6314 56.5002L81.6286 57.5002H81.6314V56.5002ZM81.5 194.5H80.5V195.5H81.5V194.5ZM81.5 194.5H82.5V193.5H81.5V194.5ZM81.5 55.5C56.0949 55.5 35.5 76.0949 35.5 101.5H37.5C37.5 77.1995 57.1995 57.5 81.5 57.5V55.5ZM81.6343 55.5002C81.5895 55.5001 81.5448 55.5 81.5 55.5V57.5C81.5429 57.5 81.5857 57.5001 81.6286 57.5002L81.6343 55.5002ZM81.6314 57.5002H171.5V55.5002H81.6314V57.5002ZM217.5 101.5C217.5 76.0951 196.905 55.5002 171.5 55.5002V57.5002C195.801 57.5002 215.5 77.1997 215.5 101.5H217.5ZM217.5 149.5V101.5H215.5V149.5H217.5ZM171.5 195.5C196.905 195.5 217.5 174.905 217.5 149.5H215.5C215.5 173.801 195.801 193.5 171.5 193.5V195.5ZM171.5 193.5H81.5V195.5H171.5V193.5ZM82.5 194.5V194.5H80.5V194.5H82.5ZM35.5 149.5C35.5 174.905 56.0949 195.5 81.5 195.5V193.5C57.1995 193.5 37.5 173.801 37.5 149.5H35.5ZM35.5 101.5V149.5H37.5V101.5H35.5Z" fill="#A78BFA" mask="url(#path-24-inside-2_5864_67865)" />
	<rect x="37" y="57" width="89" height="137" rx="44.5" stroke="#A78BFA" />
	<line x1="126" y1="223.5" x2="126" y2="162.5" stroke="#A78BFA" stroke-dasharray="4 4" />
</svg>