<svg width="272" height="240" viewBox="0 0 272 240" fill="none" xmlns="http://www.w3.org/2000/svg" class="tab" data-tab="1">
	<line x1="218" y1="193.5" x2="178" y2="193.5" stroke="#A78BFA" />
	<line x1="218" y1="153.5" x2="178" y2="153.5" stroke="#A78BFA" />
	<path d="M213.646 192.354C213.842 192.549 214.158 192.549 214.354 192.354L217.536 189.172C217.731 188.976 217.731 188.66 217.536 188.464C217.34 188.269 217.024 188.269 216.828 188.464L214 191.293L211.172 188.464C210.976 188.269 210.66 188.269 210.464 188.464C210.269 188.66 210.269 188.976 210.464 189.172L213.646 192.354ZM214.354 154.646C214.158 154.451 213.842 154.451 213.646 154.646L210.464 157.828C210.269 158.024 210.269 158.34 210.464 158.536C210.66 158.731 210.976 158.731 211.172 158.536L214 155.707L216.828 158.536C217.024 158.731 217.34 158.731 217.536 158.536C217.731 158.34 217.731 158.024 217.536 157.828L214.354 154.646ZM214.5 192L214.5 155L213.5 155L213.5 192L214.5 192Z" fill="#A78BFA" />
	<path d="M226.835 171.455V172.307H223.307V171.455H226.835ZM224.364 178V170.551C224.364 170.176 224.452 169.864 224.628 169.614C224.804 169.364 225.033 169.176 225.314 169.051C225.595 168.926 225.892 168.864 226.205 168.864C226.452 168.864 226.653 168.884 226.81 168.923C226.966 168.963 227.082 169 227.159 169.034L226.869 169.903C226.818 169.886 226.747 169.865 226.656 169.839C226.568 169.814 226.452 169.801 226.307 169.801C225.974 169.801 225.734 169.885 225.587 170.053C225.442 170.22 225.369 170.466 225.369 170.79V178H224.364Z" fill="#7C3AED" />
	<line x1="92.5" y1="60" x2="92.5" y2="40" stroke="#A78BFA" />
	<line x1="175.5" y1="60" x2="175.5" y2="40" stroke="#A78BFA" />
	<path d="M93.6464 44.6464C93.4512 44.8417 93.4512 45.1583 93.6464 45.3536L96.8284 48.5355C97.0237 48.7308 97.3403 48.7308 97.5355 48.5355C97.7308 48.3403 97.7308 48.0237 97.5355 47.8284L94.7071 45L97.5355 42.1716C97.7308 41.9763 97.7308 41.6597 97.5355 41.4645C97.3403 41.2692 97.0237 41.2692 96.8284 41.4645L93.6464 44.6464ZM174.354 45.3536C174.549 45.1583 174.549 44.8417 174.354 44.6464L171.172 41.4645C170.976 41.2692 170.66 41.2692 170.464 41.4645C170.269 41.6597 170.269 41.9763 170.464 42.1716L173.293 45L170.464 47.8284C170.269 48.0237 170.269 48.3403 170.464 48.5355C170.66 48.7308 170.976 48.7308 171.172 48.5355L174.354 45.3536ZM94 45.5H174V44.5H94V45.5Z" fill="#A78BFA" />
	<path d="M134.392 36.1364C133.847 36.1364 133.365 35.9986 132.947 35.723C132.53 35.4446 132.203 35.0526 131.967 34.5469C131.732 34.0384 131.614 33.4375 131.614 32.7443C131.614 32.0568 131.732 31.4602 131.967 30.9545C132.203 30.4489 132.531 30.0582 132.952 29.7827C133.372 29.5071 133.858 29.3693 134.409 29.3693C134.835 29.3693 135.172 29.4403 135.419 29.5824C135.669 29.7216 135.859 29.8807 135.99 30.0597C136.124 30.2358 136.227 30.3807 136.301 30.4943H136.386V27.2727H137.392V36H136.42V34.9943H136.301C136.227 35.1136 136.122 35.2642 135.986 35.446C135.849 35.625 135.655 35.7855 135.402 35.9276C135.149 36.0668 134.813 36.1364 134.392 36.1364ZM134.528 35.233C134.932 35.233 135.273 35.1278 135.551 34.9176C135.83 34.7045 136.041 34.4105 136.186 34.0355C136.331 33.6577 136.403 33.2216 136.403 32.7273C136.403 32.2386 136.332 31.8111 136.19 31.4446C136.048 31.0753 135.838 30.7884 135.56 30.5838C135.281 30.3764 134.938 30.2727 134.528 30.2727C134.102 30.2727 133.747 30.3821 133.463 30.6009C133.182 30.8168 132.97 31.1108 132.828 31.483C132.689 31.8523 132.619 32.267 132.619 32.7273C132.619 33.1932 132.69 33.6165 132.832 33.9972C132.977 34.375 133.19 34.6761 133.472 34.9006C133.756 35.1222 134.108 35.233 134.528 35.233Z" fill="#7C3AED" />
	<line x1="92" y1="189.5" x2="52" y2="189.5" stroke="#A78BFA" />
	<line x1="92" y1="76.5" x2="52" y2="76.5" stroke="#A78BFA" />
	<path d="M56.6464 188.354C56.8417 188.549 57.1583 188.549 57.3536 188.354L60.5355 185.172C60.7308 184.976 60.7308 184.66 60.5355 184.464C60.3403 184.269 60.0237 184.269 59.8284 184.464L57 187.293L54.1716 184.464C53.9763 184.269 53.6597 184.269 53.4645 184.464C53.2692 184.66 53.2692 184.976 53.4645 185.172L56.6464 188.354ZM57.3535 77.6464C57.1583 77.4512 56.8417 77.4512 56.6464 77.6464L53.4645 80.8284C53.2692 81.0237 53.2692 81.3403 53.4645 81.5355C53.6597 81.7308 53.9763 81.7308 54.1716 81.5355L57 78.7071L59.8284 81.5355C60.0237 81.7308 60.3403 81.7308 60.5355 81.5355C60.7308 81.3403 60.7308 81.0237 60.5355 80.8284L57.3535 77.6464ZM57.5 188L57.5 78L56.5 78L56.5 188L57.5 188Z" fill="#A78BFA" />
	<path d="M45.9261 132.062V136H44.9205V127.273H45.9261V130.477H46.0114C46.1648 130.139 46.3949 129.871 46.7017 129.672C47.0114 129.47 47.4233 129.369 47.9375 129.369C48.3835 129.369 48.7741 129.459 49.1094 129.638C49.4446 129.814 49.7045 130.085 49.8892 130.452C50.0767 130.815 50.1705 131.278 50.1705 131.841V136H49.1648V131.909C49.1648 131.389 49.0298 130.987 48.7599 130.703C48.4929 130.416 48.1222 130.273 47.6477 130.273C47.3182 130.273 47.0227 130.342 46.7614 130.482C46.5028 130.621 46.2983 130.824 46.1477 131.091C46 131.358 45.9261 131.682 45.9261 132.062Z" fill="#7C3AED" />
	<mask id="mask0_5862_67448" style="mask-type:alpha" maskUnits="userSpaceOnUse" x="95" y="125" width="80" height="91">
		<path fill-rule="evenodd" clip-rule="evenodd" d="M95 186L95 155L95 147.75L96.1759 147.75C100.499 134.684 116.242 125 135 125C153.758 125 169.501 134.684 173.824 147.75L175 147.75L175 155L175 186L175 193.25L173.824 193.25C169.501 206.316 153.758 216 135 216C116.242 216 100.499 206.316 96.1759 193.25L95 193.25L95 186Z" fill="#66CBFF" />
	</mask>
	<g mask="url(#mask0_5862_67448)">
		<rect x="175" y="125" width="91" height="80" transform="rotate(90 175 125)" fill="#F5F3FF" />
	</g>
	<path d="M135 179.5C124.042 179.5 114.144 176.446 106.999 171.533C99.8517 166.62 95.5 159.882 95.5 152.5C95.5 145.118 99.8517 138.38 106.999 133.467C114.144 128.554 124.042 125.5 135 125.5C145.958 125.5 155.856 128.554 163.001 133.467C170.148 138.38 174.5 145.118 174.5 152.5C174.5 159.882 170.148 166.62 163.001 171.533C155.856 176.446 145.958 179.5 135 179.5Z" stroke="#C4B5FD" />
	<mask id="path-16-inside-1_5862_67448" fill="white">
		<path fill-rule="evenodd" clip-rule="evenodd" d="M135 216C112.909 216 95 202.569 95 186C95 185.665 95.0073 185.332 95.0218 185L95 185L95 80.015C95 80.01 95 80.005 95 80C95 66.7452 112.909 56 135 56C157.091 56 175 66.7452 175 80L175 185L174.978 185C174.993 185.332 175 185.665 175 186C175 202.569 157.091 216 135 216Z" />
	</mask>
	<path d="M95.0218 185L96.0209 185.044L96.0664 184L95.0218 184L95.0218 185ZM95 185L94 185L94 186L95 186L95 185ZM95 80.015L96 80.015L95 80.015ZM175 80L176 80L175 80ZM175 185L175 186L176 186L176 185L175 185ZM174.978 185L174.978 184L173.934 184L173.979 185.044L174.978 185ZM94 186C94 194.67 98.6877 202.442 106.116 208.013C113.543 213.584 123.759 217 135 217L135 215C124.15 215 114.365 211.7 107.316 206.413C100.267 201.126 96 193.899 96 186L94 186ZM94.0228 184.956C94.0076 185.303 94 185.651 94 186L96 186C96 185.68 96.007 185.361 96.0209 185.044L94.0228 184.956ZM95.0218 184L95 184L95 186L95.0218 186L95.0218 184ZM96 185L96 80.015L94 80.015L94 185L96 185ZM94 80C94 80.0029 94 80.0058 94 80.0083C94 80.0108 94 80.0129 94 80.015L96 80.015C96 80.012 96 80.0092 96 80.0067C96 80.0042 96 80.0021 96 80L94 80ZM135 55C123.804 55 113.62 57.7207 106.201 62.1719C98.8024 66.6112 94 72.8833 94 80L96 80C96 73.8618 100.152 68.1339 107.23 63.8869C114.289 59.6519 124.104 57 135 57L135 55ZM176 80C176 72.8833 171.198 66.6112 163.799 62.1719C156.38 57.7207 146.196 55 135 55L135 57C145.896 57 155.711 59.6519 162.77 63.8869C169.848 68.1339 174 73.8618 174 80L176 80ZM174 80L174 185L176 185L176 80L174 80ZM175 184L174.978 184L174.978 186L175 186L175 184ZM176 186C176 185.651 175.992 185.303 175.977 184.956L173.979 185.044C173.993 185.361 174 185.68 174 186L176 186ZM135 217C146.241 217 156.457 213.584 163.884 208.013C171.312 202.442 176 194.67 176 186L174 186C174 193.899 169.733 201.126 162.684 206.413C155.635 211.7 145.85 215 135 215L135 217Z" fill="#A78BFA" mask="url(#path-16-inside-1_5862_67448)" />
	<path d="M135 103.5C124.029 103.5 114.121 100.831 106.973 96.5418C99.8145 92.2467 95.5 86.3828 95.5 80C95.5 73.6172 99.8145 67.7533 106.973 63.4582C114.121 59.1691 124.029 56.5 135 56.5C145.971 56.5 155.879 59.1691 163.027 63.4582C170.185 67.7533 174.5 73.6172 174.5 80C174.5 86.3828 170.185 92.2467 163.027 96.5418C155.879 100.831 145.971 103.5 135 103.5Z" stroke="#A78BFA" />
</svg>